<svg width="440" height="66" viewBox="0 0 440 66" fill="none" xmlns="http://www.w3.org/2000/svg">
<path d="M368.105 8.426C368.105 8.09 368.207 7.808 368.411 7.58C368.627 7.352 368.909 7.238 369.257 7.238C369.629 7.238 369.917 7.352 370.121 7.58C370.337 7.808 370.445 8.09 370.445 8.426C370.445 8.762 370.337 9.044 370.121 9.272C369.917 9.5 369.629 9.614 369.257 9.614C368.909 9.614 368.627 9.5 368.411 9.272C368.207 9.044 368.105 8.762 368.105 8.426ZM368.069 14.564C368.069 14.228 368.171 13.946 368.375 13.718C368.579 13.49 368.867 13.376 369.239 13.376C369.599 13.376 369.881 13.49 370.085 13.718C370.301 13.946 370.409 14.228 370.409 14.564C370.409 14.9 370.301 15.182 370.085 15.41C369.881 15.638 369.599 15.752 369.239 15.752C368.867 15.752 368.579 15.638 368.375 15.41C368.171 15.182 368.069 14.9 368.069 14.564ZM397.125 15.5C396.417 15.5 395.841 15.392 395.397 15.176C394.953 14.948 394.629 14.642 394.425 14.258C394.233 13.874 394.131 13.448 394.119 12.98L395.145 11.576C395.145 12.116 395.217 12.536 395.361 12.836C395.505 13.136 395.727 13.346 396.027 13.466C396.327 13.586 396.699 13.646 397.143 13.646H397.287V15.5H397.125ZM397.287 15.5V13.646C397.347 13.754 397.395 13.886 397.431 14.042C397.479 14.186 397.503 14.36 397.503 14.564C397.503 14.78 397.479 14.966 397.431 15.122C397.383 15.278 397.335 15.404 397.287 15.5ZM389.817 13.718C391.101 13.718 392.079 13.574 392.751 13.286C393.423 12.998 393.759 12.542 393.759 11.918C393.759 11.402 393.567 10.988 393.183 10.676C392.799 10.352 392.295 10.19 391.671 10.19C391.359 10.19 391.029 10.244 390.681 10.352C390.333 10.448 389.973 10.634 389.601 10.91C389.241 11.186 388.887 11.576 388.539 12.08C388.191 12.572 387.867 13.22 387.567 14.024L385.803 13.7C386.175 12.692 386.583 11.846 387.027 11.162C387.483 10.466 387.963 9.92 388.467 9.524C388.983 9.116 389.517 8.828 390.069 8.66C390.621 8.48 391.173 8.39 391.725 8.39C392.469 8.39 393.117 8.528 393.669 8.804C394.233 9.08 394.671 9.482 394.983 10.01C395.307 10.538 395.469 11.174 395.469 11.918C395.469 13.106 395.007 14 394.083 14.6C393.159 15.2 391.683 15.5 389.655 15.5C388.515 15.5 387.591 15.44 386.883 15.32C386.187 15.2 385.659 15.02 385.299 14.78C384.939 14.54 384.681 14.252 384.525 13.916L385.101 12.494C385.185 12.806 385.329 13.04 385.533 13.196C385.749 13.34 386.109 13.46 386.613 13.556C386.661 13.568 386.727 13.568 386.811 13.556C386.895 13.532 386.973 13.526 387.045 13.538C387.405 13.586 387.807 13.628 388.251 13.664C388.707 13.7 389.229 13.718 389.817 13.718ZM383.841 15.068C383.793 14.624 383.709 14.162 383.589 13.682C383.481 13.19 383.349 12.68 383.193 12.152C383.037 11.612 382.863 11.072 382.671 10.532C382.755 10.436 382.881 10.346 383.049 10.262C383.229 10.178 383.439 10.136 383.679 10.136C383.967 10.136 384.195 10.22 384.363 10.388C384.543 10.556 384.693 10.868 384.813 11.324C385.005 11.984 385.155 12.644 385.263 13.304C385.383 13.964 385.449 14.54 385.461 15.032C385.425 15.872 385.209 16.634 384.813 17.318C384.429 18.002 383.877 18.542 383.157 18.938C382.437 19.346 381.555 19.55 380.511 19.55C379.491 19.55 378.609 19.358 377.865 18.974C377.133 18.59 376.563 18.032 376.155 17.3C375.759 16.58 375.561 15.71 375.561 14.69C375.561 13.658 375.687 12.926 375.939 12.494C376.203 12.05 376.521 11.828 376.893 11.828C377.073 11.828 377.235 11.852 377.379 11.9C377.523 11.948 377.643 12.014 377.739 12.098C377.631 12.446 377.535 12.8 377.451 13.16C377.379 13.508 377.343 13.916 377.343 14.384C377.343 15.452 377.619 16.274 378.171 16.85C378.723 17.438 379.539 17.732 380.619 17.732C381.255 17.732 381.807 17.606 382.275 17.354C382.743 17.114 383.115 16.79 383.391 16.382C383.667 15.986 383.817 15.548 383.841 15.068ZM412.805 15.5C412.097 15.5 411.521 15.392 411.077 15.176C410.633 14.948 410.309 14.642 410.105 14.258C409.913 13.874 409.811 13.448 409.799 12.98L410.825 11.576C410.825 12.116 410.897 12.536 411.041 12.836C411.185 13.136 411.407 13.346 411.707 13.466C412.007 13.586 412.379 13.646 412.823 13.646H412.967V15.5H412.805ZM412.967 15.5V13.646C413.027 13.754 413.075 13.886 413.111 14.042C413.159 14.186 413.183 14.36 413.183 14.564C413.183 14.78 413.159 14.966 413.111 15.122C413.063 15.278 413.015 15.404 412.967 15.5ZM396.983 15.5V13.646H397.145C397.793 13.646 398.273 13.526 398.585 13.286C398.897 13.034 399.059 12.614 399.071 12.026L399.125 9.83C399.197 9.782 399.299 9.746 399.431 9.722C399.575 9.686 399.731 9.668 399.899 9.668C400.127 9.668 400.313 9.728 400.457 9.848C400.613 9.968 400.697 10.154 400.709 10.406L400.745 12.278C400.769 12.542 400.739 12.77 400.655 12.962C400.583 13.142 400.475 13.298 400.331 13.43C400.199 13.562 400.043 13.688 399.863 13.808L399.989 13.79C399.941 14.174 399.779 14.492 399.503 14.744C399.227 14.996 398.885 15.188 398.477 15.32C398.081 15.44 397.661 15.5 397.217 15.5H396.983ZM405.497 13.718C406.781 13.718 407.753 13.574 408.413 13.286C409.085 12.998 409.421 12.542 409.421 11.918C409.421 11.402 409.229 10.988 408.845 10.676C408.461 10.352 407.963 10.19 407.351 10.19C407.039 10.19 406.709 10.244 406.361 10.352C406.013 10.448 405.653 10.634 405.281 10.91C404.921 11.186 404.567 11.576 404.219 12.08C403.871 12.572 403.547 13.22 403.247 14.024L401.465 13.7C401.849 12.692 402.263 11.846 402.707 11.162C403.163 10.466 403.643 9.92 404.147 9.524C404.651 9.116 405.179 8.828 405.731 8.66C406.283 8.48 406.841 8.39 407.405 8.39C408.137 8.39 408.785 8.528 409.349 8.804C409.913 9.08 410.351 9.482 410.663 10.01C410.975 10.538 411.131 11.174 411.131 11.918C411.131 13.106 410.669 14 409.745 14.6C408.821 15.2 407.351 15.5 405.335 15.5C404.099 15.5 403.079 15.44 402.275 15.32C401.483 15.2 400.877 14.996 400.457 14.708C400.037 14.408 399.767 14.018 399.647 13.538L400.745 12.278C400.757 12.578 400.871 12.836 401.087 13.052C401.315 13.268 401.711 13.436 402.275 13.556C402.335 13.568 402.407 13.568 402.491 13.556C402.575 13.532 402.647 13.526 402.707 13.538C403.079 13.586 403.487 13.628 403.931 13.664C404.387 13.7 404.909 13.718 405.497 13.718ZM424.921 15.5C423.877 15.5 423.121 15.212 422.653 14.636C422.197 14.048 421.969 13.274 421.969 12.314L423.247 11.738C423.271 12.254 423.349 12.65 423.481 12.926C423.613 13.202 423.799 13.394 424.039 13.502C424.291 13.598 424.597 13.646 424.957 13.646H425.191V15.5H424.921ZM425.191 15.5V13.646C425.251 13.754 425.299 13.886 425.335 14.042C425.383 14.186 425.407 14.36 425.407 14.564C425.407 14.78 425.383 14.966 425.335 15.122C425.287 15.278 425.239 15.404 425.191 15.5ZM422.005 11.414L422.113 11.972C421.501 11.672 420.907 11.39 420.331 11.126C419.755 10.85 419.203 10.628 418.675 10.46C418.147 10.28 417.643 10.19 417.163 10.19C416.647 10.19 416.173 10.274 415.741 10.442C415.321 10.598 414.961 10.82 414.661 11.108C414.493 11 414.337 10.856 414.193 10.676C414.061 10.484 413.995 10.256 413.995 9.992C413.995 9.68 414.133 9.404 414.409 9.164C414.685 8.924 415.051 8.738 415.507 8.606C415.975 8.462 416.485 8.39 417.037 8.39C417.637 8.39 418.231 8.48 418.819 8.66C419.407 8.828 419.965 9.038 420.493 9.29C421.033 9.542 421.519 9.8 421.951 10.064C422.395 10.328 422.767 10.55 423.067 10.73C423.127 10.862 423.175 10.994 423.211 11.126C423.247 11.258 423.265 11.45 423.265 11.702C423.265 11.858 423.247 12.026 423.211 12.206C423.175 12.374 423.133 12.512 423.085 12.62C422.581 12.872 421.999 13.16 421.339 13.484C420.679 13.808 419.953 14.126 419.161 14.438C418.369 14.75 417.523 15.008 416.623 15.212C415.735 15.404 414.799 15.5 413.815 15.5H412.663V13.646H413.671C414.787 13.646 415.825 13.526 416.785 13.286C417.757 13.046 418.675 12.752 419.539 12.404C420.403 12.056 421.225 11.726 422.005 11.414ZM418.477 7.166C418.165 7.166 417.913 7.07 417.721 6.878C417.529 6.686 417.433 6.434 417.433 6.122C417.433 5.798 417.529 5.54 417.721 5.348C417.913 5.156 418.165 5.06 418.477 5.06C418.801 5.06 419.053 5.156 419.233 5.348C419.425 5.54 419.521 5.798 419.521 6.122C419.521 6.434 419.425 6.686 419.233 6.878C419.053 7.07 418.801 7.166 418.477 7.166ZM424.735 15.5V13.646H425.077C425.641 13.646 426.079 13.526 426.391 13.286C426.715 13.034 426.883 12.614 426.895 12.026L426.931 9.83C427.015 9.794 427.123 9.758 427.255 9.722C427.399 9.686 427.555 9.668 427.723 9.668C427.951 9.668 428.137 9.728 428.281 9.848C428.437 9.968 428.521 10.154 428.533 10.406L428.569 12.098C428.593 12.65 428.761 13.046 429.073 13.286C429.397 13.526 429.841 13.646 430.405 13.646H430.711V15.5H430.369C429.937 15.5 429.535 15.44 429.163 15.32C428.791 15.2 428.479 15.014 428.227 14.762C427.975 14.51 427.795 14.192 427.687 13.808L427.795 13.79C427.759 14.174 427.603 14.492 427.327 14.744C427.063 14.996 426.733 15.188 426.337 15.32C425.941 15.44 425.533 15.5 425.113 15.5H424.735ZM430.711 15.5V13.646C430.783 13.754 430.837 13.886 430.873 14.042C430.921 14.186 430.945 14.36 430.945 14.564C430.945 14.78 430.921 14.966 430.873 15.122C430.825 15.278 430.771 15.404 430.711 15.5ZM426.355 8.318C426.055 8.318 425.815 8.228 425.635 8.048C425.455 7.856 425.365 7.61 425.365 7.31C425.365 6.998 425.455 6.752 425.635 6.572C425.815 6.392 426.055 6.302 426.355 6.302C426.667 6.302 426.913 6.392 427.093 6.572C427.273 6.752 427.363 6.998 427.363 7.31C427.363 7.61 427.273 7.856 427.093 8.048C426.913 8.228 426.667 8.318 426.355 8.318ZM429.037 8.318C428.725 8.318 428.479 8.228 428.299 8.048C428.119 7.856 428.029 7.61 428.029 7.31C428.029 6.998 428.119 6.752 428.299 6.572C428.479 6.392 428.725 6.302 429.037 6.302C429.349 6.302 429.595 6.392 429.775 6.572C429.955 6.752 430.045 6.998 430.045 7.31C430.045 7.61 429.955 7.856 429.775 8.048C429.595 8.228 429.349 8.318 429.037 8.318ZM430.417 15.5V13.646H430.831C431.275 13.646 431.605 13.55 431.821 13.358C432.049 13.154 432.163 12.842 432.163 12.422L432.091 3.512C432.175 3.488 432.301 3.458 432.469 3.422C432.637 3.386 432.811 3.368 432.991 3.368C433.615 3.368 433.927 3.632 433.927 4.16L433.891 12.638C433.891 13.358 433.747 13.928 433.459 14.348C433.183 14.768 432.811 15.068 432.343 15.248C431.887 15.416 431.395 15.5 430.867 15.5H430.417ZM437.772 15.644C437.436 15.644 437.19 15.584 437.034 15.464C436.878 15.332 436.8 15.116 436.8 14.816L436.728 3.512C436.812 3.488 436.938 3.458 437.106 3.422C437.274 3.386 437.448 3.368 437.628 3.368C438.252 3.368 438.564 3.632 438.564 4.16L438.546 15.5C438.462 15.524 438.354 15.554 438.222 15.59C438.09 15.626 437.94 15.644 437.772 15.644Z" fill="#333333"/>
<rect x="0.5" y="26.5" width="439" height="39" rx="7.5" fill="white"/>
<rect x="0.5" y="26.5" width="439" height="39" rx="7.5" stroke="#98A2B3"/>
<path d="M35.92 42.9492L29.4 49.4692C28.63 50.2392 27.37 50.2392 26.6 49.4692L20.08 42.9492" stroke="#333333" stroke-width="1.5" stroke-miterlimit="10" stroke-linecap="round" stroke-linejoin="round"/>
<path d="M349.567 49.182C348.867 49.182 348.27 49.056 347.775 48.804C347.281 48.5427 346.903 48.1787 346.641 47.712C346.389 47.236 346.263 46.6853 346.263 46.06V44.912H347.397V45.962C347.397 46.7087 347.603 47.2733 348.013 47.656C348.433 48.0293 348.951 48.216 349.567 48.216C350.183 48.216 350.697 48.0293 351.107 47.656C351.527 47.2733 351.737 46.7087 351.737 45.962V44.912H352.885V46.06C352.885 46.6853 352.755 47.236 352.493 47.712C352.241 48.1787 351.868 48.5427 351.373 48.804C350.879 49.056 350.277 49.182 349.567 49.182ZM347.397 45.486H346.263V40.516C346.31 40.4973 346.38 40.4787 346.473 40.46C346.576 40.432 346.683 40.418 346.795 40.418C347.001 40.418 347.15 40.46 347.243 40.544C347.346 40.6187 347.397 40.7493 347.397 40.936V45.486ZM352.885 45.486H351.737V40.516C351.784 40.4973 351.854 40.4787 351.947 40.46C352.05 40.432 352.157 40.418 352.269 40.418C352.475 40.418 352.629 40.46 352.731 40.544C352.834 40.6187 352.885 40.7493 352.885 40.936V45.486ZM355.383 43.918H356.517V48.972C356.47 48.9907 356.4 49.0093 356.307 49.028C356.214 49.056 356.111 49.07 355.999 49.07C355.794 49.07 355.64 49.028 355.537 48.944C355.434 48.86 355.383 48.7293 355.383 48.552V43.918ZM356.517 44.856H355.383V40.516C355.43 40.4973 355.5 40.4787 355.593 40.46C355.696 40.432 355.803 40.418 355.915 40.418C356.12 40.418 356.27 40.46 356.363 40.544C356.466 40.6187 356.517 40.7493 356.517 40.936V44.856ZM359.327 40.054L361.987 49.644C361.922 49.7093 361.833 49.7653 361.721 49.812C361.609 49.868 361.502 49.896 361.399 49.896C361.278 49.896 361.175 49.868 361.091 49.812C361.007 49.756 360.946 49.6627 360.909 49.532L358.249 39.942C358.324 39.8673 358.412 39.8067 358.515 39.76C358.627 39.7133 358.734 39.69 358.837 39.69C358.958 39.69 359.061 39.718 359.145 39.774C359.229 39.83 359.29 39.9233 359.327 40.054ZM367.095 49.182C366.395 49.182 365.797 49.056 365.303 48.804C364.808 48.5427 364.43 48.1787 364.169 47.712C363.917 47.236 363.791 46.6853 363.791 46.06V44.912H364.925V45.962C364.925 46.7087 365.13 47.2733 365.541 47.656C365.961 48.0293 366.479 48.216 367.095 48.216C367.711 48.216 368.224 48.0293 368.635 47.656C369.055 47.2733 369.265 46.7087 369.265 45.962V44.912H370.413V46.06C370.413 46.6853 370.282 47.236 370.021 47.712C369.769 48.1787 369.395 48.5427 368.901 48.804C368.406 49.056 367.804 49.182 367.095 49.182ZM364.925 45.486H363.791V40.516C363.837 40.4973 363.907 40.4787 364.001 40.46C364.103 40.432 364.211 40.418 364.323 40.418C364.528 40.418 364.677 40.46 364.771 40.544C364.873 40.6187 364.925 40.7493 364.925 40.936V45.486ZM370.413 45.486H369.265V40.516C369.311 40.4973 369.381 40.4787 369.475 40.46C369.577 40.432 369.685 40.418 369.797 40.418C370.002 40.418 370.156 40.46 370.259 40.544C370.361 40.6187 370.413 40.7493 370.413 40.936V45.486ZM375.402 44.954L375.206 44.87L372.336 40.964C372.383 40.8053 372.462 40.6747 372.574 40.572C372.686 40.46 372.831 40.404 373.008 40.404C373.158 40.404 373.284 40.4507 373.386 40.544C373.489 40.628 373.596 40.7493 373.708 40.908L376.004 44.198L376.326 44.478L379.266 48.552C379.229 48.7107 379.154 48.8413 379.042 48.944C378.94 49.0467 378.8 49.098 378.622 49.098C378.473 49.098 378.347 49.0607 378.244 48.986C378.151 48.9113 378.048 48.79 377.936 48.622L375.402 44.954ZM376.354 44.786L376.046 45.066L373.176 49.07C373.139 49.0793 373.092 49.084 373.036 49.084C372.99 49.0933 372.943 49.098 372.896 49.098C372.71 49.098 372.56 49.0513 372.448 48.958C372.336 48.8647 372.28 48.7433 372.28 48.594C372.28 48.4727 372.308 48.3607 372.364 48.258C372.43 48.146 372.509 48.0293 372.602 47.908L375.22 44.478L375.598 44.128L378.258 40.446C378.305 40.4367 378.352 40.432 378.398 40.432C378.445 40.4227 378.496 40.418 378.552 40.418C378.748 40.418 378.893 40.4647 378.986 40.558C379.089 40.6513 379.14 40.768 379.14 40.908C379.14 41.0013 379.112 41.0993 379.056 41.202C379.01 41.3047 378.949 41.4073 378.874 41.51C378.473 42.0513 378.062 42.5973 377.642 43.148C377.222 43.6893 376.793 44.2353 376.354 44.786ZM389.935 44.646C389.935 43.8433 389.776 43.1993 389.459 42.714C389.151 42.2193 388.735 41.86 388.213 41.636C387.699 41.4027 387.125 41.286 386.491 41.286C386.201 41.286 385.945 41.2953 385.721 41.314C385.497 41.3327 385.291 41.3607 385.105 41.398V48.062C385.329 48.118 385.567 48.1553 385.819 48.174C386.08 48.1927 386.346 48.202 386.617 48.202C387.709 48.202 388.535 47.9033 389.095 47.306C389.655 46.6993 389.935 45.8127 389.935 44.646ZM391.097 44.646C391.097 45.6633 390.91 46.508 390.537 47.18C390.173 47.8427 389.655 48.3373 388.983 48.664C388.32 48.9907 387.536 49.154 386.631 49.154C386.341 49.154 386.005 49.14 385.623 49.112C385.249 49.0933 384.895 49.0327 384.559 48.93C384.167 48.8087 383.971 48.594 383.971 48.286V41.09C383.971 40.9407 384.008 40.8287 384.083 40.754C384.167 40.67 384.283 40.6047 384.433 40.558C384.722 40.4647 385.049 40.404 385.413 40.376C385.777 40.348 386.141 40.334 386.505 40.334C387.419 40.334 388.217 40.4973 388.899 40.824C389.589 41.1413 390.126 41.6173 390.509 42.252C390.901 42.8867 391.097 43.6847 391.097 44.646ZM393.341 46.48L393.285 45.598L397.513 45.024C397.475 44.5107 397.298 44.0907 396.981 43.764C396.663 43.428 396.225 43.26 395.665 43.26C395.086 43.26 394.605 43.47 394.223 43.89C393.849 44.3007 393.663 44.8933 393.663 45.668V45.976C393.728 46.7227 393.971 47.292 394.391 47.684C394.82 48.0667 395.403 48.258 396.141 48.258C396.533 48.258 396.887 48.1927 397.205 48.062C397.522 47.9313 397.774 47.7913 397.961 47.642C398.063 47.7073 398.143 47.7867 398.199 47.88C398.264 47.964 398.297 48.062 398.297 48.174C398.297 48.3513 398.194 48.5193 397.989 48.678C397.793 48.8273 397.527 48.9487 397.191 49.042C396.864 49.1353 396.495 49.182 396.085 49.182C395.366 49.182 394.741 49.0513 394.209 48.79C393.686 48.5287 393.28 48.1413 392.991 47.628C392.711 47.1053 392.571 46.4707 392.571 45.724C392.571 45.192 392.645 44.7207 392.795 44.31C392.953 43.89 393.168 43.5353 393.439 43.246C393.719 42.9567 394.05 42.7373 394.433 42.588C394.815 42.4293 395.231 42.35 395.679 42.35C396.248 42.35 396.747 42.4713 397.177 42.714C397.615 42.9567 397.956 43.2973 398.199 43.736C398.451 44.1653 398.577 44.66 398.577 45.22C398.577 45.4253 398.53 45.5747 398.437 45.668C398.343 45.752 398.213 45.8033 398.045 45.822L393.341 46.48ZM404.759 47.278C404.759 47.8753 404.539 48.342 404.101 48.678C403.662 49.014 403.027 49.182 402.197 49.182C401.487 49.182 400.909 49.0747 400.461 48.86C400.013 48.636 399.789 48.3933 399.789 48.132C399.789 48.02 399.817 47.9127 399.873 47.81C399.938 47.698 400.031 47.6093 400.153 47.544C400.405 47.7213 400.699 47.8847 401.035 48.034C401.371 48.1833 401.753 48.258 402.183 48.258C403.153 48.258 403.639 47.9313 403.639 47.278C403.639 47.0073 403.555 46.788 403.387 46.62C403.228 46.4427 402.99 46.3167 402.673 46.242L401.511 45.934C400.941 45.794 400.526 45.5793 400.265 45.29C400.003 44.9913 399.873 44.6227 399.873 44.184C399.873 43.6893 400.073 43.26 400.475 42.896C400.876 42.532 401.487 42.35 402.309 42.35C402.747 42.35 403.13 42.3967 403.457 42.49C403.783 42.574 404.035 42.6907 404.213 42.84C404.399 42.98 404.493 43.134 404.493 43.302C404.493 43.4233 404.46 43.5307 404.395 43.624C404.339 43.7173 404.259 43.7873 404.157 43.834C404.045 43.7593 403.9 43.68 403.723 43.596C403.555 43.5027 403.354 43.428 403.121 43.372C402.887 43.3067 402.631 43.274 402.351 43.274C401.94 43.274 401.609 43.3533 401.357 43.512C401.105 43.6707 400.979 43.8947 400.979 44.184C400.979 44.3893 401.049 44.5713 401.189 44.73C401.338 44.8793 401.571 44.9913 401.889 45.066L402.855 45.304C403.489 45.4533 403.965 45.6913 404.283 46.018C404.6 46.3353 404.759 46.7553 404.759 47.278ZM406.358 40.488C406.358 40.292 406.428 40.1287 406.568 39.998C406.708 39.858 406.881 39.788 407.086 39.788C407.301 39.788 407.474 39.858 407.604 39.998C407.735 40.1287 407.8 40.292 407.8 40.488C407.8 40.684 407.735 40.852 407.604 40.992C407.474 41.1227 407.301 41.188 407.086 41.188C406.881 41.188 406.708 41.1227 406.568 40.992C406.428 40.852 406.358 40.684 406.358 40.488ZM406.526 45.304H407.646V48.972C407.6 48.9907 407.53 49.0093 407.436 49.028C407.343 49.056 407.24 49.07 407.128 49.07C406.932 49.07 406.783 49.0327 406.68 48.958C406.578 48.874 406.526 48.7433 406.526 48.566V45.304ZM407.646 45.85H406.526V42.56C406.573 42.5413 406.643 42.5227 406.736 42.504C406.839 42.476 406.946 42.462 407.058 42.462C407.254 42.462 407.399 42.504 407.492 42.588C407.595 42.6627 407.646 42.7933 407.646 42.98V45.85ZM412.521 48.804C411.98 48.804 411.481 48.7013 411.023 48.496C410.566 48.2813 410.197 47.936 409.917 47.46C409.637 46.984 409.497 46.354 409.497 45.57C409.497 44.8607 409.633 44.268 409.903 43.792C410.183 43.316 410.566 42.9567 411.051 42.714C411.537 42.4713 412.092 42.35 412.717 42.35C413.147 42.35 413.539 42.406 413.893 42.518C414.257 42.6207 414.561 42.7513 414.803 42.91C414.943 43.0033 415.055 43.1107 415.139 43.232C415.233 43.344 415.279 43.484 415.279 43.652V47.978H414.159V43.666C414.001 43.5633 413.8 43.4747 413.557 43.4C413.324 43.316 413.044 43.274 412.717 43.274C412.092 43.274 411.588 43.4653 411.205 43.848C410.823 44.2307 410.631 44.8 410.631 45.556C410.631 46.396 410.823 46.9933 411.205 47.348C411.597 47.7027 412.078 47.88 412.647 47.88C413.058 47.88 413.389 47.81 413.641 47.67C413.893 47.53 414.094 47.376 414.243 47.208L414.299 48.202C414.159 48.3513 413.935 48.4913 413.627 48.622C413.329 48.7433 412.96 48.804 412.521 48.804ZM414.159 49.21V47.74H415.279V49.28C415.279 49.896 415.144 50.3907 414.873 50.764C414.612 51.1373 414.248 51.408 413.781 51.576C413.324 51.744 412.806 51.828 412.227 51.828C411.761 51.828 411.359 51.7767 411.023 51.674C410.687 51.5713 410.459 51.4873 410.337 51.422C410.057 51.2633 409.917 51.0627 409.917 50.82C409.917 50.6893 409.945 50.5773 410.001 50.484C410.067 50.4 410.146 50.3347 410.239 50.288C410.435 50.4373 410.711 50.5727 411.065 50.694C411.429 50.8247 411.817 50.89 412.227 50.89C412.853 50.89 413.329 50.7547 413.655 50.484C413.991 50.2133 414.159 49.7887 414.159 49.21ZM422.953 44.73V46.158H421.833V44.786C421.833 44.2633 421.683 43.8807 421.385 43.638C421.095 43.3953 420.703 43.274 420.209 43.274C419.835 43.274 419.504 43.3207 419.215 43.414C418.925 43.5073 418.678 43.6147 418.473 43.736V46.158H417.353V43.792C417.353 43.596 417.39 43.4373 417.465 43.316C417.549 43.1853 417.689 43.0593 417.885 42.938C418.127 42.798 418.449 42.6673 418.851 42.546C419.252 42.4153 419.705 42.35 420.209 42.35C421.058 42.35 421.725 42.546 422.211 42.938C422.705 43.3207 422.953 43.918 422.953 44.73ZM417.353 45.388H418.473V48.972C418.426 48.9907 418.356 49.0093 418.263 49.028C418.169 49.056 418.067 49.07 417.955 49.07C417.759 49.07 417.609 49.0327 417.507 48.958C417.404 48.874 417.353 48.7433 417.353 48.566V45.388ZM421.833 45.388H422.953V48.972C422.906 48.9907 422.831 49.0093 422.729 49.028C422.635 49.056 422.537 49.07 422.435 49.07C422.229 49.07 422.075 49.0327 421.973 48.958C421.879 48.874 421.833 48.7433 421.833 48.566V45.388Z" fill="#667085"/>
</svg>
