<svg width="326" height="204" viewBox="0 0 326 204" fill="none" xmlns="http://www.w3.org/2000/svg">
<path d="M325.708 35.163L320.459 60.584L317.08 57.2878L311.333 61.3902L306.939 55.9331L297.089 63.0959L288.67 49.017L279.281 54.518L275.557 49.3845L263.634 56.1031L260.047 48.4192L268.405 7.9375L313.214 17.19L325.708 35.163Z" fill="#EBEBEB"/>
<path d="M313.209 17.1953L325.702 35.1683L310.159 31.9598L313.209 17.1953Z" fill="#DBDBDB"/>
<path d="M319.339 65.6613L311.644 102.956L251.286 90.4954L258.926 53.502L262.513 61.1804L274.442 54.4618L278.161 59.5953L287.556 54.0998L295.969 68.1787L305.825 61.0158L310.212 66.4675L315.966 62.3705L319.339 65.6613Z" fill="#EBEBEB"/>
<path d="M165.579 203.233C252.433 203.233 322.843 195.517 322.843 186C322.843 176.483 252.433 168.768 165.579 168.768C78.7246 168.768 8.31519 176.483 8.31519 186C8.31519 195.517 78.7246 203.233 165.579 203.233Z" fill="#EBEBEB"/>
<path d="M275.999 189.716H108.896L133.055 52.6836H300.158L275.999 189.716Z" fill="#F82548"/>
<path d="M190.246 38.4863H135.559L133.053 52.6804H191.578L190.246 38.4863Z" fill="#F82548"/>
<g opacity="0.1">
<path d="M276.003 189.714H108.9L133.059 52.6816H300.162L276.003 189.714Z" fill="#FDFDFE"/>
<path d="M190.249 38.4844H135.563L133.056 52.6785H191.582L190.249 38.4844Z" fill="#FDFDFE"/>
</g>
<path d="M129.658 44.2794C129.293 42.7099 129.293 41.0773 129.658 39.5078C130.024 41.0773 130.024 42.7099 129.658 44.2794Z" fill="white"/>
<path d="M124.804 45.685C124.245 45.1059 123.764 44.457 123.372 43.7544C122.961 43.0664 122.639 42.3293 122.412 41.5605C122.972 42.1362 123.454 42.7835 123.844 43.4856C124.254 44.176 124.576 44.9148 124.804 45.685Z" fill="white"/>
<path d="M121.288 49.3331C119.747 48.8645 118.334 48.0482 117.158 46.9473C117.927 47.1708 118.664 47.4914 119.352 47.9016C120.055 48.296 120.705 48.7769 121.288 49.3331Z" fill="white"/>
<path d="M120.06 54.243C118.49 54.6087 116.858 54.6087 115.288 54.243C116.858 53.8773 118.49 53.8773 120.06 54.243Z" fill="white"/>
<path d="M121.486 59.1016C120.904 59.6571 120.256 60.138 119.555 60.533C118.868 60.9432 118.13 61.2639 117.362 61.4873C117.941 60.9289 118.59 60.4477 119.292 60.0559C119.979 59.6438 120.716 59.323 121.486 59.1016Z" fill="white"/>
<path d="M125.134 62.6074C124.667 64.1509 123.85 65.566 122.748 66.7428C122.971 65.9729 123.294 65.2355 123.708 64.549C124.098 63.8439 124.578 63.1914 125.134 62.6074Z" fill="white"/>
<path d="M130.036 63.8164C130.227 64.597 130.319 65.3986 130.31 66.2022C130.322 67.006 130.23 67.8079 130.036 68.588C129.839 67.8084 129.747 67.0061 129.762 66.2022C129.752 65.3986 129.845 64.597 130.036 63.8164Z" fill="white"/>
<path d="M134.902 62.4407C135.461 63.0197 135.942 63.6686 136.334 64.3712C136.746 65.0579 137.067 65.7954 137.288 66.5651C136.186 65.3883 135.369 63.9732 134.902 62.4297V62.4407Z" fill="white"/>
<path d="M138.409 58.7656C139.178 58.987 139.916 59.3078 140.602 59.7199C141.305 60.1118 141.954 60.593 142.533 61.1514C141.763 60.93 141.026 60.6092 140.339 60.1971C139.637 59.8052 138.988 59.3241 138.409 58.7656Z" fill="white"/>
<path d="M139.618 53.8562C141.189 53.4906 142.824 53.4906 144.395 53.8562C142.824 54.2218 141.189 54.2218 139.618 53.8562Z" fill="white"/>
<path d="M138.216 48.9913C138.797 48.4362 139.446 47.957 140.147 47.5653C140.832 47.1492 141.57 46.8264 142.341 46.6055C141.164 47.708 139.749 48.5243 138.205 48.9913H138.216Z" fill="white"/>
<path d="M134.567 45.4916C134.793 44.7235 135.113 43.9866 135.521 43.2978C135.913 42.5952 136.394 41.9463 136.953 41.3672C136.731 42.1368 136.411 42.8743 135.999 43.561C135.607 44.2636 135.126 44.9125 134.567 45.4916Z" fill="white"/>
<path d="M275.746 189.71H108.286L84.5053 57.6523H251.97L275.746 189.71Z" fill="#F82548"/>
<path d="M142.543 138.383C146.387 138.383 149.503 135.267 149.503 131.423C149.503 127.579 146.387 124.463 142.543 124.463C138.699 124.463 135.583 127.579 135.583 131.423C135.583 135.267 138.699 138.383 142.543 138.383Z" fill="white"/>
<path d="M197.554 138.383C201.398 138.383 204.514 135.267 204.514 131.423C204.514 127.579 201.398 124.463 197.554 124.463C193.71 124.463 190.594 127.579 190.594 131.423C190.594 135.267 193.71 138.383 197.554 138.383Z" fill="white"/>
<path d="M180.047 139.496L179.663 138.767C179.63 138.701 176.032 132.054 168.798 132.054C162.217 132.054 160.571 138.311 160.528 138.58L160.33 139.375L158.734 138.992L158.926 138.191C158.926 138.114 160.889 130.408 168.798 130.408C177.025 130.408 180.957 137.692 181.122 138.004L181.506 138.728L180.047 139.496Z" fill="white"/>
<path d="M132.292 15.2357C132.03 17.7548 131.072 20.1514 129.526 22.1579C127.981 24.1645 125.908 25.7021 123.539 26.5992C121.171 27.4962 118.599 27.7174 116.112 27.2382C113.625 26.7589 111.32 25.5979 109.455 23.8848L102.616 24.8885L106.038 18.9762C105.255 17.0524 104.921 14.9755 105.062 12.9034C105.202 10.8312 105.812 8.81827 106.847 7.01741C107.881 5.21654 109.313 3.67515 111.032 2.51029C112.752 1.34544 114.714 0.587771 116.77 0.294836C118.826 0.00190194 120.922 0.181409 122.898 0.819719C124.875 1.45803 126.68 2.53836 128.176 3.97864C129.672 5.41892 130.821 7.18127 131.534 9.13183C132.247 11.0824 132.507 13.1699 132.292 15.2357Z" fill="white"/>
<path d="M132.294 15.2348C132.037 17.7526 131.088 20.1501 129.552 22.1618C128.801 23.1792 127.896 24.073 126.87 24.8108C125.866 25.5763 124.758 26.195 123.579 26.6482C122.4 27.1126 121.161 27.408 119.899 27.5257C119.268 27.5823 118.634 27.5952 118.001 27.5641C117.366 27.5478 116.734 27.4818 116.109 27.3667C113.589 26.9029 111.247 25.7463 109.347 24.0265L109.506 24.0759L102.678 25.1235L102.178 25.2002L102.431 24.7615L105.831 18.8381V19.074C105.029 17.1147 104.688 14.9971 104.834 12.8849C104.98 10.7728 105.611 8.72253 106.676 6.89272C107.74 5.06866 109.202 3.50871 110.954 2.32955C112.703 1.16604 114.692 0.413588 116.773 0.12863C118.854 -0.156328 120.973 0.0336002 122.97 0.684172C124.946 1.35646 126.747 2.46206 128.241 3.92008C129.731 5.37444 130.871 7.1492 131.573 9.10967C132.276 11.0701 132.522 13.1648 132.294 15.2348ZM132.294 15.2348C132.516 13.175 132.261 11.0919 131.55 9.14621C130.838 7.20053 129.689 5.44434 128.191 4.01325C126.694 2.58215 124.887 1.51443 122.911 0.89251C120.935 0.270592 118.842 0.111115 116.795 0.426396C114.768 0.726418 112.837 1.48827 111.151 2.65313C109.48 3.82715 108.084 5.35048 107.06 7.11758C106.051 8.88861 105.457 10.8649 105.321 12.8983C105.188 14.9455 105.517 16.9965 106.286 18.8985L106.336 19.0191L106.27 19.1343L102.826 25.0357L102.584 24.6737L109.429 23.7139H109.522L109.588 23.7743C111.418 25.4772 113.685 26.6375 116.137 27.1253C116.747 27.2498 117.367 27.325 117.99 27.3502C118.613 27.3941 119.238 27.3941 119.861 27.3502C121.109 27.2496 122.338 26.9783 123.513 26.544C124.691 26.1152 125.8 25.5165 126.804 24.767C127.826 24.0351 128.732 23.1531 129.491 22.1508C131.047 20.1489 132.017 17.7549 132.294 15.2348Z" fill="#263238"/>
<path d="M112.018 20.1853C112.008 20.0037 112.035 19.8219 112.097 19.6512C112.16 19.4804 112.257 19.3244 112.383 19.1927C112.508 19.0611 112.659 18.9566 112.827 18.8858C112.994 18.815 113.175 18.7794 113.357 18.7812C113.729 18.7812 114.086 18.9292 114.349 19.1925C114.613 19.4558 114.761 19.8129 114.761 20.1853C114.761 20.5577 114.613 20.9148 114.349 21.1781C114.086 21.4414 113.729 21.5893 113.357 21.5893C113.175 21.5912 112.994 21.5556 112.827 21.4848C112.659 21.414 112.508 21.3095 112.383 21.1779C112.257 21.0462 112.16 20.8902 112.097 20.7194C112.035 20.5487 112.008 20.3669 112.018 20.1853ZM112.567 16.9439L112.249 6.0625H114.443L114.124 16.9439H112.567Z" fill="#F82548"/>
<path d="M117.242 20.1853C117.231 20.0042 117.258 19.8228 117.321 19.6525C117.383 19.4821 117.479 19.3263 117.604 19.1947C117.729 19.0632 117.88 18.9586 118.047 18.8875C118.214 18.8163 118.393 18.7802 118.575 18.7812C118.947 18.7812 119.304 18.9292 119.568 19.1925C119.831 19.4558 119.979 19.8129 119.979 20.1853C119.979 20.5577 119.831 20.9148 119.568 21.1781C119.304 21.4414 118.947 21.5893 118.575 21.5893C118.393 21.5904 118.214 21.5543 118.047 21.4831C117.88 21.412 117.729 21.3074 117.604 21.1759C117.479 21.0443 117.383 20.8885 117.321 20.7181C117.258 20.5478 117.231 20.3664 117.242 20.1853ZM117.79 16.9439L117.489 6.0625H119.683L119.364 16.9439H117.79Z" fill="#F82548"/>
<path d="M122.445 20.1853C122.435 20.0037 122.462 19.8219 122.524 19.6512C122.587 19.4804 122.684 19.3244 122.81 19.1927C122.935 19.0611 123.086 18.9566 123.254 18.8858C123.421 18.815 123.602 18.7794 123.784 18.7812C124.156 18.7812 124.513 18.9292 124.776 19.1925C125.04 19.4558 125.188 19.8129 125.188 20.1853C125.188 20.5577 125.04 20.9148 124.776 21.1781C124.513 21.4414 124.156 21.5893 123.784 21.5893C123.602 21.5912 123.421 21.5556 123.254 21.4848C123.086 21.414 122.935 21.3095 122.81 21.1779C122.684 21.0462 122.587 20.8902 122.524 20.7194C122.462 20.5487 122.435 20.3669 122.445 20.1853ZM122.994 16.9439L122.676 6.0625H124.87L124.557 16.9439H122.994Z" fill="#F82548"/>
</svg>
