<svg width="146" height="36" viewBox="0 0 146 36" fill="none" xmlns="http://www.w3.org/2000/svg">
<g clip-path="url(#clip0_1688_583)">
<path d="M47.6635 25.6239C46.1944 25.6239 44.8859 25.2883 43.738 24.6172C42.5901 23.946 41.6901 23.0364 41.0391 21.8873C40.387 20.7381 40.0615 19.4379 40.0615 17.9856C40.0615 16.5332 40.3827 15.1726 41.0251 14.0148C41.6675 12.8571 42.5492 11.9518 43.669 11.299C44.7889 10.6462 46.0748 10.3203 47.5256 10.3203C48.6088 10.3203 49.6004 10.5275 50.5004 10.9407C51.4004 11.354 52.2078 11.9744 52.9245 12.802C53.1811 13.0966 53.2727 13.3998 53.1994 13.7116C53.1261 14.0245 52.9245 14.2997 52.5936 14.5392C52.336 14.7227 52.0515 14.7831 51.74 14.7183C51.4274 14.6547 51.1428 14.4939 50.8863 14.236C49.9863 13.28 48.8664 12.802 47.5256 12.802C46.5889 12.802 45.7622 13.0178 45.0465 13.4505C44.3308 13.8821 43.7704 14.4842 43.3662 15.2568C42.962 16.0283 42.7604 16.9389 42.7604 17.9867C42.7604 18.9793 42.9674 19.862 43.3802 20.6335C43.793 21.405 44.3675 22.0168 45.1015 22.4667C45.8355 22.9177 46.6892 23.1422 47.6635 23.1422C48.3059 23.1422 48.8707 23.0645 49.3579 22.908C49.844 22.7526 50.2903 22.5088 50.6945 22.1775C50.9876 21.9391 51.2905 21.8053 51.6031 21.7772C51.9146 21.7492 52.1905 21.8376 52.4298 22.0394C52.7424 22.2973 52.9159 22.5865 52.9536 22.908C52.9903 23.2296 52.8803 23.5198 52.6227 23.7766C51.3002 25.0088 49.6479 25.6239 47.6646 25.6239H47.6635Z" fill="#0000B8"/>
<path d="M62.5928 25.625C61.252 25.625 60.0491 25.2894 58.9842 24.6182C57.9193 23.9471 57.0785 23.0375 56.4642 21.8884C55.8487 20.7392 55.5415 19.439 55.5415 17.9867C55.5415 16.5343 55.8767 15.2287 56.5472 14.0709C57.2176 12.9132 58.1262 11.9982 59.2741 11.327C60.421 10.6559 61.7122 10.3203 63.1447 10.3203C64.5771 10.3203 65.8619 10.6559 67.0012 11.327C68.1394 11.9982 69.0437 12.9121 69.7142 14.0709C70.3846 15.2287 70.7198 16.5343 70.7198 17.9867H69.6452C69.6452 19.439 69.338 20.7392 68.7226 21.8884C68.1071 23.0375 67.2675 23.9471 66.2025 24.6182C65.1376 25.2894 63.9347 25.625 62.5939 25.625H62.5928ZM63.1436 23.1443C64.0803 23.1443 64.9156 22.9199 65.6507 22.4689C66.3847 22.0189 66.9635 21.4028 67.386 20.6216C67.8085 19.8404 68.0198 18.9632 68.0198 17.9888C68.0198 17.0145 67.8085 16.1092 67.386 15.328C66.9635 14.5468 66.3847 13.9307 65.6507 13.4807C64.9156 13.0308 64.0803 12.8053 63.1436 12.8053C62.207 12.8053 61.3943 13.0308 60.6505 13.4807C59.9068 13.9318 59.3194 14.5468 58.8872 15.328C58.456 16.1092 58.2405 16.9961 58.2405 17.9888C58.2405 18.9815 58.456 19.8415 58.8872 20.6216C59.3183 21.4028 59.9068 22.0189 60.6505 22.4689C61.3943 22.9199 62.2253 23.1443 63.1436 23.1443ZM69.3143 25.5429C68.9101 25.5429 68.5749 25.4102 68.3087 25.1437C68.0424 24.8772 67.9088 24.5416 67.9088 24.137V19.9181L68.4326 16.9951L70.7187 17.9877V24.137C70.7187 24.5416 70.5851 24.8772 70.3199 25.1437C70.0537 25.4102 69.7185 25.5429 69.3143 25.5429Z" fill="#0000B8"/>
<path d="M75.236 25.5424C74.8318 25.5424 74.4966 25.4097 74.2304 25.1431C73.9641 24.8766 73.8305 24.5411 73.8305 24.1364V11.8649C73.8305 11.4419 73.9631 11.102 74.2304 10.8452C74.4966 10.5884 74.8318 10.4589 75.236 10.4589C75.6402 10.4589 75.998 10.5884 76.2556 10.8452C76.5122 11.1031 76.6415 11.443 76.6415 11.8649V24.1364C76.6415 24.5411 76.5132 24.8766 76.2556 25.1431C75.998 25.4097 75.6585 25.5424 75.236 25.5424ZM84.4365 25.5424C84.0323 25.5424 83.6971 25.4097 83.4309 25.1431C83.1646 24.8766 83.0321 24.5411 83.0321 24.1364V16.25C83.0321 15.0922 82.7475 14.2333 82.1784 13.6722C81.6093 13.1111 80.8656 12.8317 79.9473 12.8317C79.0289 12.8317 78.2022 13.1629 77.5782 13.8244C76.9541 14.4858 76.6415 15.3317 76.6415 16.3611H74.9062C74.9062 15.1666 75.1444 14.1135 75.6229 13.2039C76.1004 12.2943 76.7611 11.5822 77.6062 11.0664C78.4512 10.5517 79.4148 10.2949 80.4981 10.2949C81.5813 10.2949 82.4716 10.5248 83.28 10.9844C84.0873 11.4441 84.7167 12.1195 85.1673 13.0108C85.6167 13.902 85.842 14.9821 85.842 16.251V24.1375C85.842 24.5421 85.7138 24.8777 85.4562 25.1442C85.1986 25.4107 84.859 25.5435 84.4365 25.5435V25.5424ZM93.609 25.5424C93.2048 25.5424 92.8696 25.4097 92.6034 25.1431C92.3371 24.8766 92.2035 24.5411 92.2035 24.1364V16.25C92.2035 15.0922 91.9189 14.2333 91.3498 13.6722C90.7807 13.1111 90.037 12.8317 89.1187 12.8317C88.2004 12.8317 87.379 13.1629 86.7636 13.8244C86.1481 14.4858 85.8409 15.3317 85.8409 16.3611H83.5548C83.5548 15.1666 83.8114 14.1135 84.3266 13.2039C84.8407 12.2943 85.5618 11.5822 86.4887 11.0664C87.4157 10.5517 88.4763 10.2949 89.6705 10.2949C90.7171 10.2949 91.6441 10.5248 92.4525 10.9844C93.2609 11.4441 93.8892 12.1195 94.3398 13.0108C94.7892 13.902 95.0145 14.9821 95.0145 16.251V24.1375C95.0145 24.5421 94.8863 24.8777 94.6286 25.1442C94.371 25.4107 94.0315 25.5435 93.609 25.5435V25.5424Z" fill="#0000B8"/>
<path d="M99.9996 31.9663C99.5954 31.9663 99.2602 31.8325 98.9939 31.567C98.7277 31.3005 98.5941 30.965 98.5941 30.5603V17.9867C98.6124 16.5343 98.9519 15.2287 99.6137 14.0709C100.274 12.9132 101.174 11.9982 102.313 11.327C103.451 10.6559 104.737 10.3203 106.169 10.3203C107.602 10.3203 108.914 10.6559 110.053 11.327C111.191 11.9982 112.095 12.9121 112.766 14.0709C113.436 15.2287 113.771 16.5343 113.771 17.9867C113.771 19.439 113.463 20.7392 112.849 21.8883C112.233 23.0375 111.394 23.9471 110.329 24.6182C109.264 25.2894 108.061 25.625 106.72 25.625C105.636 25.625 104.641 25.4005 103.731 24.9495C102.822 24.4995 102.046 23.8877 101.404 23.1163V30.5614C101.404 30.966 101.276 31.3016 101.018 31.5681C100.761 31.8346 100.421 31.9674 99.9985 31.9674L99.9996 31.9663ZM106.169 23.1432C107.106 23.1432 107.941 22.9188 108.676 22.4678C109.41 22.0178 109.993 21.4017 110.426 20.6205C110.857 19.8393 111.073 18.9621 111.073 17.9877C111.073 17.0134 110.858 16.1081 110.426 15.3269C109.994 14.5457 109.411 13.9296 108.676 13.4796C107.942 13.0297 107.106 12.8042 106.169 12.8042C105.233 12.8042 104.42 13.0297 103.676 13.4796C102.932 13.9307 102.349 14.5457 101.927 15.3269C101.504 16.1081 101.293 16.9951 101.293 17.9877C101.293 18.9804 101.504 19.8404 101.927 20.6205C102.349 21.4017 102.932 22.0178 103.676 22.4678C104.42 22.9188 105.251 23.1432 106.169 23.1432Z" fill="#0000B8"/>
<path d="M123.22 25.6528C121.953 25.6528 120.818 25.382 119.818 24.8393C118.817 24.2976 118.028 23.5024 117.449 22.4547C116.87 21.4069 116.581 20.1197 116.581 18.594V11.8102C116.581 11.4067 116.714 11.07 116.98 10.8035C117.246 10.537 117.581 10.4043 117.986 10.4043C118.39 10.4043 118.724 10.5381 118.991 10.8035C119.257 11.07 119.391 11.4056 119.391 11.8102V18.594C119.391 19.6233 119.584 20.4736 119.97 21.1447C120.356 21.8159 120.879 22.3122 121.54 22.6338C122.201 22.9553 122.945 23.1161 123.772 23.1161C124.598 23.1161 125.263 22.9596 125.879 22.6478C126.494 22.3349 126.985 21.913 127.352 21.3789C127.719 20.8459 127.903 20.2481 127.903 19.5866H129.638C129.638 20.7272 129.358 21.7565 128.799 22.6758C128.238 23.5952 127.477 24.3213 126.512 24.8544C125.548 25.3874 124.451 25.6539 123.221 25.6539L123.22 25.6528ZM129.307 25.5147C128.903 25.5147 128.568 25.3809 128.302 25.1155C128.035 24.849 127.903 24.5134 127.903 24.1088V11.8102C127.903 11.3873 128.035 11.0474 128.302 10.7906C128.568 10.5338 128.903 10.4043 129.307 10.4043C129.712 10.4043 130.069 10.5338 130.326 10.7906C130.584 11.0485 130.712 11.3884 130.712 11.8102V24.1088C130.712 24.5134 130.584 24.849 130.326 25.1155C130.068 25.382 129.729 25.5147 129.307 25.5147Z" fill="#0000B8"/>
<path d="M140.077 25.625C138.791 25.625 137.602 25.4275 136.511 25.0326C135.418 24.6377 134.568 24.137 133.963 23.5295C133.688 23.236 133.572 22.9005 133.619 22.5228C133.664 22.1462 133.843 21.8387 134.156 21.5992C134.523 21.3057 134.885 21.1816 135.243 21.2269C135.601 21.2733 135.908 21.4341 136.166 21.7092C136.477 22.0588 136.978 22.3847 137.666 22.6879C138.355 22.9911 139.121 23.1432 139.966 23.1432C141.031 23.1432 141.844 22.9684 142.404 22.6188C142.964 22.2703 143.254 21.8193 143.272 21.2679C143.29 20.7165 143.028 20.2385 142.487 19.8339C141.945 19.4304 140.959 19.0991 139.526 18.8412C137.671 18.4733 136.326 17.9219 135.491 17.1871C134.656 16.4523 134.237 15.5513 134.237 14.4853C134.237 13.5476 134.512 12.7707 135.064 12.1546C135.615 11.5385 136.322 11.0799 137.185 10.7757C138.049 10.4725 138.948 10.3203 139.884 10.3203C141.097 10.3203 142.17 10.5135 143.107 10.8997C144.044 11.286 144.787 11.8191 145.338 12.4988C145.595 12.7934 145.714 13.1009 145.696 13.4225C145.678 13.744 145.521 14.0148 145.228 14.236C144.934 14.4389 144.586 14.5025 144.182 14.4292C143.777 14.3558 143.438 14.1907 143.162 13.9328C142.703 13.4915 142.207 13.1883 141.675 13.0232C141.142 12.8581 140.527 12.7751 139.829 12.7751C139.021 12.7751 138.338 12.9132 137.777 13.1883C137.217 13.4635 136.937 13.8692 136.937 14.4011C136.937 14.7324 137.025 15.0313 137.199 15.2978C137.374 15.5643 137.718 15.8038 138.232 16.0142C138.746 16.2257 139.499 16.4329 140.491 16.6347C141.869 16.9098 142.956 17.2594 143.756 17.6824C144.555 18.1054 145.128 18.5974 145.477 19.1574C145.825 19.7185 146.001 20.3659 146.001 21.1018C146.001 21.9477 145.776 22.7106 145.326 23.3903C144.876 24.0701 144.215 24.6128 143.343 25.0175C142.47 25.4221 141.382 25.6239 140.078 25.6239L140.077 25.625Z" fill="#0000B8"/>
<path d="M26.3803 29.5653C25.9611 33.3882 23.4346 36.3684 20.7141 35.9638C18.1014 35.5743 16.5062 32.2736 16.9502 28.6363V28.6298C16.9815 28.3859 17.0182 28.1421 17.0677 27.8982C17.7931 24.2426 20.353 21.8709 22.79 22.3737C23.8205 22.5863 24.7021 23.2909 25.3413 24.3094C25.3532 24.331 25.3661 24.3494 25.3779 24.371C26.1982 25.7046 26.6024 27.5637 26.3803 29.5653Z" fill="#EF072F"/>
<path d="M14.6005 26.9585C14.2578 27.3696 13.8202 27.7332 13.3017 28.0429C12.6421 28.4346 11.8391 28.7313 10.9229 28.8985C7.06422 29.5999 2.79486 27.7278 1.61031 24.7756C0.490422 21.9875 2.6278 19.4432 6.21595 18.9361C6.30865 18.921 6.40134 18.908 6.49404 18.8994C7.02757 18.8411 7.56434 18.8282 8.09788 18.8627C11.1363 19.045 14.0174 20.629 15.078 22.8313C15.7873 24.3074 15.562 25.805 14.5995 26.9596L14.6005 26.9585Z" fill="#F82548"/>
<path d="M9.59717 15.6412C8.85992 16.595 7.66566 16.8766 6.34638 16.5486C6.32482 16.5454 6.30003 16.5389 6.27847 16.5335C4.96457 16.2001 3.52996 15.27 2.29905 13.8187C-0.147663 10.941 -0.705988 7.29182 0.935575 5.68518C2.49953 4.15299 5.54446 5.02159 7.8392 7.60258C8.4374 8.27588 8.93752 9.01068 9.32555 9.76383C9.40315 9.91813 9.47645 10.0724 9.54759 10.2267C10.4756 12.2736 10.5748 14.3766 9.59717 15.6401V15.6412Z" fill="#FDEE00"/>
<path d="M17.5829 5.46075C17.5495 5.60318 17.5086 5.74453 17.4601 5.88048C17.2811 6.4297 17.0095 6.93036 16.67 7.36843C15.6094 8.74525 13.8967 9.48113 12.2066 9.05708C11.9501 8.99234 11.7065 8.90602 11.4791 8.79488C10.9272 8.53268 10.4584 8.14963 10.0941 7.68027C9.18435 6.52573 8.88794 4.85758 9.4495 3.24555C10.2784 0.858782 12.682 -0.468397 14.8226 0.152032C16.9298 0.767066 18.1628 3.08585 17.5829 5.46075Z" fill="#FFF45C"/>
<path d="M26.4364 12.7172C26.3254 12.7236 26.2079 12.7323 26.0936 12.7323C26.0688 12.7355 26.0473 12.7355 26.0225 12.7355C23.3979 12.7754 20.4112 11.2562 19.3129 9.24275C19.1189 8.88452 18.9949 8.536 18.9432 8.20798C18.9098 7.99218 18.9033 7.78177 18.9281 7.58108C19.0736 6.34022 20.3099 5.46838 22.2166 5.41983C24.7959 5.35832 27.7417 6.83117 28.9068 8.74856C30.1011 10.7156 29.0459 12.5067 26.4364 12.7172Z" fill="#00008F"/>
<path d="M33.367 25.1391C32.5801 27.0598 30.0019 26.5904 27.5369 24.1109C27.3946 23.9717 27.2566 23.8271 27.1176 23.6728C26.8341 23.3609 26.5657 23.0362 26.3221 22.7027C24.3454 20.0689 23.5208 16.9743 24.4154 15.4335C24.8994 14.5994 25.8037 14.3653 26.8837 14.662C27.4884 14.826 28.1513 15.1529 28.8238 15.6374C29.3423 16.0075 29.8661 16.4715 30.3781 17.0142C32.7871 19.5801 34.157 23.2023 33.367 25.1391Z" fill="#0000B8"/>
<path d="M18.8915 19.3844C16.5504 18.9614 13.9528 16.8368 13.1573 14.7058C12.3834 12.6341 13.6326 11.3889 15.8907 11.868C18.1025 12.3374 20.5427 14.3076 21.3996 16.3297C22.2791 18.4046 21.184 19.8009 18.8915 19.3833V19.3844Z" fill="#0000B8"/>
<g style="mix-blend-mode:multiply" opacity="0.08">
<path d="M17.4601 5.88104C17.2812 6.43025 17.0095 6.93091 16.67 7.36899C15.6094 8.7458 13.8967 9.48169 12.2066 9.05764C11.9501 8.99289 11.7065 8.90657 11.4791 8.79544C10.9272 8.53324 10.4584 8.15019 10.0941 7.68082C11.8057 6.49176 13.8881 5.79688 16.1279 5.79688C16.5784 5.79688 17.0225 5.82493 17.4601 5.87996V5.88104Z" fill="#EF072F"/>
</g>
<g style="mix-blend-mode:multiply" opacity="0.23">
<path d="M26.0936 12.7313C26.0688 12.7345 26.0473 12.7345 26.0225 12.7345C23.3979 12.7745 20.4112 11.2552 19.3129 9.2418C19.1189 8.88357 18.9949 8.53505 18.9432 8.20703C21.9105 8.66129 24.4736 10.3499 26.0936 12.7313Z" fill="#EF072F"/>
</g>
<g style="mix-blend-mode:multiply" opacity="0.23">
<path d="M29.1914 18.4137C29.1914 20.5102 28.5867 22.4654 27.5379 24.1109C27.3957 23.9717 27.2577 23.8271 27.1187 23.6728C26.8352 23.3609 26.5668 23.0362 26.3232 22.7027C24.3464 20.0689 23.5219 16.9743 24.4165 15.4335C24.9005 14.5994 25.8048 14.3653 26.8848 14.662C27.4894 14.826 28.1523 15.1529 28.8249 15.6374C29.0653 16.5233 29.1924 17.4534 29.1924 18.4137H29.1914Z" fill="#EF072F"/>
</g>
<g style="mix-blend-mode:multiply" opacity="0.25">
<path d="M25.3779 24.372C23.4594 26.9444 20.3994 28.6115 16.9502 28.6363V28.6298C16.9815 28.3859 17.0181 28.1421 17.0677 27.8982C17.7931 24.2426 20.353 21.8709 22.79 22.3737C23.8204 22.5863 24.7021 23.2909 25.3413 24.3094C25.3532 24.331 25.3661 24.3494 25.3779 24.371V24.372Z" fill="#0A55CC"/>
</g>
<g style="mix-blend-mode:multiply" opacity="0.23">
<path d="M9.59717 15.641C8.85992 16.5949 7.66566 16.8765 6.34637 16.5485C6.49727 13.9146 7.6053 11.5397 9.32663 9.76367C9.40423 9.91797 9.47752 10.0723 9.54866 10.2266C10.4767 12.2734 10.5759 14.3764 9.59824 15.6399L9.59717 15.641Z" fill="#EF072F"/>
</g>
<g style="mix-blend-mode:multiply" opacity="0.17">
<path d="M14.6005 26.9582C11.2258 25.5965 8.71224 22.5515 8.09787 18.8613C11.1363 19.0437 14.0174 20.6277 15.078 22.8299C15.7872 24.306 15.562 25.8037 14.5995 26.9582H14.6005Z" fill="#0A55CC"/>
</g>
</g>
<defs>
<clipPath id="clip0_1688_583">
<rect width="146" height="36" fill="white"/>
</clipPath>
</defs>
</svg>
