<svg width="282" height="244" viewBox="0 0 282 244" fill="none" xmlns="http://www.w3.org/2000/svg">
<path d="M133.272 218.415H4.64947C3.64185 218.413 2.6761 218.012 1.96423 217.298C1.25236 216.585 0.852538 215.619 0.852539 214.611V33.8073C0.861311 32.8055 1.265 31.8476 1.97593 31.1417C2.68685 30.4358 3.64759 30.0388 4.64947 30.0371H133.272C134.281 30.0371 135.248 30.4378 135.962 31.1511C136.675 31.8644 137.076 32.8319 137.076 33.8406V214.611C137.076 215.62 136.675 216.587 135.962 217.301C135.248 218.014 134.281 218.415 133.272 218.415ZM4.64947 30.1703C3.68602 30.1721 2.76263 30.5561 2.08199 31.2379C1.40134 31.9198 1.01907 32.8439 1.01907 33.8073V214.611C1.01907 215.575 1.40134 216.499 2.08199 217.181C2.76263 217.863 3.68602 218.246 4.64947 218.248H133.272C134.236 218.247 135.16 217.863 135.842 217.181C136.524 216.499 136.907 215.575 136.909 214.611V33.8073C136.907 32.8433 136.524 31.9192 135.842 31.2375C135.16 30.5558 134.236 30.1721 133.272 30.1703H4.64947Z" fill="#EBEBEB"/>
<path d="M277.357 218.415H148.728C147.719 218.413 146.753 218.012 146.04 217.299C145.327 216.586 144.926 215.619 144.924 214.611V33.8073C144.935 32.8049 145.34 31.847 146.052 31.1413C146.764 30.4355 147.725 30.0388 148.728 30.0371H277.357C278.358 30.0406 279.317 30.4383 280.026 31.144C280.736 31.8497 281.139 32.8067 281.147 33.8073V214.611C281.147 215.618 280.748 216.583 280.038 217.296C279.328 218.009 278.363 218.411 277.357 218.415ZM148.728 30.1703C147.764 30.1721 146.84 30.5558 146.158 31.2375C145.476 31.9192 145.092 32.8433 145.091 33.8073V214.611C145.092 215.575 145.476 216.499 146.158 217.181C146.84 217.863 147.764 218.247 148.728 218.248H277.357C278.321 218.247 279.245 217.863 279.927 217.181C280.609 216.499 280.992 215.575 280.994 214.611V33.8073C280.992 32.8433 280.609 31.9192 279.927 31.2375C279.245 30.5558 278.321 30.1721 277.357 30.1703H148.728Z" fill="#EBEBEB"/>
<path d="M95.5476 136.83H222.172C222.846 136.837 223.514 136.703 224.134 136.438C224.753 136.172 225.311 135.781 225.771 135.289C226.232 134.796 226.585 134.214 226.808 133.578C227.031 132.942 227.12 132.266 227.068 131.594L219.914 20.7125C219.801 19.3019 219.167 17.9838 218.135 17.0157C217.103 16.0475 215.747 15.4989 214.332 15.4769H87.7139C87.0394 15.4693 86.3706 15.6022 85.7502 15.8671C85.1297 16.132 84.5712 16.5231 84.1101 17.0155C83.649 17.508 83.2954 18.091 83.0718 18.7274C82.8482 19.3639 82.7594 20.0399 82.8112 20.7125L89.9721 131.594C90.0845 133.004 90.7178 134.321 91.7486 135.289C92.7794 136.257 94.1338 136.806 95.5476 136.83Z" fill="#EBEBEB"/>
<path d="M224.847 130.922L218.112 26.6478C218.043 25.6416 217.596 24.6986 216.861 24.008C216.126 23.3174 215.157 22.9303 214.149 22.9242H88.8632C88.383 22.917 87.9067 23.0104 87.4648 23.1982C87.0228 23.386 86.625 23.6642 86.297 24.0148C85.9689 24.3655 85.7178 24.7809 85.5598 25.2343C85.4017 25.6877 85.3403 26.1692 85.3793 26.6478L92.1139 130.922C92.1887 131.926 92.6371 132.866 93.3708 133.557C94.1044 134.247 95.07 134.638 96.0773 134.652H221.363C221.843 134.658 222.32 134.564 222.762 134.375C223.204 134.187 223.601 133.908 223.929 133.557C224.257 133.206 224.508 132.79 224.666 132.336C224.824 131.882 224.886 131.401 224.847 130.922Z" fill="#FAFAFA"/>
<path d="M168.368 92.3484H206.977L202.934 26.8691H164.325L168.368 92.3484Z" fill="#F5F5F5"/>
<path d="M111.516 74.0498H138.661L135.816 28.0078H108.672L111.516 74.0498Z" fill="#F5F5F5"/>
<path d="M87.7222 15.5022H214.34C215.751 15.5237 217.103 16.0686 218.135 17.0312C219.166 17.9938 219.803 19.3054 219.922 20.7113H82.8195C82.7716 20.0408 82.8632 19.3677 83.0886 18.7344C83.3139 18.1011 83.6681 17.5214 84.1288 17.0319C84.5895 16.5424 85.1467 16.1538 85.7652 15.8905C86.3837 15.6272 87.05 15.495 87.7222 15.5022Z" fill="#F5F5F5"/>
<path d="M211.248 18.1239C211.274 18.4629 211.425 18.7803 211.671 19.0151C211.916 19.25 212.24 19.3857 212.58 19.3962C212.744 19.3985 212.907 19.3666 213.058 19.3024C213.209 19.2383 213.345 19.1433 213.458 19.0235C213.57 18.9037 213.656 18.7619 213.71 18.6069C213.764 18.452 213.786 18.2875 213.773 18.1239C213.747 17.7849 213.596 17.4675 213.35 17.2326C213.104 16.9978 212.78 16.8621 212.44 16.8516C212.277 16.8502 212.114 16.8829 211.964 16.9474C211.813 17.0119 211.677 17.1069 211.565 17.2265C211.453 17.346 211.367 17.4875 211.313 17.6419C211.258 17.7964 211.236 17.9605 211.248 18.1239Z" fill="white"/>
<path d="M205.056 18.124C205.082 18.463 205.233 18.7804 205.478 19.0152C205.724 19.2501 206.048 19.3858 206.388 19.3962C206.552 19.3986 206.715 19.3667 206.866 19.3025C207.017 19.2384 207.153 19.1433 207.266 19.0236C207.378 18.9038 207.464 18.7619 207.518 18.607C207.572 18.4521 207.594 18.2876 207.581 18.124C207.554 17.785 207.404 17.4675 207.158 17.2327C206.912 16.9979 206.588 16.8622 206.248 16.8517C206.084 16.8493 205.921 16.8812 205.77 16.9454C205.619 17.0096 205.483 17.1046 205.371 17.2244C205.259 17.3441 205.173 17.486 205.119 17.6409C205.064 17.7958 205.043 17.9603 205.056 18.124Z" fill="white"/>
<path d="M198.863 18.124C198.889 18.463 199.04 18.7804 199.286 19.0152C199.532 19.2501 199.856 19.3858 200.196 19.3962C200.359 19.3976 200.522 19.365 200.672 19.3005C200.823 19.236 200.959 19.1409 201.071 19.0214C201.183 18.9018 201.269 18.7604 201.323 18.6059C201.378 18.4515 201.4 18.2874 201.388 18.124C201.362 17.785 201.211 17.4675 200.965 17.2327C200.72 16.9979 200.396 16.8622 200.056 16.8517C199.892 16.8493 199.729 16.8812 199.578 16.9454C199.427 17.0096 199.291 17.1046 199.178 17.2244C199.066 17.3441 198.98 17.486 198.926 17.6409C198.872 17.7958 198.85 17.9603 198.863 18.124Z" fill="white"/>
<path d="M31.1356 187.238H187.922C188.758 187.247 189.586 187.082 190.355 186.754C191.124 186.425 191.816 185.941 192.387 185.331C192.958 184.72 193.396 183.998 193.674 183.21C193.951 182.421 194.061 181.584 193.997 180.75L185.131 43.5103C184.995 41.7626 184.212 40.1286 182.934 38.9285C181.656 37.7284 179.976 37.0486 178.223 37.0223H21.4368C20.5995 37.0083 19.7686 37.1698 18.9976 37.4965C18.2266 37.8232 17.5326 38.3077 16.9603 38.919C16.3879 39.5302 15.95 40.2545 15.6747 41.0453C15.3993 41.8361 15.2927 42.6758 15.3617 43.5103L24.2212 180.77C24.3649 182.514 25.1524 184.143 26.4305 185.338C27.7085 186.534 29.3857 187.211 31.1356 187.238Z" fill="#F5F5F5"/>
<path d="M191.223 179.947L182.903 50.8267C182.807 49.5845 182.25 48.4232 181.342 47.5704C180.434 46.7177 179.24 46.235 177.994 46.2171H22.8593C22.2655 46.2097 21.6766 46.3262 21.1303 46.5592C20.5841 46.7923 20.0924 47.1367 19.6868 47.5705C19.2812 48.0043 18.9706 48.518 18.7747 49.0786C18.5789 49.6393 18.5022 50.2347 18.5495 50.8267L26.8827 179.947C26.9742 181.192 27.5289 182.359 28.4377 183.215C29.3464 184.072 30.5432 184.558 31.7921 184.576H186.927C187.521 184.581 188.11 184.462 188.655 184.226C189.201 183.991 189.692 183.645 190.096 183.209C190.5 182.773 190.809 182.258 191.003 181.697C191.197 181.135 191.272 180.539 191.223 179.947Z" fill="white"/>
<path d="M95.6643 134.944H143.466L138.456 53.8711H90.655L95.6643 134.944Z" fill="#F5F5F5"/>
<path d="M39.9931 118.202H73.6059L70.0887 61.1895H36.4692L39.9931 118.202Z" fill="#F5F5F5"/>
<path d="M39.0726 162.242H53.9073L52.3485 137.09H37.5205L39.0726 162.242Z" fill="#F5F5F5"/>
<path d="M58.4534 162.242H73.2815L71.7294 137.09H56.9014L58.4534 162.242Z" fill="#F5F5F5"/>
<path d="M21.4368 37.0223H178.223C179.976 37.0486 181.656 37.7284 182.934 38.9285C184.212 40.1286 184.995 41.7626 185.131 43.5103H15.3617C15.2927 42.6758 15.3993 41.8361 15.6747 41.0453C15.95 40.2545 16.3879 39.5302 16.9603 38.919C17.5326 38.3077 18.2266 37.8232 18.9976 37.4965C19.7686 37.1698 20.5995 37.0083 21.4368 37.0223Z" fill="#EBEBEB"/>
<path d="M177.151 41.413C177.737 40.8077 177.689 39.8109 177.044 39.1865C176.399 38.5622 175.401 38.5468 174.815 39.1521C174.229 39.7574 174.277 40.7542 174.922 41.3785C175.567 42.0029 176.565 42.0183 177.151 41.413Z" fill="white"/>
<path d="M166.744 40.2695C166.776 40.6932 166.965 41.0896 167.275 41.3806C167.584 41.6716 167.992 41.8361 168.416 41.8416C168.622 41.8489 168.826 41.8126 169.016 41.7352C169.206 41.6577 169.378 41.5409 169.519 41.3924C169.661 41.2438 169.769 41.0669 169.838 40.8734C169.906 40.6799 169.932 40.474 169.915 40.2695C169.883 39.8413 169.69 39.4411 169.375 39.1494C169.06 38.8578 168.646 38.6963 168.217 38.6975C168.014 38.694 167.812 38.7331 167.625 38.8122C167.439 38.8913 167.27 39.0087 167.132 39.1568C166.993 39.3049 166.887 39.4805 166.82 39.6721C166.753 39.8638 166.728 40.0673 166.744 40.2695Z" fill="white"/>
<path d="M159.073 40.2694C159.108 40.6931 159.299 41.0887 159.609 41.3793C159.919 41.6698 160.327 41.8346 160.752 41.8414C160.954 41.8439 161.155 41.8041 161.342 41.7247C161.528 41.6452 161.696 41.5278 161.834 41.3799C161.973 41.232 162.079 41.0569 162.146 40.8657C162.213 40.6745 162.24 40.4714 162.224 40.2694C162.192 39.8446 162.002 39.4473 161.691 39.1561C161.38 38.8649 160.971 38.7012 160.545 38.6974C160.343 38.6949 160.142 38.7347 159.955 38.8141C159.769 38.8936 159.601 39.011 159.463 39.1589C159.324 39.3068 159.218 39.4819 159.151 39.6731C159.084 39.8643 159.057 40.0674 159.073 40.2694Z" fill="white"/>
<path d="M255.437 238.158H136.607C135.974 238.164 135.346 238.039 134.764 237.79C134.182 237.541 133.659 237.174 133.226 236.711C132.794 236.249 132.463 235.702 132.253 235.105C132.044 234.507 131.961 233.873 132.01 233.242L138.725 129.241C138.826 127.915 139.419 126.675 140.388 125.764C141.357 124.854 142.631 124.338 143.961 124.319H262.785C263.418 124.313 264.046 124.439 264.628 124.689C265.21 124.938 265.734 125.306 266.167 125.769C266.6 126.232 266.932 126.779 267.142 127.377C267.352 127.975 267.435 128.609 267.387 129.241L260.673 233.242C260.57 234.566 259.976 235.805 259.008 236.714C258.039 237.624 256.766 238.139 255.437 238.158Z" fill="#F5F5F5"/>
<path d="M134.131 232.617L140.446 134.785C140.517 133.843 140.938 132.962 141.626 132.315C142.314 131.668 143.218 131.301 144.163 131.287H261.714C262.165 131.281 262.612 131.369 263.027 131.546C263.441 131.723 263.815 131.984 264.123 132.313C264.43 132.642 264.666 133.032 264.815 133.458C264.963 133.883 265.021 134.335 264.985 134.785L258.663 232.617C258.594 233.559 258.173 234.441 257.485 235.088C256.797 235.736 255.891 236.102 254.946 236.114H137.395C136.945 236.119 136.498 236.031 136.085 235.853C135.671 235.676 135.298 235.415 134.991 235.086C134.684 234.757 134.449 234.367 134.301 233.942C134.152 233.517 134.095 233.066 134.131 232.617Z" fill="white"/>
<path d="M206.547 198.519H170.33L174.12 137.09H210.344L206.547 198.519Z" fill="#F5F5F5"/>
<path d="M243.956 229.493H205.188L209.251 163.74H248.02L243.956 229.493Z" fill="#F5F5F5"/>
<path d="M262.774 124.319H143.977C142.647 124.338 141.373 124.854 140.404 125.764C139.436 126.675 138.842 127.915 138.741 129.241H267.377C267.425 128.609 267.341 127.975 267.131 127.377C266.921 126.779 266.589 126.232 266.157 125.769C265.724 125.306 265.2 124.938 264.618 124.689C264.036 124.439 263.408 124.313 262.774 124.319Z" fill="#EBEBEB"/>
<path d="M146.875 126.775C146.852 127.096 146.709 127.396 146.474 127.617C146.24 127.838 145.931 127.963 145.609 127.967C145.455 127.969 145.303 127.939 145.161 127.879C145.019 127.819 144.892 127.73 144.786 127.618C144.681 127.506 144.6 127.373 144.549 127.227C144.498 127.082 144.478 126.928 144.49 126.775C144.524 126.456 144.671 126.16 144.904 125.941C145.138 125.722 145.443 125.595 145.763 125.582C145.916 125.58 146.069 125.61 146.21 125.67C146.351 125.73 146.479 125.819 146.583 125.931C146.688 126.044 146.768 126.177 146.819 126.322C146.869 126.467 146.888 126.621 146.875 126.775Z" fill="white"/>
<path d="M152.683 126.774C152.659 127.096 152.516 127.396 152.282 127.617C152.048 127.838 151.739 127.963 151.417 127.967C151.263 127.969 151.11 127.939 150.969 127.879C150.827 127.819 150.699 127.73 150.594 127.618C150.489 127.506 150.408 127.373 150.357 127.227C150.306 127.082 150.286 126.928 150.298 126.774C150.323 126.453 150.467 126.152 150.703 125.931C150.938 125.711 151.247 125.586 151.57 125.582C151.723 125.582 151.875 125.613 152.015 125.674C152.156 125.734 152.282 125.824 152.386 125.936C152.491 126.048 152.571 126.18 152.622 126.324C152.673 126.468 152.694 126.622 152.683 126.774Z" fill="white"/>
<path d="M158.506 126.778C158.478 127.093 158.336 127.387 158.107 127.604C157.877 127.821 157.576 127.947 157.26 127.957C157.107 127.959 156.954 127.93 156.813 127.869C156.671 127.809 156.544 127.72 156.439 127.608C156.334 127.495 156.254 127.362 156.204 127.217C156.154 127.072 156.135 126.918 156.148 126.765C156.173 126.444 156.316 126.144 156.55 125.924C156.784 125.703 157.092 125.578 157.413 125.572C157.566 125.574 157.717 125.608 157.856 125.671C157.995 125.734 158.119 125.825 158.222 125.938C158.324 126.051 158.402 126.184 158.451 126.328C158.5 126.473 158.519 126.626 158.506 126.778Z" fill="white"/>
<path d="M267.995 65.1396L267.438 72.4375L268.269 72.5008L268.825 65.2029L267.995 65.1396Z" fill="#F82548"/>
<path d="M270.155 37.1641L268.604 57.4551L269.434 57.5185L270.985 37.2276L270.155 37.1641Z" fill="#F82548"/>
<path d="M270.469 5.82617H127.252L109.025 243.808H252.242L270.469 5.82617Z" fill="#F82548"/>
<g opacity="0.7">
<path d="M265.102 0H121.884L103.657 237.982H246.875L265.102 0Z" fill="#F82548"/>
<path opacity="0.9" d="M265.102 0H121.884L103.657 237.982H246.875L265.102 0Z" fill="white"/>
</g>
<path d="M160.664 27.5591H132.911L133.453 20.4648H161.205L160.664 27.5591Z" fill="#F82548"/>
<path d="M207.861 43.1509H131.714L132.264 36.0566H208.402L207.861 43.1509Z" fill="white"/>
<path d="M231.609 27.5591H168.977L169.518 20.4648H232.159L231.609 27.5591Z" fill="white"/>
<path d="M200.274 74.3457H233.031L233.572 67.2598H200.823L200.274 74.3457Z" fill="white"/>
<path d="M219.596 51.6641H131.059L130.518 58.7583H219.054L219.596 51.6641Z" fill="white"/>
<path d="M129.32 74.3457H191.953L192.503 67.2598H129.87L129.32 74.3457Z" fill="#F82548"/>
<path d="M155.876 89.9556H128.124L128.665 82.8613H156.417L155.876 89.9556Z" fill="#F82548"/>
<path d="M175.362 105.543H126.927L127.468 98.457H175.904L175.362 105.543Z" fill="white"/>
<path d="M219.639 105.543H183.693L184.234 98.457H220.18L219.639 105.543Z" fill="white"/>
<path d="M226.832 89.9556H164.199L164.74 82.8613H227.381L226.832 89.9556Z" fill="white"/>
<path d="M195.486 136.75H228.243L228.784 129.656H196.036L195.486 136.75Z" fill="#F82548"/>
<path d="M214.808 114.059H126.271L125.73 121.153H214.266L214.808 114.059Z" fill="white"/>
<path d="M124.532 136.75H187.165L187.715 129.656H125.074L124.532 136.75Z" fill="white"/>
<path opacity="0.4" d="M241.676 201.703H119.558L123.405 151.461H245.531L241.676 201.703Z" fill="#FCFCFD"/>
<path opacity="0.4" d="M240.868 212.25H118.75L117.684 226.13H239.811L240.868 212.25Z" fill="white"/>
<path d="M31.3297 100.045C31.6658 100.059 32.0007 99.9973 32.3098 99.8646C32.6188 99.7318 32.8942 99.5314 33.1155 99.2781C33.3369 99.0248 33.4985 98.7251 33.5886 98.401C33.6787 98.0769 33.695 97.7367 33.6361 97.4055C33.5126 96.6933 33.1451 96.0462 32.5966 95.5752C32.0482 95.1043 31.353 94.8388 30.6302 94.8243C30.2875 94.8213 29.9484 94.8944 29.6373 95.0384C29.3263 95.1824 29.0511 95.3937 28.8317 95.657C28.6165 95.9091 28.4589 96.2051 28.3697 96.5243C28.2806 96.8435 28.262 97.1783 28.3154 97.5055C28.4493 98.2108 28.8222 98.8484 29.3712 99.311C29.9202 99.7735 30.6119 100.033 31.3297 100.045ZM29.1398 95.8818C29.3273 95.6711 29.5586 95.5038 29.8175 95.3916C30.0763 95.2795 30.3565 95.2251 30.6386 95.2323C31.267 95.2426 31.8722 95.472 32.3496 95.881C32.8269 96.2899 33.1465 96.8527 33.2531 97.4722C33.298 97.7438 33.284 98.0218 33.2122 98.2876C33.1404 98.5533 33.0124 98.8006 32.8368 99.0126C32.6481 99.222 32.4167 99.3884 32.1581 99.5004C31.8995 99.6125 31.6198 99.6676 31.338 99.662C30.7109 99.647 30.1082 99.4159 29.6318 99.0078C29.1554 98.5997 28.8345 98.0396 28.7234 97.4222C28.675 97.1493 28.6873 96.8691 28.7592 96.6015C28.8312 96.3338 28.9611 96.0853 29.1398 95.8735V95.8818Z" fill="white"/>
<path d="M37.5009 87.0083C37.1616 87.0013 36.8249 87.0685 36.5142 87.2051C36.2036 87.3417 35.9265 87.5445 35.7024 87.7993C35.4862 88.0509 35.3279 88.3468 35.2387 88.6662C35.1495 88.9856 35.1316 89.3207 35.1861 89.6478C35.3112 90.3594 35.6791 91.0056 36.2272 91.4763C36.7753 91.947 37.4697 92.213 38.192 92.2291C38.5303 92.2349 38.866 92.168 39.1763 92.033C39.4865 91.898 39.7642 91.6979 39.9906 91.4464C40.2035 91.1914 40.359 90.8937 40.4467 90.5733C40.5343 90.2529 40.552 89.9174 40.4985 89.5895C40.3752 88.8787 40.0089 88.2326 39.4622 87.7618C38.9154 87.2911 38.2222 87.0247 37.5009 87.0083ZM39.6991 91.1716C39.5119 91.3828 39.2807 91.5503 39.0218 91.6625C38.7628 91.7747 38.4824 91.8289 38.2003 91.8211C37.5728 91.8076 36.9692 91.577 36.4925 91.1687C36.0158 90.7603 35.6954 90.1993 35.5858 89.5812C35.5405 89.3103 35.555 89.0328 35.6284 88.7681C35.7017 88.5034 35.8321 88.258 36.0104 88.0491C36.1966 87.8366 36.4276 87.6681 36.6868 87.5558C36.946 87.4435 37.2269 87.3901 37.5092 87.3997C38.1377 87.4099 38.7429 87.6394 39.2202 88.0483C39.6976 88.4573 40.0172 89.02 40.1238 89.6395C40.168 89.9104 40.1529 90.1876 40.0796 90.4521C40.0062 90.7166 39.8764 90.9621 39.6991 91.1716Z" fill="white"/>
<path d="M37.8454 105.228C37.8005 104.956 37.8145 104.678 37.8863 104.413C37.9581 104.147 38.0862 103.9 38.2618 103.688C38.4514 103.48 38.6831 103.314 38.9414 103.202C39.1998 103.09 39.479 103.034 39.7605 103.038C40.1617 103.047 40.5558 103.145 40.9144 103.325C41.273 103.505 41.5871 103.763 41.8339 104.079C41.9088 103.954 41.9671 103.838 42.042 103.721C41.7583 103.392 41.4086 103.126 41.0155 102.941C40.6225 102.756 40.1949 102.656 39.7605 102.647C39.4222 102.641 39.0866 102.708 38.7763 102.843C38.466 102.978 38.1883 103.178 37.962 103.43C37.7491 103.684 37.5935 103.982 37.5059 104.303C37.4182 104.623 37.4006 104.959 37.4541 105.286C37.4813 105.441 37.5175 105.594 37.5623 105.744L38.0536 105.886C37.9508 105.679 37.8806 105.457 37.8454 105.228Z" fill="white"/>
<path d="M45.0762 84.3976C45.2581 84.3951 45.4393 84.3756 45.6175 84.3393L45.4926 83.9563C45.3541 83.9691 45.2147 83.9691 45.0762 83.9563C44.58 83.9444 44.0963 83.7979 43.6769 83.5325C43.2574 83.267 42.918 82.8926 42.6948 82.4492L42.2952 82.5075C42.5318 83.0539 42.9189 83.5217 43.4113 83.8563C43.9037 84.191 44.4812 84.3787 45.0762 84.3976Z" fill="white"/>
<path d="M44.7152 97.4021C44.6698 97.1299 44.6843 96.851 44.7576 96.585C44.8309 96.319 44.9614 96.0721 45.1399 95.8617C45.292 95.6861 45.4792 95.5442 45.6894 95.4453C45.7311 95.2788 45.7644 95.1289 45.7977 94.9707C45.4266 95.0901 45.0954 95.309 44.8401 95.6035C44.6243 95.8569 44.4663 96.1543 44.3771 96.475C44.288 96.7957 44.2698 97.1319 44.3239 97.4604C44.3778 97.8224 44.5023 98.1704 44.6902 98.4845C44.7569 98.3097 44.8151 98.1431 44.8818 97.9766C44.8012 97.7933 44.7452 97.6001 44.7152 97.4021Z" fill="white"/>
<path d="M37.5027 87.4016C38.1312 87.4119 38.7364 87.6413 39.2137 88.0503C39.6911 88.4592 40.0107 89.022 40.1173 89.6415C40.1626 89.9118 40.1488 90.1887 40.077 90.4531C40.0051 90.7176 39.8768 90.9634 39.701 91.1736C39.5137 91.3847 39.2825 91.5523 39.0236 91.6645C38.7647 91.7767 38.4843 91.8308 38.2022 91.823C37.7597 91.8131 37.3264 91.6948 36.9402 91.4785C36.5541 91.2622 36.2269 90.9545 35.9873 90.5824C35.9873 90.7989 35.9873 91.0154 35.9873 91.2402C36.268 91.5421 36.6065 91.7847 36.9826 91.9535C37.3588 92.1222 37.765 92.2138 38.1772 92.2227C38.5155 92.2285 38.8512 92.1617 39.1615 92.0266C39.4717 91.8916 39.7494 91.6916 39.9757 91.44C40.1887 91.1851 40.3442 90.8873 40.4319 90.5669C40.5195 90.2465 40.5372 89.911 40.4837 89.5832C40.3601 88.8709 39.9926 88.2238 39.4442 87.7529C38.8957 87.2819 38.2005 87.0164 37.4778 87.002C37.1931 87.0052 36.9112 87.0587 36.6451 87.1601C36.5702 87.335 36.5036 87.5099 36.4369 87.6931C36.7591 87.5009 37.1276 87.4002 37.5027 87.4016Z" fill="white"/>
<path d="M40.4469 107.866C40.7896 107.869 41.1287 107.796 41.4398 107.652C41.7508 107.508 42.026 107.297 42.2454 107.033C42.4611 106.781 42.619 106.485 42.7082 106.166C42.7974 105.847 42.8156 105.512 42.7617 105.185C42.6366 104.473 42.2687 103.827 41.7206 103.356C41.1724 102.886 40.4781 102.62 39.7558 102.604C39.4724 102.606 39.1914 102.654 38.9231 102.745C38.9231 102.878 38.9897 103.003 39.0147 103.128C39.2484 103.049 39.4924 103.004 39.7391 102.995C40.3674 103.01 40.9711 103.243 41.4476 103.652C41.9242 104.062 42.2443 104.624 42.3537 105.243C42.399 105.514 42.3844 105.791 42.3111 106.056C42.2377 106.321 42.1073 106.566 41.929 106.775C41.7429 106.988 41.5119 107.156 41.2527 107.268C40.9935 107.381 40.7125 107.434 40.4302 107.425C40.2971 107.433 40.1636 107.433 40.0305 107.425C40.0305 107.558 40.0888 107.691 40.1221 107.824C40.2246 107.833 40.3277 107.833 40.4302 107.824L40.4469 107.866Z" fill="white"/>
<path d="M44.6368 120.916C44.6858 121.182 44.6754 121.456 44.6062 121.719C44.5371 121.981 44.4109 122.224 44.2367 122.432C44.0624 122.639 43.8445 122.806 43.5985 122.92C43.3524 123.033 43.0843 123.091 42.8132 123.089C42.8132 123.222 42.8132 123.347 42.8549 123.48C43.1707 123.472 43.4815 123.399 43.7679 123.266C44.0544 123.133 44.3104 122.942 44.5202 122.706C44.7344 122.454 44.8908 122.157 44.9785 121.838C45.0663 121.519 45.0832 121.184 45.0281 120.858C44.91 120.173 44.565 119.547 44.0485 119.082C43.532 118.617 42.874 118.339 42.1804 118.293C42.1804 118.426 42.1804 118.559 42.2387 118.693C42.8257 118.752 43.3774 119.001 43.8101 119.403C44.2428 119.804 44.533 120.335 44.6368 120.916Z" fill="white"/>
<path d="M47.2989 136.513C47.1739 135.801 46.8059 135.155 46.2578 134.685C45.7097 134.214 45.0153 133.948 44.293 133.932C43.9336 133.928 43.578 134.005 43.2522 134.157C43.2522 134.306 43.2522 134.465 43.2522 134.623C43.5694 134.425 43.936 134.321 44.3097 134.323C44.9368 134.338 45.5395 134.569 46.0159 134.977C46.4923 135.385 46.8131 135.946 46.9242 136.563V136.655H47.3239C47.2989 136.605 47.3073 136.563 47.2989 136.513Z" fill="white"/>
<path d="M45.0766 84.3905C45.4191 84.3918 45.7576 84.3179 46.0684 84.1741C46.3792 84.0302 46.6546 83.8198 46.8752 83.5579C47.2623 83.0934 47.4508 82.4951 47.3997 81.8926H47.0001C47.0446 82.386 46.892 82.877 46.5754 83.2581C46.3868 83.4675 46.1553 83.6339 45.8967 83.746C45.6381 83.858 45.3584 83.9132 45.0766 83.9076C44.5612 83.8954 44.0599 83.737 43.631 83.4511C43.2021 83.1651 42.8631 82.7633 42.6536 82.2922L42.2539 82.3755C42.4753 82.9509 42.8609 83.4487 43.3627 83.8069C43.8645 84.1651 44.4605 84.3681 45.0766 84.3905Z" fill="white"/>
<path d="M46.6201 94.8131C46.2837 94.7995 45.9486 94.8613 45.6392 94.994C45.3299 95.1267 45.0541 95.3269 44.8322 95.58C44.6102 95.833 44.4477 96.1326 44.3566 96.4566C44.2654 96.7806 44.2479 97.121 44.3053 97.4526C44.4303 98.1642 44.7983 98.8104 45.3464 99.2811C45.8945 99.7518 46.5889 100.018 47.3112 100.034C47.6539 100.037 47.993 99.9638 48.3041 99.8198C48.6151 99.6758 48.8903 99.4645 49.1097 99.2012C49.3249 98.9491 49.4825 98.6531 49.5717 98.3339C49.6608 98.0147 49.6794 97.6798 49.626 97.3527C49.5009 96.6411 49.133 95.995 48.5849 95.5243C48.0368 95.0536 47.3424 94.7876 46.6201 94.7715V94.8131ZM49.2346 97.4443C49.2806 97.7165 49.2664 97.9955 49.1931 98.2616C49.1197 98.5277 48.989 98.7746 48.81 98.9847C48.6224 99.1954 48.3911 99.3627 48.1323 99.4749C47.8734 99.5871 47.5932 99.6414 47.3112 99.6342C46.6832 99.6223 46.0788 99.3923 45.6018 98.9837C45.1248 98.575 44.8048 98.0131 44.6966 97.3943C44.6512 97.1222 44.6657 96.8433 44.739 96.5773C44.8123 96.3113 44.9428 96.0644 45.1213 95.8539C45.3089 95.6432 45.5401 95.476 45.799 95.3638C46.0579 95.2516 46.3381 95.1972 46.6201 95.2045C47.2481 95.2164 47.8524 95.4463 48.3295 95.855C48.8065 96.2637 49.1265 96.8255 49.2346 97.4443Z" fill="white"/>
<path d="M49.5816 115.687C49.9206 115.692 50.2568 115.624 50.5672 115.488C50.8776 115.351 51.1549 115.149 51.3801 114.896C51.5965 114.643 51.7542 114.345 51.842 114.024C51.9299 113.703 51.9456 113.367 51.8881 113.039C51.7645 112.327 51.397 111.68 50.8486 111.209C50.3001 110.738 49.6049 110.472 48.8822 110.458C48.5434 110.449 48.2069 110.515 47.8962 110.65C47.5855 110.785 47.3082 110.987 47.0836 111.24C46.8673 111.493 46.7095 111.791 46.6217 112.112C46.5339 112.433 46.5182 112.769 46.5757 113.097C46.6993 113.81 47.0668 114.457 47.6152 114.928C48.1636 115.399 48.8588 115.664 49.5816 115.679V115.687ZM46.967 113.047C46.9176 112.776 46.9293 112.497 47.0013 112.23C47.0733 111.964 47.2038 111.717 47.3834 111.507C47.571 111.296 47.8022 111.129 48.0611 111.017C48.3199 110.905 48.6001 110.85 48.8822 110.857C49.5102 110.869 50.1145 111.099 50.5916 111.508C51.0686 111.917 51.3886 112.479 51.4967 113.097C51.5462 113.369 51.5345 113.648 51.4625 113.915C51.3904 114.181 51.2599 114.428 51.0804 114.638C50.8925 114.848 50.6611 115.015 50.4023 115.127C50.1436 115.239 49.8635 115.294 49.5816 115.287C48.9536 115.275 48.3492 115.045 47.8722 114.637C47.3952 114.228 47.0752 113.666 46.967 113.047Z" fill="white"/>
<path d="M51.8293 131.324C52.1656 131.337 52.5007 131.275 52.8101 131.143C53.1194 131.01 53.3952 130.81 53.6171 130.557C53.8391 130.304 54.0016 130.004 54.0928 129.68C54.1839 129.356 54.2015 129.016 54.144 128.684C54.0173 127.974 53.6486 127.33 53.1006 126.861C52.5527 126.392 51.8592 126.127 51.1381 126.111C50.8018 126.098 50.4667 126.159 50.1573 126.292C49.848 126.425 49.5722 126.625 49.3503 126.878C49.1283 127.131 48.9658 127.431 48.8746 127.755C48.7835 128.079 48.7659 128.419 48.8233 128.751C48.9486 129.461 49.3169 130.107 49.8652 130.576C50.4135 131.045 51.1077 131.31 51.8293 131.324ZM49.6394 127.16C49.8269 126.95 50.0582 126.782 50.3171 126.67C50.5759 126.558 50.8561 126.504 51.1381 126.511C51.7657 126.524 52.3692 126.755 52.8459 127.163C53.3227 127.572 53.6431 128.133 53.7527 128.751C53.7987 129.023 53.7845 129.302 53.7112 129.568C53.6378 129.834 53.507 130.081 53.328 130.291C53.1405 130.502 52.9092 130.669 52.6503 130.781C52.3915 130.893 52.1113 130.948 51.8293 130.941C51.2012 130.929 50.5969 130.699 50.1199 130.29C49.6428 129.881 49.3228 129.32 49.2147 128.701C49.1674 128.427 49.181 128.147 49.2544 127.879C49.3278 127.611 49.4592 127.363 49.6394 127.152V127.16Z" fill="white"/>
<path d="M58.6949 123.489C59.0312 123.503 59.3663 123.441 59.6757 123.308C59.9851 123.175 60.2608 122.975 60.4828 122.722C60.7047 122.469 60.8672 122.17 60.9584 121.846C61.0496 121.521 61.0671 121.181 61.0097 120.849C60.8846 120.138 60.5167 119.492 59.9686 119.021C59.4204 118.55 58.7261 118.284 58.0038 118.268C57.6643 118.26 57.3272 118.327 57.0164 118.463C56.7056 118.6 56.4286 118.804 56.2052 119.059C55.9901 119.311 55.8324 119.607 55.7433 119.927C55.6541 120.246 55.6356 120.581 55.689 120.908C55.814 121.619 56.182 122.266 56.7301 122.736C57.2782 123.207 57.9726 123.473 58.6949 123.489ZM56.505 119.326C56.6926 119.115 56.9238 118.948 57.1827 118.836C57.4415 118.723 57.7217 118.669 58.0038 118.676C58.6318 118.688 59.2361 118.918 59.7132 119.327C60.1902 119.735 60.5102 120.297 60.6183 120.916C60.6632 121.188 60.6493 121.466 60.5774 121.731C60.5056 121.997 60.3776 122.244 60.202 122.457C60.0124 122.667 59.7796 122.834 59.5195 122.946C59.2593 123.058 58.9781 123.113 58.6949 123.106C58.0673 123.093 57.4638 122.862 56.9871 122.454C56.5104 122.045 56.1899 121.484 56.0803 120.866C56.0331 120.593 56.0466 120.312 56.12 120.044C56.1934 119.777 56.3248 119.529 56.505 119.317V119.326Z" fill="white"/>
<path d="M63.2825 136.504C63.1575 135.792 62.7895 135.146 62.2414 134.675C61.6933 134.204 60.9989 133.938 60.2766 133.922C59.9374 133.916 59.6008 133.983 59.2903 134.12C58.9797 134.256 58.7026 134.459 58.4781 134.713C58.2639 134.966 58.1075 135.262 58.0197 135.581C57.932 135.901 57.9151 136.235 57.9701 136.562C57.9664 136.595 57.9664 136.629 57.9701 136.662H58.4031C58.4031 136.612 58.4031 136.562 58.4031 136.512C58.3577 136.24 58.3714 135.962 58.4432 135.696C58.5151 135.43 58.6434 135.183 58.8195 134.971C59.0081 134.762 59.2396 134.596 59.4982 134.484C59.7568 134.372 60.0365 134.316 60.3183 134.322C60.9458 134.335 61.5493 134.566 62.026 134.974C62.5028 135.383 62.8232 135.944 62.9328 136.562V136.662H63.3242C63.3146 136.608 63.3007 136.555 63.2825 136.504Z" fill="white"/>
<path d="M58.0408 81.7955C58.1658 82.5071 58.5338 83.1533 59.0819 83.624C59.63 84.0946 60.3244 84.3607 61.0467 84.3767C61.3853 84.3842 61.7214 84.3181 62.0319 84.183C62.3425 84.0478 62.62 83.8469 62.8452 83.594C63.2294 83.1283 63.4148 82.5301 63.3615 81.9287H62.9701C63.0031 82.1891 62.9824 82.4534 62.9093 82.7054C62.8363 82.9574 62.7125 83.1918 62.5455 83.3942C62.3569 83.6036 62.1254 83.77 61.8668 83.8821C61.6082 83.9941 61.3285 84.0492 61.0467 84.0437C60.4196 84.0287 59.8169 83.7976 59.3405 83.3894C58.8641 82.9813 58.5432 82.4212 58.4321 81.8038V81.7123H58.0325C58.0408 81.6956 58.0325 81.7456 58.0408 81.7955Z" fill="white"/>
<path d="M62.5956 94.7973C62.2564 94.7909 61.9198 94.8583 61.6093 94.9949C61.2987 95.1315 61.0216 95.334 60.7971 95.5883C60.5848 95.842 60.4296 96.1384 60.342 96.4573C60.2543 96.7762 60.2363 97.1103 60.2891 97.4368C60.4127 98.1491 60.7802 98.7962 61.3286 99.2671C61.8771 99.7381 62.5723 100.004 63.295 100.018C63.6336 100.026 63.9698 99.9594 64.2803 99.8243C64.5908 99.6891 64.8683 99.4882 65.0936 99.2354C65.3094 98.982 65.4674 98.6846 65.5566 98.3639C65.6457 98.0432 65.6639 97.707 65.6098 97.3785C65.4848 96.667 65.1168 96.0208 64.5687 95.5501C64.0206 95.0794 63.3262 94.8134 62.6039 94.7973H62.5956ZM65.2185 97.4368C65.2639 97.709 65.2494 97.9878 65.1761 98.2539C65.1028 98.5199 64.9723 98.7668 64.7938 98.9772C64.6063 99.188 64.375 99.3552 64.1161 99.4674C63.8573 99.5796 63.5771 99.6339 63.295 99.6267C62.667 99.6148 62.0627 99.3848 61.5856 98.9762C61.1086 98.5675 60.7886 98.0056 60.6805 97.3869C60.6351 97.1153 60.6487 96.8371 60.7206 96.5712C60.7924 96.3054 60.9208 96.0582 61.0968 95.8464C61.2855 95.637 61.5169 95.4707 61.7755 95.3586C62.0341 95.2465 62.3138 95.1914 62.5956 95.197C63.2246 95.2085 63.8301 95.4382 64.3085 95.8468C64.7869 96.2553 65.1086 96.8174 65.2185 97.4368Z" fill="white"/>
<path d="M64.8739 110.452C64.5345 110.444 64.1974 110.51 63.8865 110.647C63.5757 110.784 63.2988 110.987 63.0754 111.243C62.8597 111.495 62.7018 111.791 62.6126 112.11C62.5234 112.429 62.5052 112.764 62.5591 113.091C62.6842 113.803 63.0521 114.449 63.6002 114.92C64.1483 115.39 64.8427 115.657 65.565 115.673C65.9034 115.678 66.239 115.612 66.5493 115.477C66.8595 115.341 67.1372 115.141 67.3636 114.89C67.5765 114.635 67.7321 114.337 67.8197 114.017C67.9073 113.696 67.925 113.361 67.8715 113.033C67.7482 112.322 67.3819 111.676 66.8352 111.205C66.2885 110.735 65.5952 110.468 64.8739 110.452ZM67.0721 114.615C66.8825 114.823 66.6508 114.989 66.3924 115.101C66.1341 115.213 65.8549 115.269 65.5733 115.265C64.945 115.249 64.3414 115.017 63.8648 114.607C63.3883 114.197 63.0682 113.635 62.9588 113.016C62.9135 112.746 62.928 112.468 63.0014 112.203C63.0747 111.939 63.2051 111.693 63.3834 111.484C63.5696 111.272 63.8006 111.103 64.0598 110.991C64.319 110.879 64.5999 110.825 64.8822 110.835C65.5107 110.845 66.1159 111.075 66.5932 111.484C67.0706 111.892 67.3902 112.455 67.4968 113.075C67.543 113.35 67.529 113.631 67.4557 113.9C67.3823 114.169 67.2515 114.418 67.0721 114.632V114.615Z" fill="white"/>
<path d="M67.8257 131.311C68.1642 131.318 68.5004 131.252 68.8109 131.117C69.1214 130.982 69.3989 130.781 69.6242 130.528C69.84 130.275 69.9981 129.977 70.0872 129.657C70.1764 129.336 70.1945 129 70.1405 128.671C70.0154 127.96 69.6475 127.314 69.0994 126.843C68.5512 126.372 67.8569 126.106 67.1346 126.09C66.7962 126.084 66.4606 126.151 66.1503 126.286C65.84 126.421 65.5624 126.621 65.336 126.873C65.1231 127.128 64.9675 127.426 64.8799 127.746C64.7922 128.066 64.7746 128.402 64.8281 128.73C64.9529 129.44 65.3196 130.085 65.866 130.556C66.4124 131.026 67.1048 131.293 67.8257 131.311ZM65.6274 127.148C65.8147 126.937 66.0459 126.769 66.3048 126.657C66.5638 126.545 66.8441 126.49 67.1262 126.498C67.7538 126.512 68.3573 126.742 68.834 127.151C69.3107 127.559 69.6312 128.12 69.7408 128.738C69.7861 129.009 69.7716 129.286 69.6982 129.551C69.6248 129.816 69.4944 130.061 69.3161 130.27C69.13 130.483 68.899 130.651 68.6398 130.763C68.3806 130.876 68.0997 130.929 67.8173 130.92C67.1889 130.909 66.5837 130.68 66.1063 130.271C65.629 129.862 65.3094 129.299 65.2028 128.68C65.1574 128.408 65.1718 128.129 65.2452 127.863C65.3185 127.597 65.449 127.35 65.6274 127.139V127.148Z" fill="white"/>
<path d="M67.1593 89.6167C67.2844 90.3282 67.6523 90.9744 68.2004 91.4451C68.7485 91.9158 69.4429 92.1818 70.1652 92.1979C70.5047 92.206 70.8418 92.1394 71.1526 92.0027C71.4634 91.866 71.7403 91.6626 71.9638 91.4069C72.1799 91.1553 72.3382 90.8594 72.4274 90.54C72.5166 90.2206 72.5346 89.8855 72.48 89.5584C72.355 88.8468 71.987 88.2006 71.4389 87.7299C70.8908 87.2592 70.1964 86.9932 69.4741 86.9771C69.1355 86.9697 68.7994 87.0358 68.4889 87.1709C68.1783 87.306 67.9009 87.507 67.6756 87.7598C67.4597 88.0132 67.3017 88.3106 67.2126 88.6313C67.1234 88.952 67.1053 89.2882 67.1593 89.6167ZM69.4741 87.3768C70.1017 87.3903 70.7052 87.6208 71.1819 88.0292C71.6586 88.4376 71.9791 88.9986 72.0887 89.6167C72.134 89.8875 72.1194 90.1651 72.0461 90.4297C71.9727 90.6944 71.8423 90.9398 71.664 91.1487C71.4779 91.3613 71.2469 91.5298 70.9877 91.6421C70.7285 91.7544 70.4476 91.8077 70.1652 91.7982C69.5367 91.7879 68.9316 91.5585 68.4542 91.1495C67.9769 90.7406 67.6573 90.1778 67.5507 89.5584C67.5058 89.2868 67.5197 89.0087 67.5916 88.7429C67.6634 88.4772 67.7914 88.23 67.967 88.018C68.157 87.8085 68.3901 87.6428 68.6503 87.5321C68.9104 87.4214 69.1915 87.3684 69.4741 87.3768Z" fill="white"/>
<path d="M72.4221 107.831C72.7645 107.833 73.1031 107.759 73.4139 107.615C73.7247 107.471 74.0001 107.261 74.2206 106.999C74.4348 106.746 74.5912 106.45 74.679 106.13C74.7667 105.811 74.7836 105.477 74.7286 105.15C74.605 104.438 74.2375 103.791 73.6891 103.32C73.1406 102.849 72.4454 102.583 71.7227 102.569C71.3842 102.562 71.0482 102.628 70.7377 102.763C70.4273 102.899 70.1497 103.099 69.9241 103.352C69.7083 103.605 69.5503 103.902 69.4611 104.223C69.372 104.544 69.3538 104.88 69.4079 105.208C69.5245 105.929 69.8899 106.586 70.4405 107.065C70.9912 107.544 71.6923 107.815 72.4221 107.831ZM70.2322 103.668C70.4208 103.459 70.6523 103.292 70.9109 103.18C71.1695 103.068 71.4492 103.013 71.731 103.018C72.359 103.03 72.9633 103.26 73.4404 103.669C73.9174 104.078 74.2374 104.64 74.3455 105.258C74.3927 105.53 74.3798 105.809 74.3079 106.075C74.236 106.341 74.1067 106.588 73.9292 106.799C73.742 107.01 73.5108 107.177 73.2518 107.29C72.9929 107.402 72.7125 107.456 72.4304 107.448C71.8028 107.435 71.1993 107.204 70.7226 106.796C70.2459 106.387 69.9255 105.826 69.8159 105.208C69.7693 104.937 69.7824 104.658 69.8543 104.392C69.9262 104.126 70.0552 103.879 70.2322 103.668Z" fill="white"/>
<path d="M74.685 123.486C75.0244 123.494 75.3615 123.428 75.6723 123.291C75.9831 123.154 76.2601 122.951 76.4835 122.695C76.6987 122.443 76.8563 122.147 76.9455 121.828C77.0346 121.509 77.0531 121.174 76.9998 120.847C76.8747 120.135 76.5068 119.489 75.9587 119.018C75.4105 118.548 74.7162 118.282 73.9939 118.266C73.6575 118.252 73.3224 118.314 73.013 118.446C72.7037 118.579 72.4279 118.779 72.206 119.032C71.984 119.285 71.8215 119.585 71.7303 119.909C71.6392 120.233 71.6216 120.573 71.6791 120.905C71.8041 121.617 72.172 122.263 72.7202 122.733C73.2683 123.204 73.9627 123.47 74.685 123.486ZM72.4867 119.323C72.6763 119.113 72.9091 118.945 73.1692 118.833C73.4294 118.721 73.7107 118.667 73.9939 118.674C74.6214 118.687 75.225 118.918 75.7017 119.326C76.1784 119.734 76.4988 120.295 76.6084 120.913C76.6544 121.186 76.6402 121.465 76.5669 121.731C76.4935 121.997 76.3627 122.244 76.1838 122.454C75.9962 122.665 75.7649 122.832 75.5061 122.944C75.2472 123.056 74.967 123.11 74.685 123.103C74.0565 123.093 73.4513 122.864 72.974 122.455C72.4966 122.046 72.177 121.483 72.0704 120.863C72.023 120.589 72.0357 120.308 72.1076 120.039C72.1795 119.77 72.3088 119.52 72.4867 119.306V119.323Z" fill="white"/>
<path d="M76.2605 133.917C75.9218 133.908 75.5853 133.974 75.2746 134.109C74.9639 134.244 74.6865 134.446 74.4619 134.699C74.2461 134.953 74.0881 135.25 73.999 135.571C73.9098 135.892 73.8916 136.228 73.9457 136.556V136.665H74.3454C74.3454 136.606 74.3454 136.556 74.3037 136.498C74.2583 136.226 74.2728 135.947 74.3461 135.681C74.4195 135.415 74.5499 135.168 74.7284 134.958C74.916 134.747 75.1473 134.58 75.4061 134.467C75.665 134.355 75.9452 134.301 76.2272 134.308C76.686 134.319 77.1345 134.446 77.5317 134.676C77.9289 134.906 78.262 135.232 78.5004 135.624L78.5503 135.024C78.2681 134.689 77.9182 134.417 77.5236 134.226C77.129 134.035 76.6986 133.93 76.2605 133.917Z" fill="white"/>
<path d="M78.5916 95.1899C79.3011 95.211 79.9739 95.51 80.4651 96.0226C80.4651 95.8394 80.4651 95.6562 80.4651 95.4813C79.9365 95.0607 79.2837 94.8265 78.6082 94.8152C78.2695 94.8066 77.933 94.8722 77.6223 95.0074C77.3116 95.1426 77.0343 95.3442 76.8097 95.5979C76.5933 95.8508 76.4356 96.1484 76.3478 96.4694C76.26 96.7905 76.2443 97.1269 76.3018 97.4547C76.4253 98.167 76.7928 98.8141 77.3413 99.285C77.8897 99.756 78.5849 100.021 79.3077 100.036C79.7436 100.03 80.1707 99.9123 80.5483 99.6946V99.2283C80.191 99.4971 79.7549 99.6405 79.3077 99.6363C78.6796 99.6244 78.0753 99.3944 77.5983 98.9858C77.1212 98.5771 76.8012 98.0152 76.6931 97.3964C76.6442 97.1249 76.6562 96.8458 76.7282 96.5795C76.8002 96.3131 76.9304 96.066 77.1094 95.856C77.294 95.6449 77.522 95.476 77.7778 95.3611C78.0336 95.2461 78.3111 95.1877 78.5916 95.1899Z" fill="white"/>
<path d="M78.9253 113.02C78.8793 112.748 78.8935 112.469 78.9669 112.203C79.0403 111.937 79.171 111.69 79.35 111.48C79.5721 111.226 79.8604 111.038 80.1827 110.938V110.514C79.7242 110.62 79.3106 110.868 79.0003 111.221C78.7844 111.475 78.6264 111.772 78.5373 112.093C78.4481 112.414 78.43 112.75 78.484 113.078C78.5599 113.522 78.7319 113.943 78.988 114.312C79.244 114.682 79.5779 114.991 79.9662 115.218V114.752C79.6865 114.547 79.4504 114.288 79.2717 113.991C79.093 113.693 78.9753 113.363 78.9253 113.02Z" fill="white"/>
<path opacity="0.6" d="M119.881 98.7683C115.432 96.1289 111.866 92.2292 109.634 87.5625C107.403 82.8959 106.605 77.672 107.343 72.552C108.081 67.4321 110.321 62.6461 113.78 58.7997C117.239 54.9533 121.761 52.2194 126.775 50.9439C131.788 49.6685 137.067 49.9088 141.943 51.6345C146.82 53.3602 151.075 56.4936 154.17 60.6384C157.265 64.7832 159.061 69.7529 159.331 74.9188C159.601 80.0847 158.332 85.2144 155.686 89.659C152.14 95.6088 146.379 99.9093 139.667 101.617C132.955 103.325 125.839 102.3 119.881 98.7683Z" fill="#F82548"/>
<mask id="mask0_1524_24645" style="mask-type:luminance" maskUnits="userSpaceOnUse" x="107" y="50" width="53" height="53">
<path d="M119.888 98.7566C115.439 96.1172 111.873 92.2175 109.641 87.5508C107.409 82.8842 106.611 77.6603 107.35 72.5403C108.088 67.4203 110.328 62.6343 113.787 58.7879C117.246 54.9416 121.768 52.2077 126.781 50.9322C131.794 49.6568 137.073 49.8971 141.95 51.6228C146.826 53.3484 151.081 56.4819 154.177 60.6267C157.272 64.7715 159.068 69.7412 159.338 74.9071C159.607 80.0729 158.339 85.2027 155.692 89.6473C152.146 95.5971 146.386 99.8976 139.673 101.605C132.961 103.313 125.845 102.289 119.888 98.7566Z" fill="white"/>
</mask>
<g mask="url(#mask0_1524_24645)">
<path d="M113.694 55.4973L113.754 54.6483C114.503 54.1903 115.064 53.7003 115.436 53.1783L116 53.1005L115.66 57.9911L114.729 58.1196L114.963 54.7508C114.787 54.902 114.58 55.0467 114.34 55.1848C114.103 55.3226 113.888 55.4268 113.694 55.4973ZM117.172 56.2162C117.107 55.7414 117.121 55.249 117.215 54.7391C117.33 54.1167 117.523 53.6392 117.792 53.3065C118.061 52.9738 118.385 52.7814 118.763 52.7292C119.146 52.6765 119.478 52.7718 119.762 53.0151C120.047 53.2582 120.226 53.644 120.299 54.1725C120.366 54.6559 120.346 55.1796 120.24 55.7438C120.135 56.3055 119.951 56.7513 119.685 57.0813C119.42 57.4091 119.096 57.5994 118.713 57.6521C118.331 57.7048 117.996 57.6098 117.708 57.3671C117.423 57.124 117.244 56.7404 117.172 56.2162ZM118.107 56.2777C118.142 56.5312 118.207 56.7039 118.303 56.7958C118.399 56.8876 118.511 56.9247 118.64 56.9069C118.812 56.8832 118.953 56.7827 119.065 56.6053C119.214 56.368 119.314 55.9273 119.365 55.2832C119.406 54.7718 119.407 54.3711 119.367 54.081C119.334 53.8447 119.269 53.6808 119.171 53.5892C119.075 53.4952 118.962 53.4571 118.833 53.4748C118.67 53.4974 118.536 53.5958 118.431 53.7701C118.275 54.0236 118.169 54.4465 118.113 55.0388C118.065 55.5511 118.063 55.9641 118.107 56.2777ZM120.846 55.7094C120.78 55.2346 120.794 54.7423 120.888 54.2324C121.004 53.61 121.196 53.1325 121.466 52.7998C121.735 52.4671 122.059 52.2746 122.437 52.2225C122.819 52.1697 123.152 52.265 123.435 52.5084C123.721 52.7515 123.9 53.1373 123.973 53.6658C124.039 54.1491 124.02 54.6729 123.913 55.237C123.809 55.7987 123.624 56.2446 123.359 56.5745C123.093 56.9023 122.769 57.0926 122.387 57.1454C122.005 57.1981 121.67 57.1031 121.382 56.8603C121.097 56.6173 120.918 56.2336 120.846 55.7094ZM121.78 55.771C121.815 56.0245 121.881 56.1972 121.977 56.2891C122.072 56.3809 122.185 56.418 122.314 56.4002C122.486 56.3765 122.627 56.2759 122.738 56.0986C122.887 55.8613 122.988 55.4206 123.039 54.7764C123.08 54.265 123.08 53.8643 123.04 53.5743C123.008 53.338 122.943 53.174 122.845 53.0825C122.748 52.9885 122.636 52.9503 122.507 52.9681C122.344 52.9906 122.209 53.0891 122.104 53.2634C121.949 53.5169 121.843 53.9398 121.787 54.5321C121.739 55.0444 121.737 55.4573 121.78 55.771ZM124.715 53.9771L124.775 53.1281C125.524 52.6702 126.085 52.1801 126.457 51.6581L127.021 51.5803L126.681 56.471L125.75 56.5994L125.985 53.2306C125.809 53.3819 125.601 53.5266 125.362 53.6646C125.124 53.8024 124.909 53.9066 124.715 53.9771ZM128.193 54.696C128.128 54.2212 128.142 53.7288 128.236 53.2189C128.351 52.5966 128.544 52.119 128.813 51.7863C129.083 51.4536 129.406 51.2612 129.784 51.209C130.167 51.1563 130.5 51.2516 130.783 51.495C131.068 51.738 131.247 52.1238 131.32 52.6523C131.387 53.1357 131.367 53.6595 131.261 54.2236C131.157 54.7853 130.972 55.2311 130.707 55.5611C130.441 55.8889 130.117 56.0792 129.734 56.1319C129.352 56.1847 129.017 56.0897 128.73 55.8469C128.444 55.6038 128.266 55.2202 128.193 54.696ZM129.128 54.7575C129.163 55.0111 129.228 55.1837 129.324 55.2756C129.42 55.3675 129.532 55.4045 129.661 55.3867C129.833 55.363 129.975 55.2625 130.086 55.0851C130.235 54.8479 130.335 54.4071 130.386 53.763C130.427 53.2516 130.428 52.8509 130.388 52.5609C130.355 52.3245 130.29 52.1606 130.192 52.069C130.096 51.975 129.983 51.9369 129.854 51.9547C129.691 51.9772 129.557 52.0756 129.452 52.2499C129.296 52.5034 129.191 52.9263 129.134 53.5186C129.087 54.0309 129.085 54.4439 129.128 54.7575ZM131.867 54.1893C131.802 53.7145 131.816 53.2221 131.91 52.7122C132.025 52.0898 132.218 51.6123 132.487 51.2796C132.756 50.9469 133.08 50.7545 133.458 50.7023C133.841 50.6496 134.173 50.7449 134.457 50.9882C134.742 51.2313 134.921 51.6171 134.994 52.1456C135.061 52.629 135.041 53.1527 134.935 53.7169C134.831 54.2786 134.646 54.7244 134.38 55.0544C134.115 55.3822 133.791 55.5725 133.408 55.6252C133.026 55.678 132.691 55.5829 132.403 55.3402C132.118 55.0971 131.939 54.7135 131.867 54.1893ZM132.802 54.2508C132.837 54.5043 132.902 54.677 132.998 54.7689C133.094 54.8607 133.206 54.8978 133.335 54.88C133.507 54.8563 133.648 54.7558 133.76 54.5784C133.909 54.3411 134.009 53.9004 134.06 53.2563C134.101 52.7449 134.102 52.3442 134.062 52.0541C134.029 51.8178 133.964 51.6539 133.866 51.5623C133.77 51.4683 133.657 51.4302 133.528 51.448C133.365 51.4705 133.231 51.5689 133.126 51.7432C132.97 51.9967 132.864 52.4196 132.808 53.0119C132.76 53.5242 132.758 53.9372 132.802 54.2508ZM135.736 52.457L135.796 51.608C136.546 51.15 137.106 50.66 137.479 50.1379L138.043 50.0601L137.702 54.9508L136.771 55.0793L137.006 51.7104C136.83 51.8617 136.622 52.0064 136.383 52.1445C136.146 52.2823 135.93 52.3864 135.736 52.457Z" fill="white"/>
<path d="M115.437 68.1297L115.497 67.2807C116.246 66.8227 116.807 66.3327 117.179 65.8107L117.743 65.7329L117.403 70.6235L116.472 70.752L116.707 67.3832C116.531 67.5344 116.323 67.6791 116.084 67.8172C115.846 67.955 115.631 68.0592 115.437 68.1297ZM118.915 68.8486C118.85 68.3738 118.864 67.8814 118.958 67.3715C119.073 66.7491 119.266 66.2716 119.535 65.9389C119.805 65.6062 120.128 65.4138 120.507 65.3616C120.889 65.3089 121.222 65.4042 121.505 65.6475C121.79 65.8906 121.969 66.2764 122.042 66.8049C122.109 67.2883 122.089 67.812 121.983 68.3762C121.879 68.9379 121.694 69.3837 121.429 69.7137C121.163 70.0415 120.839 70.2318 120.457 70.2845C120.074 70.3372 119.739 70.2422 119.452 69.9995C119.166 69.7564 118.988 69.3728 118.915 68.8486ZM119.85 68.9101C119.885 69.1636 119.95 69.3363 120.046 69.4282C120.142 69.52 120.254 69.5571 120.383 69.5393C120.555 69.5156 120.697 69.4151 120.808 69.2377C120.957 69.0004 121.057 68.5597 121.108 67.9156C121.15 67.4042 121.15 67.0035 121.11 66.7134C121.077 66.4771 121.012 66.3132 120.914 66.2216C120.818 66.1276 120.705 66.0895 120.577 66.1072C120.413 66.1298 120.279 66.2282 120.174 66.4025C120.018 66.656 119.913 67.0789 119.856 67.6712C119.809 68.1835 119.807 68.5965 119.85 68.9101ZM122.589 68.3418C122.524 67.867 122.538 67.3747 122.632 66.8648C122.747 66.2424 122.94 65.7649 123.209 65.4322C123.478 65.0995 123.802 64.907 124.18 64.8549C124.563 64.8021 124.895 64.8974 125.179 65.1408C125.464 65.3839 125.643 65.7697 125.716 66.2982C125.783 66.7815 125.763 67.3053 125.657 67.8695C125.553 68.4311 125.368 68.877 125.102 69.2069C124.837 69.5348 124.513 69.725 124.13 69.7778C123.748 69.8305 123.413 69.7355 123.126 69.4927C122.84 69.2497 122.661 68.866 122.589 68.3418ZM123.524 68.4034C123.559 68.6569 123.624 68.8296 123.72 68.9215C123.816 69.0133 123.928 69.0504 124.057 69.0326C124.229 69.0089 124.371 68.9083 124.482 68.731C124.631 68.4937 124.731 68.053 124.782 67.4088C124.823 66.8975 124.824 66.4967 124.784 66.2067C124.751 65.9704 124.686 65.8064 124.588 65.7149C124.492 65.6209 124.379 65.5827 124.25 65.6005C124.087 65.623 123.953 65.7215 123.848 65.8958C123.692 66.1493 123.586 66.5722 123.53 67.1645C123.483 67.6768 123.48 68.0897 123.524 68.4034ZM126.263 67.8351C126.197 67.3603 126.212 66.868 126.305 66.3581C126.421 65.7357 126.613 65.2582 126.883 64.9254C127.152 64.5927 127.476 64.4003 127.854 64.3482C128.236 64.2954 128.569 64.3907 128.852 64.6341C129.138 64.8771 129.317 65.2629 129.39 65.7914C129.456 66.2748 129.437 66.7986 129.331 67.3627C129.226 67.9244 129.042 68.3703 128.776 68.7002C128.51 69.028 128.186 69.2183 127.804 69.2711C127.422 69.3238 127.087 69.2288 126.799 68.986C126.514 68.743 126.335 68.3593 126.263 67.8351ZM127.197 67.8967C127.232 68.1502 127.298 68.3229 127.394 68.4147C127.49 68.5066 127.602 68.5436 127.731 68.5259C127.903 68.5022 128.044 68.4016 128.156 68.2243C128.305 67.987 128.405 67.5463 128.456 66.9021C128.497 66.3907 128.498 65.99 128.458 65.7C128.425 65.4637 128.36 65.2997 128.262 65.2081C128.165 65.1141 128.053 65.076 127.924 65.0938C127.761 65.1163 127.627 65.2147 127.521 65.3891C127.366 65.6426 127.26 66.0655 127.204 66.6578C127.156 67.17 127.154 67.583 127.197 67.8967ZM130.422 64.1053L130.524 62.6553C131.804 61.8731 132.761 61.0361 133.398 60.1445L134.361 60.0116L133.78 68.3647L132.189 68.5841L132.59 62.8303C132.289 63.0887 131.934 63.3358 131.526 63.5716C131.121 63.807 130.753 63.9849 130.422 64.1053ZM135.86 63.3553L135.962 61.9052C137.242 61.123 138.199 60.2861 138.836 59.3944L139.799 59.2615L139.218 67.6147L137.627 67.8341L138.028 62.0802C137.727 62.3386 137.372 62.5857 136.964 62.8215C136.559 63.0569 136.191 63.2348 135.86 63.3553ZM141.298 62.6052L141.4 61.1551C142.68 60.3729 143.638 59.536 144.274 58.6443L145.237 58.5115L144.656 66.8646L143.065 67.084L143.466 61.3301C143.165 61.5885 142.811 61.8356 142.402 62.0715C141.997 62.3068 141.629 62.4847 141.298 62.6052ZM147.238 63.833C147.127 63.022 147.151 62.1811 147.311 61.3102C147.508 60.2472 147.837 59.4316 148.297 58.8634C148.757 58.2951 149.31 57.9665 149.956 57.8774C150.609 57.7873 151.178 57.9501 151.661 58.3657C152.148 58.7809 152.454 59.4398 152.579 60.3424C152.693 61.1681 152.659 62.0626 152.478 63.0262C152.3 63.9855 151.984 64.747 151.531 65.3105C151.077 65.8704 150.524 66.1954 149.871 66.2855C149.218 66.3756 148.645 66.2133 148.155 65.7987C147.667 65.3835 147.362 64.7283 147.238 63.833ZM148.835 63.9381C148.894 64.3711 149.006 64.6661 149.17 64.823C149.333 64.9799 149.525 65.0431 149.746 65.0128C150.039 64.9723 150.281 64.8006 150.471 64.4976C150.725 64.0924 150.896 63.3396 150.984 62.2395C151.054 61.366 151.055 60.6816 150.987 60.1862C150.931 59.7826 150.82 59.5026 150.652 59.3462C150.488 59.1856 150.296 59.1205 150.076 59.1509C149.797 59.1894 149.568 59.3575 149.388 59.6552C149.122 60.0882 148.942 60.8105 148.846 61.8221C148.764 62.6971 148.761 63.4024 148.835 63.9381ZM153.847 60.8743L153.95 59.4242C155.229 58.642 156.187 57.8051 156.823 56.9134L157.786 56.7805L157.205 65.1337L155.614 65.3531L156.016 59.5992C155.715 59.8576 155.36 60.1047 154.951 60.3405C154.546 60.5759 154.178 60.7538 153.847 60.8743Z" fill="white"/>
<path d="M116.438 78.0311C116.373 77.5563 116.387 77.0639 116.481 76.554C116.597 75.9316 116.789 75.4541 117.058 75.1214C117.328 74.7887 117.651 74.5963 118.03 74.5441C118.412 74.4914 118.745 74.5867 119.028 74.83C119.313 75.0731 119.492 75.4589 119.565 75.9874C119.632 76.4708 119.612 76.9945 119.506 77.5587C119.402 78.1204 119.217 78.5662 118.952 78.8962C118.686 79.224 118.362 79.4143 117.98 79.467C117.597 79.5198 117.262 79.4247 116.975 79.182C116.689 78.9389 116.511 78.5553 116.438 78.0311ZM117.373 78.0926C117.408 78.3461 117.473 78.5188 117.569 78.6107C117.665 78.7025 117.777 78.7396 117.906 78.7218C118.078 78.6981 118.22 78.5976 118.331 78.4202C118.48 78.1829 118.58 77.7422 118.631 77.0981C118.673 76.5867 118.673 76.186 118.633 75.8959C118.6 75.6596 118.535 75.4957 118.437 75.4041C118.341 75.3101 118.228 75.272 118.1 75.2898C117.936 75.3123 117.802 75.4107 117.697 75.585C117.541 75.8385 117.436 76.2614 117.379 76.8537C117.332 77.366 117.33 77.779 117.373 78.0926ZM120.112 77.5243C120.047 77.0495 120.061 76.5572 120.155 76.0473C120.27 75.4249 120.463 74.9474 120.732 74.6147C121.001 74.282 121.325 74.0895 121.703 74.0374C122.086 73.9846 122.419 74.0799 122.702 74.3233C122.987 74.5664 123.166 74.9522 123.239 75.4807C123.306 75.9641 123.286 76.4878 123.18 77.052C123.076 77.6136 122.891 78.0595 122.625 78.3894C122.36 78.7173 122.036 78.9075 121.653 78.9603C121.271 79.013 120.936 78.918 120.649 78.6753C120.363 78.4322 120.184 78.0485 120.112 77.5243ZM121.047 77.5859C121.082 77.8394 121.147 78.0121 121.243 78.104C121.339 78.1958 121.451 78.2329 121.58 78.2151C121.752 78.1914 121.894 78.0909 122.005 77.9135C122.154 77.6762 122.254 77.2355 122.305 76.5913C122.346 76.08 122.347 75.6792 122.307 75.3892C122.274 75.1529 122.209 74.9889 122.111 74.8974C122.015 74.8034 121.902 74.7652 121.773 74.783C121.61 74.8055 121.476 74.904 121.371 75.0783C121.215 75.3318 121.109 75.7547 121.053 76.347C121.006 76.8593 121.003 77.2722 121.047 77.5859ZM123.981 75.792L124.042 74.943C124.791 74.4851 125.351 73.9951 125.724 73.473L126.288 73.3952L125.948 78.2859L125.016 78.4143L125.251 75.0455C125.075 75.1968 124.867 75.3415 124.628 75.4796C124.391 75.6173 124.175 75.7215 123.981 75.792ZM127.46 76.5109C127.394 76.0361 127.408 75.5437 127.502 75.0338C127.618 74.4115 127.81 73.9339 128.08 73.6012C128.349 73.2685 128.673 73.0761 129.051 73.0239C129.433 72.9712 129.766 73.0665 130.049 73.3099C130.334 73.5529 130.514 73.9387 130.586 74.4672C130.653 74.9506 130.633 75.4744 130.527 76.0385C130.423 76.6002 130.238 77.046 129.973 77.376C129.707 77.7038 129.383 77.8941 129.001 77.9468C128.618 77.9996 128.283 77.9046 127.996 77.6618C127.711 77.4187 127.532 77.0351 127.46 76.5109ZM128.394 76.5725C128.429 76.826 128.495 76.9987 128.59 77.0905C128.686 77.1824 128.799 77.2194 128.928 77.2016C129.099 77.1779 129.241 77.0774 129.352 76.9001C129.501 76.6628 129.601 76.222 129.653 75.5779C129.694 75.0665 129.694 74.6658 129.654 74.3758C129.622 74.1394 129.556 73.9755 129.458 73.8839C129.362 73.7899 129.25 73.7518 129.121 73.7696C128.958 73.7921 128.823 73.8905 128.718 74.0648C128.563 74.3183 128.457 74.7413 128.401 75.3335C128.353 75.8458 128.351 76.2588 128.394 76.5725ZM131.618 72.7811L131.721 71.3311C133.001 70.5489 133.958 69.7119 134.594 68.8203L135.558 68.6874L134.977 77.0405L133.386 77.2599L133.787 71.5061C133.486 71.7644 133.131 72.0115 132.723 72.2474C132.318 72.4827 131.949 72.6606 131.618 72.7811ZM137.056 72.031L137.159 70.581C138.439 69.7988 139.396 68.9618 140.032 68.0702L140.996 67.9373L140.415 76.2904L138.824 76.5098L139.225 70.756C138.924 71.0144 138.569 71.2615 138.161 71.4973C137.756 71.7327 137.387 71.9106 137.056 72.031ZM142.997 73.2588C142.885 72.4479 142.91 71.607 143.07 70.7361C143.267 69.6731 143.596 68.8575 144.056 68.2892C144.516 67.721 145.069 67.3923 145.715 67.3032C146.368 67.2131 146.936 67.3759 147.42 67.7916C147.907 68.2067 148.213 68.8656 148.338 69.7683C148.451 70.5939 148.418 71.4885 148.237 72.452C148.059 73.4114 147.743 74.1728 147.29 74.7364C146.836 75.2963 146.283 75.6213 145.629 75.7114C144.976 75.8015 144.404 75.6392 143.913 75.2245C143.426 74.8094 143.121 74.1542 142.997 73.2588ZM144.593 73.364C144.653 73.797 144.765 74.0919 144.929 74.2488C145.092 74.4057 145.284 74.469 145.504 74.4386C145.798 74.3981 146.04 74.2264 146.23 73.9235C146.484 73.5182 146.655 72.7655 146.743 71.6653C146.813 70.7919 146.814 70.1075 146.746 69.6121C146.69 69.2085 146.578 68.9284 146.411 68.7721C146.247 68.6115 146.055 68.5464 145.834 68.5768C145.556 68.6152 145.326 68.7833 145.147 69.081C144.881 69.514 144.7 70.2363 144.604 71.2479C144.523 72.1229 144.519 72.8282 144.593 73.364ZM149.272 72.3934C149.16 71.5824 149.184 70.7415 149.344 69.8706C149.542 68.8076 149.871 67.992 150.331 67.4237C150.791 66.8555 151.344 66.5268 151.989 66.4378C152.643 66.3477 153.211 66.5105 153.695 66.9261C154.182 67.3413 154.488 68.0002 154.612 68.9028C154.726 69.7284 154.692 70.623 154.511 71.5865C154.333 72.5459 154.018 73.3074 153.564 73.8709C153.111 74.4308 152.557 74.7558 151.904 74.8459C151.251 74.936 150.679 74.7737 150.188 74.3591C149.701 73.9439 149.395 73.2887 149.272 72.3934ZM150.868 72.4985C150.928 72.9315 151.039 73.2264 151.203 73.3833C151.367 73.5402 151.559 73.6035 151.779 73.5731C152.073 73.5326 152.314 73.3609 152.504 73.058C152.759 72.6528 152.93 71.9 153.017 70.7998C153.088 69.9264 153.089 69.242 153.02 68.7466C152.965 68.343 152.853 68.063 152.686 67.9066C152.521 67.746 152.329 67.6809 152.109 67.7113C151.83 67.7498 151.601 67.9179 151.421 68.2156C151.156 68.6486 150.975 69.3709 150.879 70.3825C150.798 71.2574 150.794 71.9628 150.868 72.4985Z" fill="white"/>
<path d="M103.237 83.6789L103.298 82.8299C104.047 82.372 104.607 81.882 104.98 81.3599L105.544 81.2821L105.204 86.1728L104.272 86.3012L104.507 82.9324C104.331 83.0837 104.123 83.2284 103.884 83.3665C103.647 83.5042 103.431 83.6084 103.237 83.6789ZM106.716 84.3978C106.65 83.923 106.664 83.4306 106.758 82.9207C106.874 82.2984 107.066 81.8208 107.336 81.4881C107.605 81.1554 107.929 80.963 108.307 80.9108C108.689 80.8581 109.022 80.9534 109.305 81.1968C109.591 81.4398 109.77 81.8256 109.843 82.3541C109.909 82.8375 109.89 83.3613 109.783 83.9254C109.679 84.4871 109.494 84.9329 109.229 85.2629C108.963 85.5907 108.639 85.781 108.257 85.8337C107.874 85.8865 107.54 85.7915 107.252 85.5487C106.967 85.3056 106.788 84.922 106.716 84.3978ZM107.65 84.4594C107.685 84.7129 107.751 84.8856 107.847 84.9774C107.942 85.0693 108.055 85.1063 108.184 85.0885C108.356 85.0648 108.497 84.9643 108.608 84.787C108.757 84.5497 108.857 84.1089 108.909 83.4648C108.95 82.9534 108.95 82.5527 108.91 82.2627C108.878 82.0263 108.813 81.8624 108.715 81.7708C108.618 81.6768 108.506 81.6387 108.377 81.6565C108.214 81.679 108.079 81.7774 107.974 81.9517C107.819 82.2052 107.713 82.6281 107.657 83.2204C107.609 83.7327 107.607 84.1457 107.65 84.4594ZM110.389 83.8911C110.324 83.4163 110.338 82.9239 110.432 82.414C110.548 81.7916 110.74 81.3141 111.009 80.9814C111.279 80.6487 111.603 80.4563 111.981 80.4041C112.363 80.3514 112.696 80.4467 112.979 80.69C113.264 80.9331 113.443 81.3189 113.516 81.8474C113.583 82.3308 113.563 82.8545 113.457 83.4187C113.353 83.9804 113.168 84.4262 112.903 84.7562C112.637 85.084 112.313 85.2743 111.931 85.327C111.548 85.3798 111.213 85.2848 110.926 85.042C110.641 84.7989 110.462 84.4153 110.389 83.8911ZM111.324 83.9526C111.359 84.2061 111.424 84.3788 111.52 84.4707C111.616 84.5626 111.729 84.5996 111.857 84.5818C112.029 84.5581 112.171 84.4576 112.282 84.2802C112.431 84.0429 112.531 83.6022 112.583 82.9581C112.624 82.4467 112.624 82.046 112.584 81.7559C112.552 81.5196 112.486 81.3557 112.388 81.2641C112.292 81.1701 112.18 81.132 112.051 81.1498C111.887 81.1723 111.753 81.2707 111.648 81.445C111.493 81.6985 111.387 82.1214 111.33 82.7137C111.283 83.226 111.281 83.639 111.324 83.9526ZM114.259 82.1588L114.319 81.3098C115.068 80.8518 115.629 80.3618 116.001 79.8397L116.565 79.7619L116.225 84.6526L115.294 84.7811L115.528 81.4122C115.352 81.5635 115.145 81.7082 114.905 81.8463C114.668 81.9841 114.453 82.0882 114.259 82.1588ZM117.737 82.8776C117.672 82.4028 117.686 81.9105 117.78 81.4006C117.895 80.7782 118.088 80.3007 118.357 79.968C118.626 79.6353 118.95 79.4428 119.328 79.3907C119.711 79.3379 120.043 79.4332 120.327 79.6766C120.612 79.9197 120.791 80.3054 120.864 80.834C120.93 81.3173 120.911 81.8411 120.805 82.4052C120.7 82.9669 120.516 83.4128 120.25 83.7427C119.985 84.0705 119.661 84.2608 119.278 84.3136C118.896 84.3663 118.561 84.2713 118.273 84.0285C117.988 83.7855 117.809 83.4018 117.737 82.8776ZM118.672 82.9392C118.707 83.1927 118.772 83.3654 118.868 83.4572C118.964 83.5491 119.076 83.5862 119.205 83.5684C119.377 83.5447 119.518 83.4441 119.63 83.2668C119.779 83.0295 119.879 82.5888 119.93 81.9446C119.971 81.4332 119.972 81.0325 119.932 80.7425C119.899 80.5062 119.834 80.3422 119.736 80.2507C119.64 80.1567 119.527 80.1185 119.398 80.1363C119.235 80.1588 119.101 80.2573 118.996 80.4316C118.84 80.6851 118.734 81.108 118.678 81.7003C118.63 82.2126 118.628 82.6255 118.672 82.9392ZM121.411 82.3709C121.345 81.8961 121.359 81.4038 121.453 80.8938C121.569 80.2715 121.761 79.7939 122.031 79.4612C122.3 79.1285 122.624 78.9361 123.002 78.884C123.384 78.8312 123.717 78.9265 124 79.1699C124.286 79.4129 124.465 79.7987 124.538 80.3272C124.604 80.8106 124.585 81.3344 124.478 81.8985C124.374 82.4602 124.189 82.906 123.924 83.236C123.658 83.5638 123.334 83.7541 122.952 83.8068C122.57 83.8596 122.235 83.7646 121.947 83.5218C121.662 83.2787 121.483 82.8951 121.411 82.3709ZM122.345 82.4325C122.38 82.686 122.446 82.8587 122.542 82.9505C122.637 83.0424 122.75 83.0794 122.879 83.0617C123.051 83.0379 123.192 82.9374 123.303 82.7601C123.452 82.5228 123.553 82.0821 123.604 81.4379C123.645 80.9265 123.645 80.5258 123.605 80.2358C123.573 79.9994 123.508 79.8355 123.41 79.7439C123.313 79.6499 123.201 79.6118 123.072 79.6296C122.909 79.6521 122.774 79.7505 122.669 79.9248C122.514 80.1784 122.408 80.6013 122.352 81.1935C122.304 81.7058 122.302 82.1188 122.345 82.4325ZM125.28 80.6386L125.34 79.7896C126.089 79.3316 126.65 78.8416 127.022 78.3196L127.586 78.2418L127.246 83.1324L126.315 83.2609L126.55 79.8921C126.374 80.0433 126.166 80.188 125.926 80.3261C125.689 80.4639 125.474 80.5681 125.28 80.6386Z" fill="white"/>
<path d="M104.981 96.3113L105.041 95.4624C105.79 95.0044 106.351 94.5144 106.723 93.9923L107.287 93.9145L106.947 98.8052L106.016 98.9336L106.251 95.5648C106.075 95.7161 105.867 95.8608 105.628 95.9989C105.39 96.1367 105.175 96.2408 104.981 96.3113ZM108.459 97.0302C108.394 96.5554 108.408 96.0631 108.502 95.5531C108.617 94.9308 108.81 94.4532 109.079 94.1205C109.349 93.7878 109.672 93.5954 110.05 93.5432C110.433 93.4905 110.766 93.5858 111.049 93.8292C111.334 94.0722 111.513 94.458 111.586 94.9865C111.653 95.4699 111.633 95.9937 111.527 96.5578C111.423 97.1195 111.238 97.5653 110.973 97.8953C110.707 98.2231 110.383 98.4134 110 98.4661C109.618 98.5189 109.283 98.4239 108.996 98.1811C108.71 97.938 108.532 97.5544 108.459 97.0302ZM109.394 97.0918C109.429 97.3453 109.494 97.518 109.59 97.6098C109.686 97.7017 109.798 97.7387 109.927 97.7209C110.099 97.6972 110.241 97.5967 110.352 97.4194C110.501 97.1821 110.601 96.7414 110.652 96.0972C110.693 95.5858 110.694 95.1851 110.654 94.8951C110.621 94.6587 110.556 94.4948 110.458 94.4032C110.362 94.3092 110.249 94.2711 110.12 94.2889C109.957 94.3114 109.823 94.4098 109.718 94.5841C109.562 94.8377 109.457 95.2606 109.4 95.8528C109.353 96.3651 109.351 96.7781 109.394 97.0918ZM112.133 96.5235C112.068 96.0487 112.082 95.5563 112.176 95.0464C112.291 94.4241 112.484 93.9465 112.753 93.6138C113.022 93.2811 113.346 93.0887 113.724 93.0365C114.107 92.9838 114.439 93.0791 114.723 93.3224C115.008 93.5655 115.187 93.9513 115.26 94.4798C115.327 94.9632 115.307 95.487 115.201 96.0511C115.097 96.6128 114.912 97.0586 114.646 97.3886C114.381 97.7164 114.057 97.9067 113.674 97.9594C113.292 98.0122 112.957 97.9172 112.669 97.6744C112.384 97.4313 112.205 97.0477 112.133 96.5235ZM113.068 96.585C113.103 96.8386 113.168 97.0112 113.264 97.1031C113.36 97.195 113.472 97.232 113.601 97.2142C113.773 97.1905 113.914 97.09 114.026 96.9126C114.175 96.6753 114.275 96.2346 114.326 95.5905C114.367 95.0791 114.368 94.6784 114.328 94.3883C114.295 94.152 114.23 93.9881 114.132 93.8965C114.036 93.8025 113.923 93.7644 113.794 93.7822C113.631 93.8047 113.497 93.9031 113.392 94.0774C113.236 94.3309 113.13 94.7538 113.074 95.3461C113.026 95.8584 113.024 96.2714 113.068 96.585ZM115.807 96.0168C115.741 95.542 115.756 95.0496 115.849 94.5397C115.965 93.9173 116.157 93.4398 116.427 93.1071C116.696 92.7744 117.02 92.582 117.398 92.5298C117.78 92.4771 118.113 92.5724 118.396 92.8157C118.682 93.0588 118.861 93.4446 118.934 93.9731C119 94.4565 118.981 94.9802 118.874 95.5444C118.77 96.1061 118.585 96.5519 118.32 96.8819C118.054 97.2097 117.73 97.4 117.348 97.4527C116.966 97.5054 116.631 97.4104 116.343 97.1677C116.058 96.9246 115.879 96.541 115.807 96.0168ZM116.741 96.0783C116.776 96.3318 116.842 96.5045 116.938 96.5964C117.033 96.6882 117.146 96.7253 117.275 96.7075C117.447 96.6838 117.588 96.5833 117.699 96.4059C117.848 96.1686 117.949 95.7279 118 95.0838C118.041 94.5724 118.042 94.1717 118.002 93.8816C117.969 93.6453 117.904 93.4814 117.806 93.3898C117.709 93.2958 117.597 93.2577 117.468 93.2754C117.305 93.298 117.171 93.3964 117.065 93.5707C116.91 93.8242 116.804 94.2471 116.748 94.8394C116.7 95.3517 116.698 95.7647 116.741 96.0783ZM119.965 92.287L120.068 90.8369C121.348 90.0547 122.305 89.2178 122.941 88.3261L123.905 88.1933L123.324 96.5464L121.733 96.7658L122.134 91.0119C121.833 91.2703 121.478 91.5174 121.07 91.7533C120.665 91.9886 120.297 92.1665 119.965 92.287ZM125.404 91.5369L125.506 90.0869C126.786 89.3046 127.743 88.4677 128.379 87.576L129.343 87.4432L128.762 95.7963L127.171 96.0157L127.572 90.2618C127.271 90.5202 126.916 90.7673 126.508 91.0032C126.103 91.2385 125.735 91.4164 125.404 91.5369ZM130.842 90.7868L130.944 89.3368C132.224 88.5546 133.181 87.7176 133.818 86.826L134.781 86.6931L134.2 95.0462L132.609 95.2656L133.01 89.5118C132.709 89.7702 132.354 90.0173 131.946 90.2531C131.541 90.4885 131.173 90.6664 130.842 90.7868ZM136.782 92.0146C136.67 91.2037 136.695 90.3628 136.855 89.4919C137.052 88.4289 137.381 87.6133 137.841 87.045C138.301 86.4768 138.854 86.1481 139.5 86.059C140.153 85.9689 140.722 86.1317 141.205 86.5474C141.692 86.9625 141.998 87.6214 142.123 88.5241C142.237 89.3497 142.203 90.2443 142.022 91.2078C141.844 92.1672 141.528 92.9286 141.075 93.4922C140.621 94.0521 140.068 94.3771 139.415 94.4672C138.761 94.5573 138.189 94.395 137.698 93.9803C137.211 93.5652 136.906 92.9099 136.782 92.0146ZM138.379 92.1198C138.438 92.5528 138.55 92.8477 138.714 93.0046C138.877 93.1615 139.069 93.2248 139.29 93.1944C139.583 93.1539 139.825 92.9822 140.015 92.6793C140.269 92.274 140.44 91.5213 140.528 90.4211C140.598 89.5477 140.599 88.8632 140.531 88.3679C140.475 87.9642 140.364 87.6842 140.196 87.5278C140.032 87.3673 139.84 87.3022 139.62 87.3325C139.341 87.371 139.112 87.5391 138.932 87.8368C138.666 88.2698 138.486 88.9921 138.39 90.0037C138.308 90.8787 138.305 91.584 138.379 92.1198ZM143.391 89.0559L143.494 87.6059C144.773 86.8236 145.731 85.9867 146.367 85.095L147.33 84.9622L146.749 93.3153L145.158 93.5347L145.559 87.7808C145.259 88.0392 144.904 88.2863 144.495 88.5222C144.09 88.7575 143.722 88.9354 143.391 89.0559Z" fill="white"/>
<path d="M105.982 106.213C105.916 105.738 105.931 105.246 106.024 104.736C106.14 104.113 106.332 103.636 106.602 103.303C106.871 102.97 107.195 102.778 107.573 102.726C107.955 102.673 108.288 102.768 108.571 103.012C108.857 103.255 109.036 103.641 109.109 104.169C109.175 104.652 109.156 105.176 109.05 105.74C108.945 106.302 108.76 106.748 108.495 107.078C108.229 107.406 107.905 107.596 107.523 107.649C107.141 107.701 106.806 107.606 106.518 107.364C106.233 107.121 106.054 106.737 105.982 106.213ZM106.916 106.274C106.951 106.528 107.017 106.7 107.113 106.792C107.208 106.884 107.321 106.921 107.45 106.903C107.622 106.88 107.763 106.779 107.874 106.602C108.023 106.365 108.124 105.924 108.175 105.28C108.216 104.768 108.217 104.368 108.177 104.078C108.144 103.841 108.079 103.677 107.981 103.586C107.884 103.492 107.772 103.454 107.643 103.471C107.48 103.494 107.346 103.592 107.24 103.767C107.085 104.02 106.979 104.443 106.923 105.035C106.875 105.548 106.873 105.961 106.916 106.274ZM109.656 105.706C109.59 105.231 109.604 104.739 109.698 104.229C109.814 103.607 110.006 103.129 110.276 102.796C110.545 102.464 110.869 102.271 111.247 102.219C111.629 102.166 111.962 102.262 112.245 102.505C112.53 102.748 112.709 103.134 112.782 103.662C112.849 104.146 112.829 104.669 112.723 105.234C112.619 105.795 112.434 106.241 112.169 106.571C111.903 106.899 111.579 107.089 111.197 107.142C110.814 107.195 110.479 107.1 110.192 106.857C109.907 106.614 109.728 106.23 109.656 105.706ZM110.59 105.768C110.625 106.021 110.691 106.194 110.786 106.286C110.882 106.377 110.995 106.415 111.124 106.397C111.295 106.373 111.437 106.272 111.548 106.095C111.697 105.858 111.797 105.417 111.849 104.773C111.89 104.262 111.89 103.861 111.85 103.571C111.818 103.335 111.752 103.171 111.654 103.079C111.558 102.985 111.446 102.947 111.317 102.965C111.154 102.987 111.019 103.086 110.914 103.26C110.759 103.513 110.653 103.936 110.597 104.529C110.549 105.041 110.547 105.454 110.59 105.768ZM113.525 103.974L113.585 103.125C114.334 102.667 114.895 102.177 115.267 101.655L115.831 101.577L115.491 106.468L114.56 106.596L114.795 103.227C114.618 103.378 114.411 103.523 114.171 103.661C113.934 103.799 113.719 103.903 113.525 103.974ZM117.003 104.693C116.938 104.218 116.952 103.725 117.046 103.215C117.161 102.593 117.354 102.116 117.623 101.783C117.892 101.45 118.216 101.258 118.594 101.206C118.977 101.153 119.309 101.248 119.593 101.492C119.878 101.735 120.057 102.12 120.13 102.649C120.197 103.132 120.177 103.656 120.071 104.22C119.967 104.782 119.782 105.228 119.516 105.558C119.251 105.885 118.927 106.076 118.544 106.128C118.162 106.181 117.827 106.086 117.539 105.843C117.254 105.6 117.075 105.217 117.003 104.693ZM117.938 104.754C117.973 105.008 118.038 105.18 118.134 105.272C118.23 105.364 118.342 105.401 118.471 105.383C118.643 105.36 118.784 105.259 118.896 105.082C119.045 104.844 119.145 104.404 119.196 103.76C119.237 103.248 119.238 102.847 119.198 102.557C119.165 102.321 119.1 102.157 119.002 102.066C118.906 101.972 118.793 101.933 118.664 101.951C118.501 101.974 118.367 102.072 118.262 102.246C118.106 102.5 118 102.923 117.944 103.515C117.897 104.027 117.894 104.44 117.938 104.754ZM121.162 100.963L121.265 99.5127C122.544 98.7305 123.502 97.8936 124.138 97.0019L125.101 96.869L124.52 105.222L122.929 105.442L123.33 99.6877C123.029 99.9461 122.675 100.193 122.266 100.429C121.861 100.664 121.493 100.842 121.162 100.963ZM126.6 100.213L126.703 98.7626C127.982 97.9804 128.94 97.1435 129.576 96.2518L130.539 96.119L129.958 104.472L128.367 104.691L128.768 98.9376C128.468 99.196 128.113 99.4431 127.704 99.679C127.299 99.9143 126.931 100.092 126.6 100.213ZM132.541 101.44C132.429 100.63 132.453 99.7886 132.613 98.9177C132.811 97.8547 133.139 97.0391 133.599 96.4709C134.06 95.9026 134.612 95.5739 135.258 95.4849C135.911 95.3948 136.48 95.5576 136.963 95.9732C137.451 96.3884 137.757 97.0473 137.881 97.9499C137.995 98.7755 137.961 99.6701 137.78 100.634C137.602 101.593 137.286 102.354 136.833 102.918C136.379 103.478 135.826 103.803 135.173 103.893C134.52 103.983 133.948 103.821 133.457 103.406C132.969 102.991 132.664 102.336 132.541 101.44ZM134.137 101.546C134.196 101.979 134.308 102.274 134.472 102.43C134.636 102.587 134.828 102.651 135.048 102.62C135.341 102.58 135.583 102.408 135.773 102.105C136.028 101.7 136.199 100.947 136.286 99.8469C136.356 98.9735 136.357 98.2891 136.289 97.7937C136.233 97.3901 136.122 97.1101 135.954 96.9537C135.79 96.7931 135.598 96.728 135.378 96.7584C135.099 96.7969 134.87 96.965 134.69 97.2627C134.425 97.6957 134.244 98.418 134.148 99.4296C134.067 100.305 134.063 101.01 134.137 101.546ZM138.815 100.575C138.703 99.7641 138.728 98.9231 138.888 98.0522C139.085 96.9893 139.414 96.1736 139.874 95.6054C140.334 95.0371 140.887 94.7085 141.533 94.6194C142.186 94.5293 142.754 94.6921 143.238 95.1077C143.725 95.5229 144.031 96.1818 144.156 97.0845C144.27 97.9101 144.236 98.8047 144.055 99.7682C143.877 100.728 143.561 101.489 143.108 102.053C142.654 102.612 142.101 102.937 141.448 103.028C140.794 103.118 140.222 102.955 139.731 102.541C139.244 102.126 138.939 101.47 138.815 100.575ZM140.411 100.68C140.471 101.113 140.583 101.408 140.747 101.565C140.91 101.722 141.102 101.785 141.322 101.755C141.616 101.714 141.858 101.543 142.048 101.24C142.302 100.834 142.473 100.082 142.561 98.9815C142.631 98.108 142.632 97.4236 142.564 96.9283C142.508 96.5246 142.397 96.2446 142.229 96.0882C142.065 95.9277 141.873 95.8626 141.653 95.8929C141.374 95.9314 141.144 96.0995 140.965 96.3972C140.699 96.8302 140.518 97.5525 140.422 98.5641C140.341 99.4391 140.338 100.144 140.411 100.68Z" fill="white"/>
</g>
<path d="M147.679 52.0377C142.874 49.1778 137.329 47.8071 131.745 48.0991C126.161 48.3911 120.789 50.3327 116.308 53.6782C111.828 57.0237 108.44 61.6228 106.574 66.8939C104.707 72.165 104.446 77.8711 105.823 83.2907C107.2 88.7102 110.153 93.5996 114.31 97.3405C118.466 101.081 123.638 103.506 129.172 104.306C134.706 105.107 140.354 104.249 145.4 101.84C150.446 99.4311 154.664 95.5796 157.522 90.7729C161.353 84.3311 162.469 76.6312 160.623 69.367C158.777 62.1027 154.121 55.8692 147.679 52.0377ZM120.61 97.5674C116.409 95.0708 113.043 91.3847 110.938 86.9751C108.832 82.5656 108.082 77.6307 108.781 72.7945C109.48 67.9584 111.598 63.4382 114.867 59.8057C118.135 56.1732 122.407 53.5916 127.143 52.3873C131.879 51.183 136.865 51.4101 141.472 53.0399C146.078 54.6697 150.098 57.6291 153.023 61.5436C155.948 65.4582 157.646 70.1521 157.903 75.0318C158.159 79.9115 156.963 84.7578 154.466 88.9577C151.11 94.5813 145.66 98.6427 139.311 100.249C132.963 101.856 126.236 100.876 120.61 97.5257V97.5674Z" fill="#263238"/>
<path d="M120.96 99.8847L119.661 99.1103L118.371 98.3359C118.371 98.3359 106.847 113.765 103.732 118.994C100.618 124.223 98.9612 128.928 101.159 130.235C103.358 131.542 106.688 127.837 109.802 122.608C112.917 117.379 120.96 99.8847 120.96 99.8847Z" fill="#263238"/>
<path d="M69.7504 87.4019C70.3263 87.4716 70.8646 87.7245 71.2858 88.1232C71.7071 88.522 71.9891 89.0456 72.0902 89.6168C72.1355 89.8877 72.121 90.1652 72.0476 90.4299C71.9743 90.6946 71.8438 90.94 71.6655 91.1489C71.4794 91.3614 71.2484 91.5299 70.9892 91.6422C70.73 91.7546 70.4491 91.8079 70.1668 91.7984C69.7841 91.7915 69.4072 91.7034 69.0612 91.5397C68.7153 91.376 68.4081 91.1406 68.1601 90.8491C68.1101 90.9907 68.0768 91.1322 68.0352 91.2738C68.5973 91.849 69.3626 92.1808 70.1668 92.198C70.5062 92.2062 70.8433 92.1395 71.1541 92.0028C71.4649 91.8661 71.7419 91.6627 71.9653 91.407C72.1814 91.1555 72.3397 90.8596 72.4289 90.5402C72.5181 90.2207 72.5361 89.8856 72.4816 89.5585C72.364 88.9396 72.0628 88.3703 71.6173 87.9248C71.1718 87.4793 70.6025 87.1782 69.9836 87.0605L69.7504 87.4019Z" fill="white"/>
<path d="M71.7227 102.62C71.3842 102.613 71.0482 102.679 70.7377 102.814C70.4273 102.949 70.1497 103.15 69.9241 103.402C69.7083 103.656 69.5503 103.953 69.4611 104.274C69.372 104.595 69.3538 104.931 69.4079 105.259C69.5329 105.971 69.9008 106.617 70.449 107.088C70.9971 107.558 71.6915 107.824 72.4138 107.841C72.7562 107.842 73.0948 107.768 73.4056 107.624C73.7163 107.48 73.9917 107.27 74.2123 107.008C74.4265 106.755 74.5829 106.459 74.6707 106.14C74.7584 105.82 74.7753 105.486 74.7202 105.159C74.5967 104.447 74.2292 103.8 73.6807 103.329C73.1323 102.858 72.4371 102.593 71.7143 102.578L71.7227 102.62ZM74.3372 105.251C74.3843 105.523 74.3715 105.801 74.2996 106.067C74.2276 106.333 74.0984 106.58 73.9209 106.791C73.7337 107.003 73.5024 107.17 73.2435 107.282C72.9846 107.395 72.7042 107.449 72.4221 107.441C71.7945 107.427 71.191 107.197 70.7143 106.788C70.2376 106.38 69.9171 105.819 69.8075 105.201C69.7621 104.929 69.7766 104.65 69.8499 104.384C69.9232 104.118 70.0537 103.871 70.2322 103.661C70.4208 103.451 70.6523 103.285 70.9109 103.173C71.1695 103.061 71.4492 103.006 71.731 103.011C72.359 103.023 72.9633 103.253 73.4404 103.662C73.9174 104.07 74.2374 104.632 74.3455 105.251H74.3372Z" fill="white"/>
<path d="M78.5872 94.7937C78.2485 94.7851 77.912 94.8507 77.6013 94.9859C77.2906 95.1211 77.0133 95.3227 76.7887 95.5764C76.5723 95.8293 76.4146 96.1269 76.3268 96.4479C76.239 96.769 76.2233 97.1054 76.2808 97.4332C76.4043 98.1455 76.7718 98.7926 77.3203 99.2635C77.8687 99.7345 78.5639 100 79.2867 100.014C79.6289 100.015 79.9671 99.9402 80.2777 99.7964C80.5883 99.6526 80.8639 99.4429 81.0852 99.1818C81.3016 98.9289 81.4593 98.6313 81.5471 98.3103C81.6349 97.9893 81.6507 97.6528 81.5931 97.325C81.4593 96.6219 81.0873 95.9864 80.5399 95.5254C79.9924 95.0643 79.3029 94.806 78.5872 94.7937ZM80.7855 98.957C80.5979 99.1677 80.3666 99.335 80.1078 99.4472C79.8489 99.5593 79.5687 99.6137 79.2867 99.6065C78.6586 99.5946 78.0543 99.3646 77.5773 98.9559C77.1002 98.5473 76.7802 97.9854 76.6721 97.3666C76.6232 97.0951 76.6352 96.816 76.7072 96.5496C76.7792 96.2833 76.9094 96.0362 77.0885 95.8262C77.2764 95.6159 77.5077 95.449 77.7665 95.3368C78.0253 95.2247 78.3053 95.1701 78.5872 95.1767C79.2153 95.1886 79.8196 95.4186 80.2966 95.8273C80.7737 96.2359 81.0937 96.7978 81.2018 97.4166C81.2526 97.6894 81.2415 97.9702 81.1695 98.2382C81.0974 98.5062 80.9662 98.7547 80.7855 98.9653V98.957Z" fill="white"/>
</svg>
