<svg width="146" height="36" viewBox="0 0 146 36" fill="none" xmlns="http://www.w3.org/2000/svg">
<g id="Frame" clip-path="url(#clip0_546_10569)">
<g id="Group">
<g id="Layer 1">
<g id="Group_2">
<g id="Group_3">
<path id="Vector" d="M47.6635 25.6239C46.1944 25.6239 44.8859 25.2883 43.7379 24.6172C42.59 23.946 41.69 23.0364 41.039 21.8873C40.3869 20.7381 40.0614 19.4379 40.0614 17.9856C40.0614 16.5332 40.3826 15.1726 41.025 14.0148C41.6674 12.8571 42.5491 11.9518 43.669 11.299C44.7888 10.6462 46.0747 10.3203 47.5255 10.3203C48.6087 10.3203 49.6004 10.5275 50.5004 10.9407C51.4004 11.354 52.2077 11.9744 52.9244 12.802C53.181 13.0966 53.2726 13.3998 53.1993 13.7116C53.126 14.0245 52.9244 14.2997 52.5935 14.5392C52.3359 14.7227 52.0514 14.7831 51.7399 14.7183C51.4273 14.6547 51.1428 14.4939 50.8862 14.236C49.9862 13.28 48.8663 12.802 47.5255 12.802C46.5889 12.802 45.7621 13.0178 45.0465 13.4505C44.3308 13.8821 43.7703 14.4842 43.3661 15.2568C42.9619 16.0283 42.7603 16.9389 42.7603 17.9867C42.7603 18.9793 42.9673 19.862 43.3801 20.6335C43.7929 21.405 44.3674 22.0168 45.1014 22.4667C45.8354 22.9177 46.6891 23.1422 47.6635 23.1422C48.3059 23.1422 48.8707 23.0645 49.3578 22.908C49.844 22.7526 50.2902 22.5088 50.6944 22.1775C50.9876 21.9391 51.2904 21.8053 51.603 21.7772C51.9145 21.7492 52.1904 21.8376 52.4297 22.0394C52.7423 22.2973 52.9158 22.5865 52.9536 22.908C52.9902 23.2296 52.8803 23.5198 52.6227 23.7766C51.3001 25.0088 49.6478 25.6239 47.6645 25.6239H47.6635Z" fill="#0000B8"/>
<path id="Vector_2" d="M62.5928 25.624C61.2519 25.624 60.0491 25.2884 58.9842 24.6173C57.9192 23.9461 57.0785 23.0365 56.4641 21.8874C55.8487 20.7382 55.5415 19.438 55.5415 17.9857C55.5415 16.5333 55.8767 15.2277 56.5471 14.07C57.2176 12.9122 58.1262 11.9972 59.2741 11.326C60.4209 10.6549 61.7122 10.3193 63.1447 10.3193C64.5771 10.3193 65.8619 10.6549 67.0012 11.326C68.1394 11.9972 69.0437 12.9111 69.7141 14.07C70.3846 15.2277 70.7198 16.5333 70.7198 17.9857H69.6452C69.6452 19.438 69.338 20.7382 68.7225 21.8874C68.1071 23.0365 67.2674 23.9461 66.2025 24.6173C65.1376 25.2884 63.9347 25.624 62.5939 25.624H62.5928ZM63.1436 23.1433C64.0802 23.1433 64.9156 22.9189 65.6507 22.4679C66.3847 22.0179 66.9635 21.4018 67.386 20.6206C67.8085 19.8394 68.0198 18.9622 68.0198 17.9878C68.0198 17.0135 67.8085 16.1082 67.386 15.327C66.9635 14.5458 66.3847 13.9297 65.6507 13.4797C64.9156 13.0298 64.0802 12.8043 63.1436 12.8043C62.2069 12.8043 61.3942 13.0298 60.6505 13.4797C59.9068 13.9308 59.3194 14.5458 58.8872 15.327C58.456 16.1082 58.2404 16.9952 58.2404 17.9878C58.2404 18.9805 58.456 19.8405 58.8872 20.6206C59.3183 21.4018 59.9068 22.0179 60.6505 22.4679C61.3942 22.9189 62.2252 23.1433 63.1436 23.1433ZM69.3143 25.542C68.9101 25.542 68.5749 25.4093 68.3086 25.1427C68.0424 24.8762 67.9087 24.5407 67.9087 24.136V19.9171L68.4326 16.9941L70.7187 17.9868V24.136C70.7187 24.5407 70.585 24.8762 70.3199 25.1427C70.0537 25.4093 69.7185 25.542 69.3143 25.542Z" fill="#0000B8"/>
<path id="Vector_3" d="M75.236 25.5419C74.8318 25.5419 74.4966 25.4092 74.2303 25.1427C73.9641 24.8761 73.8304 24.5406 73.8304 24.1359V11.8644C73.8304 11.4414 73.963 11.1015 74.2303 10.8447C74.4966 10.5879 74.8318 10.4584 75.236 10.4584C75.6402 10.4584 75.998 10.5879 76.2556 10.8447C76.5121 11.1026 76.6415 11.4425 76.6415 11.8644V24.1359C76.6415 24.5406 76.5132 24.8761 76.2556 25.1427C75.998 25.4092 75.6585 25.5419 75.236 25.5419ZM84.4365 25.5419C84.0323 25.5419 83.6971 25.4092 83.4308 25.1427C83.1646 24.8761 83.032 24.5406 83.032 24.1359V16.2495C83.032 15.0917 82.7475 14.2328 82.1784 13.6717C81.6093 13.1106 80.8656 12.8312 79.9472 12.8312C79.0289 12.8312 78.2022 13.1624 77.5781 13.8239C76.9541 14.4853 76.6415 15.3312 76.6415 16.3606H74.9061C74.9061 15.1662 75.1443 14.113 75.6229 13.2034C76.1004 12.2938 76.7611 11.5817 77.6062 11.0659C78.4512 10.5512 79.4148 10.2944 80.498 10.2944C81.5813 10.2944 82.4716 10.5243 83.2799 10.9839C84.0873 11.4436 84.7167 12.119 85.1673 13.0103C85.6167 13.9016 85.842 14.9816 85.842 16.2506V24.137C85.842 24.5416 85.7137 24.8772 85.4561 25.1437C85.1985 25.4102 84.859 25.543 84.4365 25.543V25.5419ZM93.609 25.5419C93.2048 25.5419 92.8696 25.4092 92.6033 25.1427C92.3371 24.8761 92.2035 24.5406 92.2035 24.1359V16.2495C92.2035 15.0917 91.9189 14.2328 91.3498 13.6717C90.7807 13.1106 90.037 12.8312 89.1187 12.8312C88.2003 12.8312 87.379 13.1624 86.7636 13.8239C86.1481 14.4853 85.8409 15.3312 85.8409 16.3606H83.5548C83.5548 15.1662 83.8113 14.113 84.3265 13.2034C84.8407 12.2938 85.5618 11.5817 86.4887 11.0659C87.4157 10.5512 88.4763 10.2944 89.6705 10.2944C90.7171 10.2944 91.6441 10.5243 92.4524 10.9839C93.2608 11.4436 93.8892 12.119 94.3398 13.0103C94.7892 13.9016 95.0145 14.9816 95.0145 16.2506V24.137C95.0145 24.5416 94.8862 24.8772 94.6286 25.1437C94.371 25.4102 94.0315 25.543 93.609 25.543V25.5419Z" fill="#0000B8"/>
<path id="Vector_4" d="M99.9995 31.9663C99.5953 31.9663 99.2601 31.8325 98.9939 31.567C98.7276 31.3005 98.594 30.965 98.594 30.5603V17.9867C98.6123 16.5343 98.9518 15.2287 99.6136 14.0709C100.274 12.9132 101.174 11.9982 102.313 11.327C103.451 10.6559 104.737 10.3203 106.169 10.3203C107.602 10.3203 108.914 10.6559 110.053 11.327C111.191 11.9982 112.095 12.9121 112.766 14.0709C113.436 15.2287 113.771 16.5343 113.771 17.9867C113.771 19.439 113.463 20.7392 112.849 21.8883C112.233 23.0375 111.393 23.9471 110.329 24.6182C109.264 25.2894 108.061 25.625 106.72 25.625C105.636 25.625 104.641 25.4005 103.731 24.9495C102.822 24.4995 102.046 23.8877 101.404 23.1163V30.5614C101.404 30.966 101.276 31.3016 101.018 31.5681C100.76 31.8346 100.421 31.9674 99.9984 31.9674L99.9995 31.9663ZM106.169 23.1432C107.106 23.1432 107.941 22.9188 108.676 22.4678C109.41 22.0178 109.993 21.4017 110.426 20.6205C110.857 19.8393 111.073 18.9621 111.073 17.9877C111.073 17.0134 110.858 16.1081 110.426 15.3269C109.994 14.5457 109.411 13.9296 108.676 13.4796C107.942 13.0297 107.106 12.8042 106.169 12.8042C105.232 12.8042 104.42 13.0297 103.676 13.4796C102.932 13.9307 102.349 14.5457 101.927 15.3269C101.504 16.1081 101.293 16.9951 101.293 17.9877C101.293 18.9804 101.504 19.8404 101.927 20.6205C102.349 21.4017 102.932 22.0178 103.676 22.4678C104.42 22.9188 105.251 23.1432 106.169 23.1432Z" fill="#0000B8"/>
<path id="Vector_5" d="M123.22 25.6519C121.953 25.6519 120.818 25.381 119.818 24.8383C118.817 24.2966 118.028 23.5014 117.449 22.4537C116.87 21.406 116.581 20.1187 116.581 18.593V11.8093C116.581 11.4057 116.714 11.0691 116.98 10.8026C117.246 10.536 117.581 10.4033 117.985 10.4033C118.39 10.4033 118.724 10.5371 118.991 10.8026C119.257 11.0691 119.391 11.4046 119.391 11.8093V18.593C119.391 19.6224 119.584 20.4726 119.97 21.1438C120.356 21.8149 120.878 22.3112 121.54 22.6328C122.201 22.9543 122.945 23.1151 123.771 23.1151C124.598 23.1151 125.263 22.9586 125.879 22.6468C126.494 22.3339 126.984 21.912 127.352 21.3779C127.718 20.8449 127.903 20.2471 127.903 19.5857H129.638C129.638 20.7262 129.358 21.7556 128.798 22.6749C128.238 23.5942 127.477 24.3204 126.512 24.8534C125.548 25.3864 124.45 25.6529 123.221 25.6529L123.22 25.6519ZM129.307 25.5137C128.903 25.5137 128.568 25.3799 128.302 25.1145C128.035 24.848 127.903 24.5124 127.903 24.1078V11.8093C127.903 11.3863 128.035 11.0464 128.302 10.7896C128.568 10.5328 128.903 10.4033 129.307 10.4033C129.711 10.4033 130.069 10.5328 130.326 10.7896C130.583 11.0475 130.712 11.3874 130.712 11.8093V24.1078C130.712 24.5124 130.583 24.848 130.326 25.1145C130.068 25.381 129.729 25.5137 129.307 25.5137Z" fill="#0000B8"/>
<path id="Vector_6" d="M140.077 25.624C138.791 25.624 137.602 25.4265 136.51 25.0316C135.418 24.6367 134.568 24.136 133.962 23.5285C133.688 23.2351 133.572 22.8995 133.619 22.5218C133.664 22.1453 133.843 21.8377 134.155 21.5982C134.523 21.3047 134.885 21.1806 135.243 21.2259C135.601 21.2723 135.908 21.4331 136.166 21.7083C136.477 22.0579 136.978 22.3837 137.666 22.6869C138.355 22.9901 139.121 23.1423 139.966 23.1423C141.031 23.1423 141.844 22.9675 142.404 22.6179C142.964 22.2693 143.253 21.8183 143.272 21.2669C143.29 20.7156 143.028 20.2376 142.487 19.8329C141.945 19.4294 140.959 19.0981 139.526 18.8403C137.671 18.4723 136.326 17.9209 135.491 17.1861C134.656 16.4513 134.237 15.5504 134.237 14.4843C134.237 13.5466 134.512 12.7698 135.064 12.1536C135.615 11.5375 136.322 11.079 137.185 10.7747C138.049 10.4715 138.947 10.3193 139.884 10.3193C141.097 10.3193 142.17 10.5125 143.107 10.8988C144.044 11.285 144.787 11.8181 145.338 12.4979C145.595 12.7924 145.714 13.0999 145.696 13.4215C145.678 13.743 145.521 14.0139 145.228 14.2351C144.934 14.4379 144.586 14.5016 144.182 14.4282C143.777 14.3548 143.438 14.1897 143.162 13.9319C142.703 13.4905 142.207 13.1873 141.674 13.0222C141.142 12.8572 140.527 12.7741 139.829 12.7741C139.021 12.7741 138.337 12.9122 137.777 13.1873C137.216 13.4625 136.937 13.8682 136.937 14.4001C136.937 14.7314 137.025 15.0303 137.199 15.2968C137.374 15.5633 137.718 15.8029 138.232 16.0133C138.746 16.2247 139.499 16.4319 140.491 16.6337C141.868 16.9088 142.956 17.2584 143.756 17.6814C144.554 18.1044 145.128 18.5964 145.477 19.1564C145.825 19.7175 146.001 20.3649 146.001 21.1008C146.001 21.9467 145.776 22.7096 145.326 23.3894C144.876 24.0691 144.215 24.6119 143.343 25.0165C142.47 25.4211 141.382 25.6229 140.078 25.6229L140.077 25.624Z" fill="#0000B8"/>
</g>
<g id="Group_4">
<path id="Vector_7" d="M26.3803 29.5648C25.9611 33.3877 23.4346 36.3679 20.7141 35.9633C18.1014 35.5738 16.5062 32.2731 16.9502 28.6358V28.6293C16.9815 28.3855 17.0182 28.1416 17.0677 27.8977C17.7931 24.2421 20.353 21.8704 22.79 22.3732C23.8205 22.5858 24.7021 23.2904 25.3413 24.309C25.3532 24.3305 25.3661 24.3489 25.3779 24.3705C26.1982 25.7041 26.6024 27.5632 26.3803 29.5648Z" fill="#EF072F"/>
<path id="Vector_8" d="M14.6006 26.959C14.2578 27.3701 13.8202 27.7337 13.3017 28.0434C12.6421 28.435 11.8391 28.7318 10.9229 28.899C7.06424 29.6004 2.79488 27.7283 1.61032 24.7761C0.490437 21.988 2.62781 19.4437 6.21597 18.9365C6.30866 18.9214 6.40136 18.9085 6.49405 18.8999C7.02759 18.8416 7.56436 18.8286 8.09789 18.8632C11.1363 19.0455 14.0174 20.6295 15.078 22.8318C15.7873 24.3078 15.562 25.8055 14.5995 26.96L14.6006 26.959Z" fill="#F82548"/>
<path id="Vector_9" d="M9.59715 15.6412C8.8599 16.595 7.66565 16.8766 6.34636 16.5486C6.3248 16.5454 6.30001 16.5389 6.27846 16.5335C4.96456 16.2001 3.52994 15.27 2.29904 13.8187C-0.147678 10.941 -0.706003 7.29182 0.93556 5.68518C2.49952 4.15299 5.54444 5.02159 7.83918 7.60258C8.43739 8.27588 8.93751 9.01068 9.32553 9.76383C9.40314 9.91813 9.47643 10.0724 9.54757 10.2267C10.4756 12.2736 10.5748 14.3766 9.59715 15.6401V15.6412Z" fill="#FDEE00"/>
<path id="Vector_10" d="M17.5829 5.46075C17.5495 5.60318 17.5085 5.74453 17.46 5.88048C17.2811 6.4297 17.0095 6.93036 16.67 7.36843C15.6094 8.74525 13.8967 9.48113 12.2066 9.05708C11.9501 8.99234 11.7065 8.90602 11.479 8.79488C10.9272 8.53268 10.4583 8.14963 10.094 7.68027C9.1843 6.52573 8.8879 4.85758 9.44945 3.24555C10.2783 0.858782 12.6819 -0.468397 14.8225 0.152032C16.9297 0.767066 18.1628 3.08585 17.5829 5.46075Z" fill="#FFF45C"/>
<path id="Vector_11" d="M26.4364 12.7172C26.3254 12.7236 26.2079 12.7323 26.0936 12.7323C26.0689 12.7355 26.0473 12.7355 26.0225 12.7355C23.3979 12.7754 20.4112 11.2562 19.3129 9.24275C19.1189 8.88452 18.9949 8.536 18.9432 8.20798C18.9098 7.99218 18.9033 7.78177 18.9281 7.58108C19.0736 6.34022 20.3099 5.46838 22.2166 5.41983C24.7959 5.35832 27.7417 6.83117 28.9068 8.74856C30.1011 10.7156 29.0459 12.5067 26.4364 12.7172Z" fill="#00008F"/>
<path id="Vector_12" d="M33.3669 25.1396C32.5801 27.0603 30.0019 26.5909 27.5368 24.1113C27.3946 23.9721 27.2566 23.8276 27.1175 23.6733C26.8341 23.3614 26.5657 23.0366 26.3221 22.7032C24.3453 20.0694 23.5208 16.9748 24.4154 15.434C24.8993 14.5999 25.8037 14.3657 26.8837 14.6625C27.4883 14.8265 28.1512 15.1534 28.8238 15.6379C29.3422 16.008 29.8661 16.472 30.378 17.0147C32.787 19.5806 34.157 23.2028 33.3669 25.1396Z" fill="#0000B8"/>
<path id="Vector_13" d="M18.8915 19.3844C16.5504 18.9614 13.9528 16.8368 13.1573 14.7058C12.3834 12.6341 13.6326 11.3889 15.8907 11.868C18.1025 12.3374 20.5427 14.3076 21.3996 16.3297C22.2791 18.4046 21.184 19.8009 18.8915 19.3833V19.3844Z" fill="#0000B8"/>
<g id="Vector_14" style="mix-blend-mode:multiply" opacity="0.08">
<path d="M17.46 5.88055C17.2811 6.42976 17.0095 6.93042 16.6699 7.3685C15.6093 8.74531 13.8966 9.4812 12.2066 9.05715C11.95 8.99241 11.7065 8.90609 11.479 8.79495C10.9272 8.53275 10.4583 8.1497 10.094 7.68033C11.8056 6.49127 13.888 5.79639 16.1278 5.79639C16.5783 5.79639 17.0224 5.82444 17.46 5.87947V5.88055Z" fill="#EF072F"/>
</g>
<g id="Vector_15" style="mix-blend-mode:multiply" opacity="0.23">
<path d="M26.0936 12.7323C26.0688 12.7355 26.0472 12.7355 26.0224 12.7355C23.3979 12.7754 20.4111 11.2562 19.3128 9.24278C19.1188 8.88455 18.9949 8.53603 18.9431 8.20801C21.9104 8.66227 24.4736 10.3509 26.0936 12.7323Z" fill="#EF072F"/>
</g>
<g id="Vector_16" style="mix-blend-mode:multiply" opacity="0.23">
<path d="M29.1914 18.4142C29.1914 20.5107 28.5867 22.4659 27.5379 24.1113C27.3957 23.9721 27.2577 23.8276 27.1187 23.6733C26.8352 23.3614 26.5668 23.0366 26.3232 22.7032C24.3464 20.0694 23.5219 16.9748 24.4165 15.434C24.9004 14.5999 25.8048 14.3657 26.8848 14.6625C27.4894 14.8265 28.1523 15.1534 28.8249 15.6379C29.0652 16.5238 29.1924 17.4539 29.1924 18.4142H29.1914Z" fill="#EF072F"/>
</g>
<g id="Vector_17" style="mix-blend-mode:multiply" opacity="0.25">
<path d="M25.3779 24.3715C23.4593 26.9439 20.3993 28.611 16.9502 28.6358V28.6293C16.9815 28.3855 17.0181 28.1416 17.0677 27.8977C17.7931 24.2421 20.353 21.8704 22.79 22.3732C23.8204 22.5858 24.7021 23.2904 25.3412 24.309C25.3531 24.3305 25.366 24.3489 25.3779 24.3705V24.3715Z" fill="#0A55CC"/>
</g>
<g id="Vector_18" style="mix-blend-mode:multiply" opacity="0.23">
<path d="M9.59711 15.641C8.85986 16.5949 7.6656 16.8765 6.34631 16.5485C6.49721 13.9146 7.60524 11.5397 9.32656 9.76367C9.40417 9.91797 9.47746 10.0723 9.5486 10.2266C10.4766 12.2734 10.5758 14.3764 9.59818 15.6399L9.59711 15.641Z" fill="#EF072F"/>
</g>
<g id="Vector_19" style="mix-blend-mode:multiply" opacity="0.17">
<path d="M14.6006 26.9587C11.2258 25.597 8.71227 22.552 8.0979 18.8618C11.1364 19.0442 14.0174 20.6282 15.078 22.8304C15.7873 24.3065 15.562 25.8041 14.5995 26.9587H14.6006Z" fill="#0A55CC"/>
</g>
</g>
</g>
</g>
</g>
</g>
<defs>
<clipPath id="clip0_546_10569">
<rect width="146" height="36" fill="white"/>
</clipPath>
</defs>
</svg>
