<svg width="238" height="209" viewBox="0 0 238 209" fill="none" xmlns="http://www.w3.org/2000/svg">
<path d="M195.846 21.4824L203.031 26.1947L210.994 22.9446L208.727 31.2394L214.277 37.8061L205.69 38.2115L201.164 45.516L198.12 37.4804L189.772 35.4333L196.478 30.0497L195.846 21.4824Z" fill="#1FC16B"/>
<path d="M202.16 148.086L209.352 152.798L217.307 149.555L215.041 157.843L220.591 164.41L212.004 164.822L207.477 172.126L204.433 164.091L196.085 162.037L202.792 156.66L202.16 148.086Z" fill="#1FC16B"/>
<path d="M117.999 184.615L125.191 189.334L133.147 186.084L130.88 194.379L136.43 200.939L127.843 201.351L123.316 208.655L120.272 200.62L111.924 198.566L118.631 193.189L117.999 184.615Z" fill="#1FC16B"/>
<path d="M17.1499 165.508L24.3414 170.22L32.2972 166.977L30.0374 175.265L35.5805 181.831L27 182.244L22.4671 189.548L19.423 181.506L11.0751 179.459L17.7813 174.082L17.1499 165.508Z" fill="#1FC16B"/>
<path d="M3.46453 95.709L7.14667 98.1216L11.2209 96.46L10.0645 100.707L12.9091 104.07L8.50919 104.283L6.18958 108.025L4.62766 103.904L0.347351 102.854L3.78356 100.102L3.46453 95.709Z" fill="#1FC16B"/>
<path d="M228.208 88.752L231.89 91.1646L235.971 89.503L234.808 93.7501L237.653 97.1198L233.253 97.3259L230.933 101.068L229.371 96.9537L225.091 95.9035L228.527 93.1453L228.208 88.752Z" fill="#1FC16B"/>
<path d="M186.643 107.477L191.715 110.806L197.331 108.513L195.736 114.369L199.651 119.001L193.589 119.294L190.392 124.452L188.245 118.776L182.356 117.327L187.089 113.531L186.643 107.477Z" fill="#E0E0E0"/>
<path d="M178 182.824L181.682 185.237L185.763 183.575L184.6 187.822L187.444 191.192L183.045 191.398L180.725 195.14L179.163 191.026L174.889 189.976L178.326 187.218L178 182.824Z" fill="#1FC16B"/>
<path d="M152.804 171.006L155.157 172.548L157.756 171.484L157.018 174.196L158.833 176.343L156.021 176.476L154.546 178.869L153.549 176.237L150.817 175.565L153.01 173.811L152.804 171.006Z" fill="#E0E0E0"/>
<path d="M98.1575 168.197L100.51 169.739L103.109 168.676L102.371 171.388L104.186 173.534L101.381 173.667L99.8989 176.053L98.9019 173.428L96.1702 172.757L98.3636 170.995L98.1575 168.197Z" fill="#E0E0E0"/>
<path d="M26.0432 64.3123L25.4384 67.0573L27.3525 69.1111L24.5544 69.3836L23.1852 71.8361L22.0686 69.2573L19.3103 68.7189L21.4173 66.8579L21.0716 64.0664L23.4976 65.4954L26.0432 64.3123Z" fill="#1FC16B"/>
<path d="M165.013 9.08107L164.402 11.8261L166.316 13.8864L163.518 14.1523L162.155 16.6115L161.032 14.0327L158.274 13.4943L160.38 11.6333L160.042 8.8418L162.461 10.2708L165.013 9.08107Z" fill="#1FC16B"/>
<path d="M45.2165 121.527L48.8986 123.947L52.9795 122.278L51.8231 126.532L54.6611 129.895L50.2612 130.101L47.9415 133.85L46.3863 129.729L42.106 128.679L45.5422 125.921L45.2165 121.527Z" fill="#E0E0E0"/>
<path d="M72.3109 192.805L75.9931 195.217L80.074 193.556L78.9108 197.803L81.7555 201.166L77.3556 201.379L75.036 205.121L73.474 201L69.2004 199.95L72.6366 197.198L72.3109 192.805Z" fill="#1FC16B"/>
<path d="M70.3687 36.7637L74.0508 39.1763L78.1317 37.5147L76.9686 41.7618L79.8133 45.1249L75.4133 45.3376L73.0937 49.0795L71.5318 44.9587L67.2581 43.9086L70.6877 41.157L70.3687 36.7637Z" fill="#E0E0E0"/>
<path d="M135.4 16.4922L139.083 18.9115L143.163 17.2432L142 21.497L144.845 24.8601L140.445 25.0661L138.125 28.8147L136.564 24.6939L132.29 23.6438L135.726 20.8855L135.4 16.4922Z" fill="#E0E0E0"/>
<path d="M27.3275 15.584L34.5189 20.2963L42.4747 17.0462L40.2149 25.341L45.7581 31.9076L37.1709 32.3197L32.6446 39.6242L29.6006 31.582L21.2526 29.5349L27.9589 24.1512L27.3275 15.584Z" fill="#1FC16B"/>
<path d="M93.8844 0L97.9587 2.67187L102.465 0.830805L101.182 5.52984L104.326 9.2452L99.4608 9.47782L96.8953 13.6186L95.1738 9.06575L90.4482 7.90262L94.2433 4.85855L93.8844 0Z" fill="#1FC16B"/>
<path d="M118.664 196.556C169.912 196.556 211.456 155.011 211.456 103.764C211.456 52.5168 169.912 10.9727 118.664 10.9727C67.417 10.9727 25.8729 52.5168 25.8729 103.764C25.8729 155.011 67.417 196.556 118.664 196.556Z" fill="#1FC16B"/>
<path opacity="0.2" d="M196.087 121.96C206.18 79.1953 179.694 36.3448 136.929 26.2513C94.1642 16.1578 51.3138 42.6435 41.2203 85.4087C31.1268 128.174 57.6124 171.024 100.378 181.118C143.143 191.211 185.993 164.726 196.087 121.96Z" fill="#1FC16B"/>
<path d="M108.785 141.743C107.707 141.767 106.635 141.577 105.63 141.185C104.625 140.793 103.708 140.207 102.93 139.46L69.1507 106.383C67.5981 104.877 66.7073 102.816 66.6743 100.653C66.6414 98.4901 67.469 96.4027 68.9751 94.8501C70.4812 93.2974 72.5424 92.4066 74.7053 92.3736C76.8682 92.3407 78.9555 93.1684 80.5082 94.6744L108.199 121.78L156.088 68.3299C157.556 66.8499 159.537 65.99 161.621 65.9275C163.704 65.865 165.733 66.6046 167.287 67.9939C168.842 69.3831 169.804 71.316 169.975 73.3937C170.146 75.4715 169.513 77.5356 168.206 79.1604L114.639 138.933C113.9 139.76 112.999 140.425 111.992 140.889C110.985 141.352 109.893 141.603 108.785 141.626V141.743Z" fill="white"/>
</svg>
