<svg width="33" height="33" viewBox="0 0 33 33" fill="none" xmlns="http://www.w3.org/2000/svg">
<g id="behance">
<circle id="bg" cx="16.542" cy="16.6833" r="14" fill="#333333"/>
<g id="behance_2">
<path fill-rule="evenodd" clip-rule="evenodd" d="M7.41797 22.6428V10.4268H13.0652C14.8792 10.4268 16.3496 11.8972 16.3496 13.7111C16.3496 14.8638 15.9952 15.5778 14.6956 16.3103C16.2507 17.0189 16.6826 18.0009 16.6826 19.3708C16.6826 21.2239 15.0364 22.6428 13.1834 22.6428H7.41797ZM9.80765 12.4489V15.3864H12.6045C12.6045 15.3864 13.9639 15.3864 13.9639 13.9177C13.9639 12.4489 12.6045 12.4489 12.6045 12.4489H9.80765ZM9.80765 20.5739V17.402H12.8076C13.292 17.402 14.3076 17.652 14.3076 19.152C14.3076 20.2645 13.3076 20.5635 12.8076 20.5739H9.80765Z" fill="white"/>
<path fill-rule="evenodd" clip-rule="evenodd" d="M21.792 13.7927C20.0733 13.7927 17.5264 15.027 17.5264 18.3083C17.5264 20.3063 18.6201 22.8708 21.9014 22.8708C24.5264 22.8708 25.7347 20.9437 26.0108 19.9802H23.542C23.417 20.4177 22.9326 20.902 21.9014 20.902C20.4014 20.902 19.8701 19.6208 19.792 18.9802H26.0108V18.3083C26.0108 15.027 23.5108 13.7927 21.792 13.7927ZM21.792 15.6677C20.392 15.6677 19.8754 16.8239 19.792 17.402H23.542C23.542 16.8239 23.192 15.6677 21.792 15.6677Z" fill="white"/>
<path d="M18.8076 11.1208V12.6364H24.6983V11.1208H18.8076Z" fill="white"/>
</g>
</g>
</svg>
