<svg width="33" height="33" viewBox="0 0 33 33" fill="none" xmlns="http://www.w3.org/2000/svg">
<g id="dribbble">
<path id="dribbble_2" fill-rule="evenodd" clip-rule="evenodd" d="M30.0835 16.6833C30.0835 24.4153 23.8155 30.6833 16.0835 30.6833C8.35151 30.6833 2.0835 24.4153 2.0835 16.6833C2.0835 8.9513 8.35151 2.68329 16.0835 2.68329C23.8155 2.68329 30.0835 8.9513 30.0835 16.6833ZM21.0075 27.6298C19.5051 28.3066 17.8383 28.6833 16.0835 28.6833C13.1866 28.6833 10.5294 27.6568 8.4559 25.9476C10.6129 22.328 14.0823 19.5836 18.2065 18.3694C19.3911 21.3414 20.3329 24.4364 21.0075 27.6298ZM22.8322 26.6071C22.1676 23.6184 21.2765 20.7151 20.178 17.916C21.0925 17.763 22.0318 17.6833 22.9897 17.6833C24.7201 17.6833 26.3882 17.9429 27.958 18.4248C27.4642 21.8215 25.5476 24.757 22.8322 26.6071ZM28.0797 16.3766C26.4593 15.9247 24.752 15.6833 22.9897 15.6833C21.7613 15.6833 20.5602 15.8005 19.3971 16.0242C19.0937 15.3241 18.7772 14.631 18.4478 13.9453C21.0659 12.7832 23.4855 11.2551 25.6412 9.42619C27.1161 11.3657 28.0142 13.7678 28.0797 16.3766ZM24.3021 7.93942C22.2782 9.64911 20.0072 11.0748 17.5502 12.1554C16.2532 9.67515 14.7852 7.29862 13.1619 5.04145C14.0971 4.8075 15.0758 4.68329 16.0835 4.68329C19.2636 4.68329 22.1548 5.92031 24.3021 7.93942ZM11.186 5.7249C7.66324 7.30169 5.03957 10.5273 4.2966 14.4201C4.97928 14.4703 5.66896 14.4958 6.36477 14.4958C9.63268 14.4958 12.7686 13.9325 15.6809 12.8974C14.3581 10.3904 12.854 7.99376 11.186 5.7249ZM4.08655 16.41C4.08452 16.5009 4.0835 16.592 4.0835 16.6833C4.0835 19.6753 5.17853 22.4116 6.9897 24.5132C9.37553 20.7326 13.0655 17.8553 17.4288 16.5144C17.1594 15.9026 16.8795 15.2963 16.5895 14.696C13.4003 15.8604 9.95647 16.4958 6.36477 16.4958C5.59843 16.4958 4.83867 16.4669 4.08655 16.41Z" fill="#333333"/>
</g>
</svg>
