<svg width="40" height="40" viewBox="0 0 40 40" fill="none" xmlns="http://www.w3.org/2000/svg">
<rect x="0.5" y="0.5" width="39" height="39" rx="7.5" stroke="#E8E8E8"/>
<path d="M20.02 10.9102C16.71 10.9102 14.02 13.6002 14.02 16.9102V19.8002C14.02 20.4102 13.76 21.3402 13.45 21.8602L12.3 23.7702C11.59 24.9502 12.08 26.2602 13.38 26.7002C17.69 28.1402 22.34 28.1402 26.65 26.7002C27.86 26.3002 28.39 24.8702 27.73 23.7702L26.58 21.8602C26.28 21.3402 26.02 20.4102 26.02 19.8002V16.9102C26.02 13.6102 23.32 10.9102 20.02 10.9102Z" stroke="#333333" stroke-width="1.5" stroke-miterlimit="10" stroke-linecap="round"/>
<path d="M21.87 11.1999C21.56 11.1099 21.24 11.0399 20.91 10.9999C19.95 10.8799 19.03 10.9499 18.17 11.1999C18.46 10.4599 19.18 9.93994 20.02 9.93994C20.86 9.93994 21.58 10.4599 21.87 11.1999Z" stroke="#333333" stroke-width="1.5" stroke-miterlimit="10" stroke-linecap="round" stroke-linejoin="round"/>
<path d="M23.02 27.0601C23.02 28.7101 21.67 30.0601 20.02 30.0601C19.2 30.0601 18.44 29.7201 17.9 29.1801C17.36 28.6401 17.02 27.8801 17.02 27.0601" stroke="#333333" stroke-width="1.5" stroke-miterlimit="10"/>
</svg>
