<svg width="40" height="40" viewBox="0 0 40 40" fill="none" xmlns="http://www.w3.org/2000/svg">
<rect x="0.5" y="0.5" width="39" height="39" rx="7.5" stroke="#E8E8E8"/>
<path d="M26.47 24.83L26.86 27.99C26.96 28.82 26.07 29.4 25.36 28.97L21.17 26.48C20.71 26.48 20.26 26.45 19.82 26.39C20.56 25.52 21 24.42 21 23.23C21 20.39 18.54 18.09 15.5 18.09C14.34 18.09 13.27 18.42 12.38 19C12.35 18.75 12.34 18.5 12.34 18.24C12.34 13.69 16.29 10 21.17 10C26.05 10 30 13.69 30 18.24C30 20.94 28.61 23.33 26.47 24.83Z" stroke="#333333" stroke-width="1.5" stroke-linecap="round" stroke-linejoin="round"/>
<path d="M21 23.2298C21 24.4198 20.56 25.5198 19.82 26.3898C18.83 27.5898 17.26 28.3598 15.5 28.3598L12.89 29.9098C12.45 30.1798 11.89 29.8098 11.95 29.2998L12.2 27.3298C10.86 26.3998 10 24.9098 10 23.2298C10 21.4698 10.94 19.9198 12.38 18.9998C13.27 18.4198 14.34 18.0898 15.5 18.0898C18.54 18.0898 21 20.3898 21 23.2298Z" stroke="#333333" stroke-width="1.5" stroke-linecap="round" stroke-linejoin="round"/>
</svg>
