<svg width="32" height="33" viewBox="0 0 32 33" fill="none" xmlns="http://www.w3.org/2000/svg">
<g id="github">
<path id="Vector" d="M16 2.68329C8.265 2.68329 2 8.94829 2 16.6833C2 22.8783 6.0075 28.1108 11.5725 29.9658C12.2725 30.0883 12.535 29.6683 12.535 29.3008C12.535 28.9683 12.5175 27.8658 12.5175 26.6933C9 27.3408 8.09 25.8358 7.81 25.0483C7.6525 24.6458 6.97 23.4033 6.375 23.0708C5.885 22.8083 5.185 22.1608 6.3575 22.1433C7.46 22.1258 8.2475 23.1583 8.51 23.5783C9.77 25.6958 11.7825 25.1008 12.5875 24.7333C12.71 23.8233 13.0775 23.2108 13.48 22.8608C10.365 22.5108 7.11 21.3033 7.11 15.9483C7.11 14.4258 7.6525 13.1658 8.545 12.1858C8.405 11.8358 7.915 10.4008 8.685 8.47579C8.685 8.47579 9.8575 8.10829 12.535 9.91079C13.655 9.59579 14.845 9.43829 16.035 9.43829C17.225 9.43829 18.415 9.59579 19.535 9.91079C22.2125 8.09079 23.385 8.47579 23.385 8.47579C24.155 10.4008 23.665 11.8358 23.525 12.1858C24.4175 13.1658 24.96 14.4083 24.96 15.9483C24.96 21.3208 21.6875 22.5108 18.5725 22.8608C19.08 23.2983 19.5175 24.1383 19.5175 25.4508C19.5175 27.3233 19.5 28.8283 19.5 29.3008C19.5 29.6683 19.7625 30.1058 20.4625 29.9658C23.2418 29.0275 25.6568 27.2413 27.3677 24.8586C29.0786 22.4759 29.9993 19.6166 30 16.6833C30 8.94829 23.735 2.68329 16 2.68329Z" fill="#333333"/>
</g>
</svg>
