<svg width="33" height="33" viewBox="0 0 33 33" fill="none" xmlns="http://www.w3.org/2000/svg">
<g id="instagram">
<rect id="bg" x="2.91699" y="2.68329" width="28" height="28" rx="6" fill="#333333"/>
<rect id="bg_2" x="2.91699" y="2.68329" width="28" height="28" rx="6" fill="#333333"/>
<rect id="bg_3" x="2.91699" y="2.68329" width="28" height="28" rx="6" fill="#333333"/>
<g id="instagram_2">
<path d="M23.917 11.1833C23.917 12.0117 23.2454 12.6833 22.417 12.6833C21.5886 12.6833 20.917 12.0117 20.917 11.1833C20.917 10.3549 21.5886 9.68329 22.417 9.68329C23.2454 9.68329 23.917 10.3549 23.917 11.1833Z" fill="white"/>
<path fill-rule="evenodd" clip-rule="evenodd" d="M16.917 21.6833C19.6784 21.6833 21.917 19.4447 21.917 16.6833C21.917 13.9219 19.6784 11.6833 16.917 11.6833C14.1556 11.6833 11.917 13.9219 11.917 16.6833C11.917 19.4447 14.1556 21.6833 16.917 21.6833ZM16.917 19.6833C18.5738 19.6833 19.917 18.3401 19.917 16.6833C19.917 15.0264 18.5738 13.6833 16.917 13.6833C15.2601 13.6833 13.917 15.0264 13.917 16.6833C13.917 18.3401 15.2601 19.6833 16.917 19.6833Z" fill="white"/>
<path fill-rule="evenodd" clip-rule="evenodd" d="M6.91699 16.2833C6.91699 12.923 6.91699 11.2428 7.57095 9.95935C8.14619 8.83037 9.06408 7.91249 10.193 7.33725C11.4765 6.68329 13.1567 6.68329 16.517 6.68329H17.317C20.6773 6.68329 22.3575 6.68329 23.6409 7.33725C24.7699 7.91249 25.6878 8.83037 26.263 9.95935C26.917 11.2428 26.917 12.923 26.917 16.2833V17.0833C26.917 20.4436 26.917 22.1238 26.263 23.4072C25.6878 24.5362 24.7699 25.4541 23.6409 26.0293C22.3575 26.6833 20.6773 26.6833 17.317 26.6833H16.517C13.1567 26.6833 11.4765 26.6833 10.193 26.0293C9.06408 25.4541 8.14619 24.5362 7.57095 23.4072C6.91699 22.1238 6.91699 20.4436 6.91699 17.0833V16.2833ZM16.517 8.68329H17.317C19.0302 8.68329 20.1947 8.68484 21.0949 8.75839C21.9717 8.83003 22.4202 8.95988 22.733 9.11926C23.4856 9.50276 24.0975 10.1147 24.481 10.8673C24.6404 11.1801 24.7702 11.6285 24.8419 12.5054C24.9154 13.4055 24.917 14.5701 24.917 16.2833V17.0833C24.917 18.7964 24.9154 19.961 24.8419 20.8612C24.7702 21.738 24.6404 22.1865 24.481 22.4993C24.0975 23.2519 23.4856 23.8638 22.733 24.2473C22.4202 24.4067 21.9717 24.5365 21.0949 24.6082C20.1947 24.6817 19.0302 24.6833 17.317 24.6833H16.517C14.8038 24.6833 13.6392 24.6817 12.7391 24.6082C11.8622 24.5365 11.4138 24.4067 11.101 24.2473C10.3484 23.8638 9.73646 23.2519 9.35297 22.4993C9.19359 22.1865 9.06374 21.738 8.9921 20.8612C8.91855 19.961 8.91699 18.7964 8.91699 17.0833V16.2833C8.91699 14.5701 8.91855 13.4055 8.9921 12.5054C9.06374 11.6285 9.19359 11.1801 9.35297 10.8673C9.73646 10.1147 10.3484 9.50276 11.101 9.11926C11.4138 8.95988 11.8622 8.83003 12.7391 8.75839C13.6392 8.68484 14.8038 8.68329 16.517 8.68329Z" fill="white"/>
</g>
</g>
</svg>
