<svg width="33" height="33" viewBox="0 0 33 33" fill="none" xmlns="http://www.w3.org/2000/svg">
<g id="linkedin">
<rect id="bg" x="2.4585" y="2.68329" width="28" height="28" rx="14" fill="#333333"/>
<g id="linked_in">
<path d="M13.0771 10.3754C13.0771 11.31 12.267 12.0676 11.2678 12.0676C10.2685 12.0676 9.4585 11.31 9.4585 10.3754C9.4585 9.44089 10.2685 8.68329 11.2678 8.68329C12.267 8.68329 13.0771 9.44089 13.0771 10.3754Z" fill="white"/>
<path d="M9.70592 13.3114H12.7987V22.6833H9.70592V13.3114Z" fill="white"/>
<path d="M17.7781 13.3114H14.6853V22.6833H17.7781C17.7781 22.6833 17.7781 19.7329 17.7781 17.8881C17.7781 16.7809 18.1562 15.6688 19.6647 15.6688C21.3695 15.6688 21.3592 17.1178 21.3513 18.2404C21.3409 19.7077 21.3657 21.2051 21.3657 22.6833H24.4585V17.737C24.4323 14.5787 23.6093 13.1234 20.9018 13.1234C19.2939 13.1234 18.2972 13.8533 17.7781 14.5138V13.3114Z" fill="white"/>
</g>
</g>
</svg>
