<svg width="20" height="20" viewBox="0 0 20 20" fill="none" xmlns="http://www.w3.org/2000/svg">
<g id="vuesax/linear/messages-2">
<g id="messages-2">
<path id="Vector" d="M15.3917 14.0263L15.7167 16.6596C15.8 17.3513 15.0584 17.8346 14.4667 17.4763L10.975 15.4013C10.5917 15.4013 10.2167 15.3763 9.85004 15.3263C10.4667 14.6013 10.8334 13.6846 10.8334 12.693C10.8334 10.3263 8.78337 8.40966 6.25004 8.40966C5.28337 8.40966 4.39171 8.68463 3.65004 9.16797C3.62504 8.95963 3.6167 8.75129 3.6167 8.53463C3.6167 4.74296 6.90837 1.66797 10.975 1.66797C15.0417 1.66797 18.3334 4.74296 18.3334 8.53463C18.3334 10.7846 17.175 12.7763 15.3917 14.0263Z" stroke="white" stroke-width="1.5" stroke-linecap="round" stroke-linejoin="round"/>
<path id="Vector_2" d="M10.8334 12.6935C10.8334 13.6851 10.4668 14.6018 9.85009 15.3268C9.02509 16.3268 7.71675 16.9685 6.25008 16.9685L4.07508 18.2601C3.70841 18.4851 3.24175 18.1768 3.29175 17.7518L3.50008 16.1101C2.38341 15.3351 1.66675 14.0935 1.66675 12.6935C1.66675 11.2268 2.45009 9.93513 3.65009 9.16847C4.39175 8.68513 5.28341 8.41016 6.25008 8.41016C8.78341 8.41016 10.8334 10.3268 10.8334 12.6935Z" stroke="#E8E8E8" stroke-width="1.5" stroke-linecap="round" stroke-linejoin="round"/>
</g>
</g>
</svg>
