<svg width="54" height="54" viewBox="0 0 54 54" fill="none" xmlns="http://www.w3.org/2000/svg">
<g id="vuesax/linear/messages-2">
<g id="messages-2">
<path id="Vector" d="M41.5574 37.8675L42.4349 44.9775C42.6599 46.845 40.6574 48.1499 39.0599 47.1824L29.6324 41.58C28.5974 41.58 27.5849 41.5125 26.5949 41.3775C28.2599 39.42 29.2499 36.945 29.2499 34.2675C29.2499 27.8775 23.7149 22.7026 16.8749 22.7026C14.2649 22.7026 11.8574 23.445 9.85491 24.75C9.78741 24.1875 9.76489 23.625 9.76489 23.04C9.76489 12.8025 18.6524 4.5 29.6324 4.5C40.6124 4.5 49.4999 12.8025 49.4999 23.04C49.4999 29.115 46.3724 34.4925 41.5574 37.8675Z" stroke="#333333" stroke-width="3" stroke-linecap="round" stroke-linejoin="round"/>
<path id="Vector_2" d="M29.25 34.268C29.25 36.9455 28.26 39.4206 26.595 41.3781C24.3675 44.0781 20.835 45.8105 16.875 45.8105L11.0025 49.298C10.0125 49.9055 8.75249 49.073 8.88749 47.9255L9.44999 43.4931C6.43499 41.4006 4.5 38.048 4.5 34.268C4.5 30.308 6.61501 26.8206 9.85501 24.7506C11.8575 23.4456 14.265 22.7031 16.875 22.7031C23.715 22.7031 29.25 27.878 29.25 34.268Z" stroke="#333333" stroke-width="3" stroke-linecap="round" stroke-linejoin="round"/>
</g>
</g>
</svg>
