<svg width="20" height="21" viewBox="0 0 20 21" fill="none" xmlns="http://www.w3.org/2000/svg">
<path d="M4.16667 8.83203C3.25 8.83203 2.5 9.58203 2.5 10.4987C2.5 11.4154 3.25 12.1654 4.16667 12.1654C5.08333 12.1654 5.83333 11.4154 5.83333 10.4987C5.83333 9.58203 5.08333 8.83203 4.16667 8.83203Z" stroke="#A4A4A4" stroke-width="1.5"/>
<path d="M15.8334 8.83203C14.9167 8.83203 14.1667 9.58203 14.1667 10.4987C14.1667 11.4154 14.9167 12.1654 15.8334 12.1654C16.75 12.1654 17.5 11.4154 17.5 10.4987C17.5 9.58203 16.75 8.83203 15.8334 8.83203Z" stroke="#A4A4A4" stroke-width="1.5"/>
<path d="M9.99998 8.83203C9.08331 8.83203 8.33331 9.58203 8.33331 10.4987C8.33331 11.4154 9.08331 12.1654 9.99998 12.1654C10.9166 12.1654 11.6666 11.4154 11.6666 10.4987C11.6666 9.58203 10.9166 8.83203 9.99998 8.83203Z" stroke="#A4A4A4" stroke-width="1.5"/>
</svg>
