<svg width="16" height="16" viewBox="0 0 16 16" fill="none" xmlns="http://www.w3.org/2000/svg">
<g id="vuesax/linear/profile">
<g id="profile">
<path id="Vector" d="M8.10671 7.24536C8.04004 7.2387 7.96004 7.2387 7.88671 7.24536C6.30004 7.19203 5.04004 5.89203 5.04004 4.29203C5.04004 2.6587 6.36004 1.33203 8.00004 1.33203C9.63337 1.33203 10.96 2.6587 10.96 4.29203C10.9534 5.89203 9.69337 7.19203 8.10671 7.24536Z" stroke="#333333" stroke-width="1.5" stroke-linecap="round" stroke-linejoin="round"/>
<path id="Vector_2" d="M4.77348 9.70797C3.16014 10.788 3.16014 12.548 4.77348 13.6213C6.60681 14.848 9.61348 14.848 11.4468 13.6213C13.0601 12.5413 13.0601 10.7813 11.4468 9.70797C9.62014 8.48797 6.61348 8.48797 4.77348 9.70797Z" stroke="#333333" stroke-width="1.5" stroke-linecap="round" stroke-linejoin="round"/>
</g>
</g>
</svg>
