<svg width="30" height="31" viewBox="0 0 30 31" fill="none" xmlns="http://www.w3.org/2000/svg">
<g id="heroicons-outline-medium/squares-2x2">
<g id="Vector">
<path d="M4.6875 8C4.6875 6.4467 5.9467 5.1875 7.5 5.1875H10.3125C11.8658 5.1875 13.125 6.4467 13.125 8V10.8125C13.125 12.3658 11.8658 13.625 10.3125 13.625H7.5C5.9467 13.625 4.6875 12.3658 4.6875 10.8125V8Z" stroke="#212529" stroke-width="1.5" stroke-linecap="round" stroke-linejoin="round"/>
<path d="M4.6875 20.1875C4.6875 18.6342 5.9467 17.375 7.5 17.375H10.3125C11.8658 17.375 13.125 18.6342 13.125 20.1875V23C13.125 24.5533 11.8658 25.8125 10.3125 25.8125H7.5C5.9467 25.8125 4.6875 24.5533 4.6875 23V20.1875Z" stroke="#212529" stroke-width="1.5" stroke-linecap="round" stroke-linejoin="round"/>
<path d="M16.875 8C16.875 6.4467 18.1342 5.1875 19.6875 5.1875H22.5C24.0533 5.1875 25.3125 6.4467 25.3125 8V10.8125C25.3125 12.3658 24.0533 13.625 22.5 13.625H19.6875C18.1342 13.625 16.875 12.3658 16.875 10.8125V8Z" stroke="#212529" stroke-width="1.5" stroke-linecap="round" stroke-linejoin="round"/>
<path d="M16.875 20.1875C16.875 18.6342 18.1342 17.375 19.6875 17.375H22.5C24.0533 17.375 25.3125 18.6342 25.3125 20.1875V23C25.3125 24.5533 24.0533 25.8125 22.5 25.8125H19.6875C18.1342 25.8125 16.875 24.5533 16.875 23V20.1875Z" stroke="#212529" stroke-width="1.5" stroke-linecap="round" stroke-linejoin="round"/>
</g>
</g>
</svg>
