<svg width="32" height="32" viewBox="0 0 32 32" fill="none" xmlns="http://www.w3.org/2000/svg">
<g id="behance">
<circle id="bg" cx="16" cy="16" r="14" fill="#105DFB"/>
<g id="behance_2">
<path fill-rule="evenodd" clip-rule="evenodd" d="M6.87595 21.9597V9.74365H12.5232C14.3371 9.74365 15.8076 11.2141 15.8076 13.028C15.8076 14.1807 15.4532 14.8947 14.1536 15.6272C15.7087 16.3358 16.1406 17.3178 16.1406 18.6877C16.1406 20.5408 14.4944 21.9597 12.6413 21.9597H6.87595ZM9.26562 11.7658V14.7033H12.0625C12.0625 14.7033 13.4219 14.7033 13.4219 13.2346C13.4219 11.7658 12.0625 11.7658 12.0625 11.7658H9.26562ZM9.26562 19.8908V16.7189H12.2656C12.75 16.7189 13.7656 16.9689 13.7656 18.4689C13.7656 19.5814 12.7656 19.8804 12.2656 19.8908H9.26562Z" fill="white"/>
<path fill-rule="evenodd" clip-rule="evenodd" d="M21.25 13.1096C19.5312 13.1096 16.9844 14.3439 16.9844 17.6252C16.9844 19.6232 18.0781 22.1877 21.3594 22.1877C23.9844 22.1877 25.1927 20.2606 25.4688 19.2971H23C22.875 19.7346 22.3906 20.2189 21.3594 20.2189C19.8594 20.2189 19.3281 18.9377 19.25 18.2971H25.4688V17.6252C25.4688 14.3439 22.9688 13.1096 21.25 13.1096ZM21.25 14.9846C19.85 14.9846 19.3333 16.1408 19.25 16.7189H23C23 16.1408 22.65 14.9846 21.25 14.9846Z" fill="white"/>
<path d="M18.2656 10.4377V11.9533H24.1562V10.4377H18.2656Z" fill="white"/>
</g>
</g>
</svg>
