<svg width="33" height="33" viewBox="0 0 33 33" fill="none" xmlns="http://www.w3.org/2000/svg">
<path d="M26.1412 17.1024C26.1412 16.4433 26.0774 15.7629 25.9711 15.125H16.7644V18.8885H22.0375C21.8249 20.1004 21.1232 21.1636 20.0814 21.844L23.2282 24.2892C25.0781 22.5669 26.1412 20.0579 26.1412 17.1024Z" fill="#4280EF"/>
<path d="M16.766 26.628C19.4026 26.628 21.6139 25.7563 23.2298 24.2679L20.083 21.8439C19.2112 22.4393 18.0843 22.7795 16.766 22.7795C14.2145 22.7795 12.067 21.0572 11.2803 18.7609L8.04834 21.2486C9.70682 24.5443 13.0663 26.628 16.766 26.628Z" fill="#34A353"/>
<path d="M11.2794 18.7396C10.8755 17.5277 10.8755 16.2094 11.2794 14.9974L8.04754 12.4884C6.66547 15.2526 6.66547 18.5058 8.04754 21.2486L11.2794 18.7396Z" fill="#F6B704"/>
<path d="M16.766 10.9789C18.1481 10.9576 19.5089 11.4892 20.5082 12.446L23.2936 9.63931C21.5288 7.98083 19.1899 7.0878 16.766 7.10907C13.0663 7.10907 9.70682 9.1928 8.04834 12.4885L11.2803 14.9975C12.067 12.6799 14.2145 10.9789 16.766 10.9789Z" fill="#E54335"/>
</svg>
