<svg width="41" height="40" viewBox="0 0 41 40" fill="none" xmlns="http://www.w3.org/2000/svg">
<g id="linkedin">
<rect id="bg" x="2.75" y="2.5" width="35" height="35" rx="17.5" fill="#1275B1"/>
<g id="linked_in">
<path d="M16.0232 12.1152C16.0232 13.2834 15.0106 14.2304 13.7616 14.2304C12.5126 14.2304 11.5 13.2834 11.5 12.1152C11.5 10.947 12.5126 10 13.7616 10C15.0106 10 16.0232 10.947 16.0232 12.1152Z" fill="white"/>
<path d="M11.8093 15.7851H15.6753V27.5H11.8093V15.7851Z" fill="white"/>
<path d="M21.8995 15.7851H18.0335V27.5H21.8995C21.8995 27.5 21.8995 23.812 21.8995 21.5061C21.8995 20.122 22.3721 18.7319 24.2577 18.7319C26.3888 18.7319 26.3759 20.5432 26.366 21.9464C26.353 23.7806 26.384 25.6523 26.384 27.5H30.25V21.3171C30.2173 17.3692 29.1885 15.5501 25.8041 15.5501C23.7942 15.5501 22.5484 16.4626 21.8995 17.2881V15.7851Z" fill="white"/>
</g>
</g>
</svg>
