<svg width="41" height="41" viewBox="0 0 41 41" fill="none" xmlns="http://www.w3.org/2000/svg">
<rect x="2.75" y="3" width="35" height="35" rx="17.5" fill="#1275B1"/>
<path d="M16.0232 12.6152C16.0232 13.7834 15.0106 14.7304 13.7616 14.7304C12.5126 14.7304 11.5 13.7834 11.5 12.6152C11.5 11.447 12.5126 10.5 13.7616 10.5C15.0106 10.5 16.0232 11.447 16.0232 12.6152Z" fill="white"/>
<path d="M11.8093 16.2851H15.6753V28H11.8093V16.2851Z" fill="white"/>
<path d="M21.8995 16.2851H18.0335V28H21.8995C21.8995 28 21.8995 24.312 21.8995 22.0061C21.8995 20.622 22.3721 19.2319 24.2577 19.2319C26.3888 19.2319 26.3759 21.0432 26.366 22.4464C26.353 24.2806 26.384 26.1523 26.384 28H30.25V21.8171C30.2173 17.8692 29.1885 16.0501 25.8041 16.0501C23.7942 16.0501 22.5484 16.9626 21.8995 17.7881V16.2851Z" fill="white"/>
</svg>
