<svg width="33" height="32" viewBox="0 0 33 32" fill="none" xmlns="http://www.w3.org/2000/svg">
<g id="Tech Logos / Google">
<g id="Group">
<path id="Vector" d="M26.1412 16.6024C26.1412 15.9433 26.0774 15.2629 25.9711 14.625H16.7644V18.3885H22.0375C21.8249 19.6004 21.1232 20.6636 20.0814 21.344L23.2282 23.7892C25.0781 22.0669 26.1412 19.5579 26.1412 16.6024Z" fill="#4280EF"/>
<path id="Vector_2" d="M16.766 26.128C19.4026 26.128 21.6139 25.2562 23.2298 23.7679L20.083 21.3439C19.2112 21.9393 18.0843 22.2795 16.766 22.2795C14.2145 22.2795 12.067 20.5572 11.2803 18.2609L8.04834 20.7486C9.70682 24.0443 13.0663 26.128 16.766 26.128Z" fill="#34A353"/>
<path id="Vector_3" d="M11.2794 18.2397C10.8755 17.0277 10.8755 15.7094 11.2794 14.4974L8.04754 11.9885C6.66547 14.7526 6.66547 18.0058 8.04754 20.7486L11.2794 18.2397Z" fill="#F6B704"/>
<path id="Vector_4" d="M16.766 10.4789C18.1481 10.4576 19.5089 10.9892 20.5082 11.946L23.2936 9.13932C21.5288 7.48084 19.1899 6.58781 16.766 6.60907C13.0663 6.60907 9.70682 8.69281 8.04834 11.9885L11.2803 14.4975C12.067 12.1799 14.2145 10.4789 16.766 10.4789Z" fill="#E54335"/>
</g>
</g>
</svg>
