<svg width="18" height="14" viewBox="0 0 18 14" fill="none" xmlns="http://www.w3.org/2000/svg">
<g id="meet">
<path id="Vector" d="M0.75 12.6699C0.75 13.2666 1.23748 13.7499 1.83811 13.7499H1.85375C1.24393 13.7499 0.75 13.2666 0.75 12.6699Z" fill="#FBBC05"/>
<path id="Vector_2" d="M10.1006 4.29998V7.11967L13.9021 4.05338V1.32999C13.9021 0.733297 13.4146 0.25 12.814 0.25H4.57816L4.5708 4.29998H10.1006Z" fill="#FBBC05"/>
<path id="Vector_3" d="M10.1006 9.94078H4.56161L4.55518 13.7505H12.814C13.4155 13.7505 13.9021 13.2672 13.9021 12.6705V10.2117L10.1006 7.12109V9.94078Z" fill="#34A853"/>
<path id="Vector_4" d="M4.57816 0.25L0.75 4.29998H4.57172L4.57816 0.25Z" fill="#EA4335"/>
<path id="Vector_5" d="M0.75 9.94043V12.6701C0.75 13.2668 1.24393 13.7501 1.85375 13.7501H4.55517L4.56161 9.94043H0.75Z" fill="#1967D2"/>
<path id="Vector_6" d="M4.57172 4.2998H0.75V9.94008H4.56161L4.57172 4.2998Z" fill="#4285F4"/>
<path id="Vector_7" d="M17.2444 11.7097V2.43977C17.0301 1.20948 15.6808 2.61977 15.6808 2.61977L13.9028 4.05347V10.2103L16.4479 12.2794C17.3668 12.4 17.2444 11.7097 17.2444 11.7097Z" fill="#34A853"/>
<path id="Vector_8" d="M10.1006 7.11958L13.903 10.2111V4.0542L10.1006 7.11958Z" fill="#188038"/>
</g>
</svg>
