<svg width="20" height="20" viewBox="0 0 20 20" fill="none" xmlns="http://www.w3.org/2000/svg">
<g id="uil:share">
<path id="Vector" d="M18.089 9.41066L11.4223 2.74399C11.3058 2.62748 11.1573 2.54814 10.9957 2.516C10.8341 2.48386 10.6665 2.50037 10.5143 2.56342C10.362 2.62648 10.2319 2.73327 10.1403 2.87027C10.0488 3.00728 9.99987 3.16836 9.99984 3.33316V6.28732C7.72341 6.49798 5.60753 7.55054 4.06625 9.23901C2.52497 10.9275 1.66923 13.1303 1.6665 15.4165V16.6665C1.66664 16.8395 1.7206 17.0081 1.8209 17.1491C1.9212 17.29 2.06288 17.3962 2.22628 17.453C2.38967 17.5098 2.56669 17.5143 2.73278 17.466C2.89887 17.4176 3.04579 17.3188 3.15317 17.1832C3.96971 16.2124 4.97145 15.4141 6.09992 14.8348C7.22838 14.2554 8.46096 13.9067 9.72567 13.809C9.76734 13.804 9.8715 13.7957 9.99984 13.7873V16.6665C9.99987 16.8313 10.0488 16.9924 10.1403 17.1294C10.2319 17.2664 10.362 17.3732 10.5143 17.4362C10.6665 17.4993 10.8341 17.5158 10.9957 17.4836C11.1573 17.4515 11.3058 17.3722 11.4223 17.2557L18.089 10.589C18.2452 10.4327 18.333 10.2208 18.333 9.99982C18.333 9.77885 18.2452 9.56693 18.089 9.41066ZM11.6665 14.6548V12.9165C11.6665 12.6955 11.5787 12.4835 11.4224 12.3272C11.2661 12.171 11.0542 12.0832 10.8332 12.0832C10.6207 12.0832 9.75317 12.1248 9.5315 12.154C7.2855 12.3607 5.14757 13.214 3.3765 14.6107C3.57754 12.7727 4.44945 11.0734 5.8253 9.83829C7.20114 8.60313 8.98424 7.91886 10.8332 7.91649C11.0542 7.91649 11.2661 7.82869 11.4224 7.67241C11.5787 7.51613 11.6665 7.30417 11.6665 7.08316V5.34482L16.3215 9.99982L11.6665 14.6548Z" fill="#333333"/>
</g>
</svg>
